<svg width="61" height="45" viewBox="0 0 61 45" fill="none" xmlns="http://www.w3.org/2000/svg">
<g clip-path="url(#clip0_152542_2253)">
<path fill-rule="evenodd" clip-rule="evenodd" d="M-3.08337 -1.52588e-05H64.4166V45H-3.08337V-1.52588e-05Z" fill="#199D00"/>
<path fill-rule="evenodd" clip-rule="evenodd" d="M13.9233 12.7528C13.853 13.8075 13.7475 15.6532 14.6528 15.8465C15.7338 15.952 15.1362 14.0184 15.5317 13.6668C15.602 13.4911 15.7338 13.4911 15.7426 13.7108V15.3543C15.7426 15.8817 16.0942 16.0399 16.3578 16.1454C16.6391 16.1278 16.8325 16.1454 16.9379 16.409L17.0786 19.2479C17.0786 19.2479 17.7289 19.4413 17.7641 17.6571C17.7905 16.6024 17.5532 15.7323 17.6938 15.5301C17.6938 15.328 17.9575 15.3192 18.1332 15.4159C18.4145 15.6092 18.5375 15.8553 18.977 15.7674C19.645 15.5741 20.0493 15.2489 20.058 14.7391C20.0449 14.2381 19.9406 13.7438 19.7504 13.2801C19.7856 13.1922 19.6274 12.9549 19.6625 12.867C19.7768 13.0604 19.9614 13.0428 19.9965 12.867C19.8823 12.4979 19.7065 12.1375 19.4252 11.9881C19.1879 11.7772 18.8364 11.8123 18.7221 12.2518C18.6518 12.7528 18.8979 13.3416 19.2582 13.8338C19.3373 14.0184 19.4428 14.3348 19.3989 14.6161C19.2055 14.7303 19.0121 14.6776 18.8452 14.5106C18.8452 14.5106 18.3178 14.1151 18.3178 14.0184C18.4584 13.1219 18.3442 13.0164 18.2651 12.7616C18.2123 12.4188 18.0453 12.3045 17.9135 12.076C17.7817 11.9354 17.6059 11.9354 17.518 12.076C17.2807 12.4803 17.395 13.3504 17.5619 13.7459C17.685 14.1063 17.8696 14.3348 17.7817 14.3348C17.7114 14.537 17.5619 14.4842 17.4477 14.2469C17.3191 13.7475 17.257 13.2333 17.2631 12.7176C17.2192 12.3133 17.1664 11.452 16.894 11.2235C16.7358 11.0125 16.4985 11.118 16.4106 11.3114C16.3874 11.704 16.3962 12.0979 16.4369 12.4891C16.6127 13.1395 16.6743 13.7196 16.7621 14.3788C16.7885 15.2664 16.2524 14.7655 16.2787 14.3172C16.394 13.7537 16.385 13.1718 16.2524 12.6122C16.1645 12.3836 16.0678 12.3309 15.8481 12.3661C15.6811 12.3661 15.2504 12.8319 15.1274 13.6229C15.1274 13.6229 15.0219 14.0272 14.978 14.3875C14.9164 14.7918 14.6528 15.0907 14.4594 14.3348C14.3012 13.7811 14.1957 12.4364 13.9321 12.7528H13.9233Z" fill="white"/>
<path fill-rule="evenodd" clip-rule="evenodd" d="M16.8676 17.0682L14.0551 18.4217C14.0814 17.7801 15.3822 16.6288 16.2787 16.62C16.85 16.6288 16.7094 16.8397 16.8588 17.0682H16.8676Z" fill="white"/>
<path fill-rule="evenodd" clip-rule="evenodd" d="M16.3666 17.9474C14.8901 21.7706 19.8383 22.3068 20.392 18.1056C20.4448 17.9298 20.6557 17.7628 20.6909 18.0441C20.5766 21.8497 16.8588 22.1046 16.226 20.9093C16.0772 20.498 16.0027 20.0635 16.0063 19.6261C15.9184 18.879 15.5229 19.1691 15.4614 19.9073C15.3998 20.3204 15.4174 20.4347 15.4174 20.8302C15.6108 23.836 20.4008 22.5441 21.183 20.0655C21.5961 18.6944 21.1127 17.6837 21.3325 17.6837C21.8071 18.1935 22.475 17.754 22.6245 17.5782C22.686 17.4903 22.8442 17.4288 22.9496 17.5431C23.3188 17.8068 23.9692 17.6837 24.1098 17.2179C24.1889 16.7521 24.2504 16.2775 24.268 15.7941C23.9604 15.8819 23.7407 15.9435 23.7143 16.0753L23.6528 16.4796C23.6264 16.6114 23.3715 16.6114 23.3539 16.4444C23.2397 15.9171 22.7651 15.8556 22.475 16.6642C22.2905 16.8224 21.9389 16.8575 21.9038 16.6202C21.9477 16.0753 21.728 16.005 21.2885 16.2599L20.8666 13.0782C21.0424 13.0782 21.2182 13.2101 21.3852 12.9991C21.2094 12.4278 20.8139 11.2677 20.5942 11.1798C20.4975 11.0568 20.4096 11.1359 20.269 11.171C20.0405 11.2413 19.8295 11.4347 19.8998 11.8214C20.1635 13.4737 20.3393 14.7306 20.6118 16.3917C20.6557 16.5763 20.4975 16.8312 20.2866 16.8048C19.935 16.5675 19.8471 16.0841 19.2319 16.1017C18.7924 16.1017 18.3002 16.5851 18.2387 17.0421C18.1596 17.4112 18.1332 17.8068 18.2387 18.1232C18.5463 18.4923 18.9155 18.4571 19.2407 18.378C19.5043 18.2638 19.7241 18.0001 19.8207 18.0616C19.8823 18.1407 19.8295 19.0196 18.5639 19.6876C17.7993 20.0392 17.184 20.1095 16.8588 19.4855C16.6567 19.09 16.8764 17.6046 16.3666 17.9474Z" fill="white"/>
<path fill-rule="evenodd" clip-rule="evenodd" d="M22.6686 14.0626C22.9586 13.9571 24.3649 12.3399 24.3649 12.3399L24.1539 12.1642C24.0748 12.1026 24.0836 12.0323 24.1539 11.9708C24.5055 11.7599 24.3912 11.3204 24.2155 11.1095C24.0961 11.0513 23.9649 11.0218 23.8321 11.0233C23.6993 11.0248 23.5688 11.0574 23.4508 11.1183C23.2047 11.3556 23.152 11.7335 23.3453 11.962C23.5299 12.0499 23.7145 12.2433 23.5914 12.3487C23.0114 12.964 21.4381 14.0274 21.6227 14.0626C21.6578 14.1153 22.6334 14.1153 22.6598 14.0626H22.6686ZM14.1432 19.7755C13.6159 20.6192 13.5719 21.8761 13.862 22.254C14.0202 22.4298 14.275 22.5089 14.4596 22.4474C14.7936 22.3067 14.943 21.63 14.8639 21.3927C14.7496 21.2169 14.6618 21.1905 14.5475 21.3311C14.319 21.8058 14.2223 21.4806 14.1959 21.2169C14.1707 20.7703 14.1943 20.3224 14.2662 19.8809C14.3278 19.5118 14.2662 19.6173 14.1432 19.7755ZM36.7399 18.4308C36.2301 17.3233 35.5182 16.2335 35.2985 15.8204C34.6136 14.7376 33.8864 13.6821 33.1188 12.6563C32.5739 12.0059 34.0153 12.9288 32.943 11.628L32.1608 10.9688C31.985 10.8458 31.5631 10.6173 31.4928 10.9864C31.4577 11.3204 31.4752 11.4962 31.528 11.7686C31.5719 11.9444 31.8356 12.252 31.9674 12.4278C33.7693 14.8145 35.3519 17.359 36.6959 20.0304C36.9245 19.9161 36.8717 18.6153 36.7399 18.4308Z" fill="white"/>
<path fill-rule="evenodd" clip-rule="evenodd" d="M34.4988 22.1047C34.3933 22.219 34.7449 22.7024 35.2019 22.7024C35.9578 22.6145 36.6258 22.1926 37.241 21.0676C37.491 20.6934 37.6505 20.2661 37.7068 19.8196C37.7813 17.686 37.6102 15.5509 37.1971 13.4563C37.1707 13.2805 37.1971 13.0696 37.2146 13.0169C37.2674 12.9553 37.4344 13.0169 37.5223 12.8674C37.6541 12.7356 37.1707 11.637 36.907 11.2239C36.8191 11.0305 36.7752 10.9075 36.617 11.2415C36.4261 11.61 36.3352 12.0221 36.3533 12.4368C36.7137 14.9417 36.8279 17.1301 37.0564 19.635C37.0828 19.8811 37.0476 20.2327 36.8807 20.3733C36.2175 21.1117 35.4058 21.7017 34.4988 22.1047ZM44.7381 22.096C44.1932 22.4124 44.1931 22.7727 44.6326 22.7815C45.3885 22.6936 46.2849 22.6321 46.9002 21.7004C47.1175 21.2616 47.2431 20.7832 47.2693 20.2942C47.38 18.1934 47.2413 16.0869 46.8562 14.0188C46.8387 13.843 46.7596 13.4299 46.7859 13.3772C46.8387 13.2542 47.0847 13.386 47.1726 13.2454C47.2957 13.1135 46.531 12.1292 46.2586 11.7073C46.1707 11.5139 46.1355 11.3909 45.9685 11.7249C45.7915 12.0968 45.7362 12.515 45.8103 12.9202C46.2146 15.6448 46.5135 17.6838 46.575 20.0921C46.5398 20.3206 46.531 20.4436 46.4256 20.7337C46.1883 21.0325 45.9246 21.4192 45.6785 21.6038C45.4324 21.7796 44.9051 21.9553 44.7381 22.096Z" fill="white"/>
<path fill-rule="evenodd" clip-rule="evenodd" d="M45.1422 19.6613C45.1422 19.0197 45.151 18.4748 45.1334 17.9914C45.1277 17.582 45.038 17.1781 44.8697 16.8048C44.7115 16.4445 44.8082 16.1544 44.7291 15.7677C44.6588 15.381 44.6764 14.8009 44.5709 14.3527C44.5357 14.1769 44.4478 13.6056 44.4742 13.5441C44.5182 13.421 44.6851 13.5441 44.773 13.4035C44.8961 13.2716 44.3336 11.8214 44.0523 11.4084C43.9557 11.2238 43.7623 11.2853 43.5426 11.5841C43.3228 11.7863 43.4019 12.2345 43.4898 12.6652C44.026 15.5041 44.4391 18.0793 44.3512 20.7775C44.316 21.006 45.1422 20.0919 45.1422 19.6613ZM41.1256 16.1457C40.7828 16.1281 40.0709 15.4689 39.86 15.091C39.8254 14.9986 39.8107 14.9 39.8168 14.8016C39.8228 14.7032 39.8495 14.6071 39.8951 14.5197C40.0269 14.4318 40.2203 14.3439 40.3697 14.4318C40.3697 14.4318 40.5191 14.6427 40.4928 14.6691C40.6685 14.757 40.7564 14.713 40.774 14.6339C40.7828 14.5021 40.7213 14.423 40.7213 14.2824C40.8004 13.8781 41.2486 13.8166 41.4244 14.0714C41.5475 14.2296 41.6002 14.5548 41.609 14.7746C41.609 14.8888 41.4332 14.757 41.3189 14.7746C41.2223 14.8097 41.1959 14.9328 41.1871 15.0382C41.1695 15.3283 41.1344 15.7941 41.1256 16.1369V16.1457ZM34.815 20.3644C34.9029 19.5031 34.7799 17.965 34.7711 17.4552C34.7241 16.1442 34.6156 14.8361 34.4459 13.5353C34.3404 12.797 34.7447 13.6144 34.692 13.1837C34.5601 12.4543 34.1559 11.9533 33.6725 11.2941C33.523 11.0744 33.523 11.0304 33.2857 11.3468C33.0221 11.9357 33.2506 12.3488 33.3209 12.8146C33.6637 14.3263 33.8658 15.715 33.9625 17.0949C34.0637 18.5283 34.0754 19.9666 33.9976 21.4015C34.2613 21.4103 34.6656 20.9884 34.815 20.3644Z" fill="white"/>
<path fill-rule="evenodd" clip-rule="evenodd" d="M46.3111 18.9846C45.7047 17.9651 44.7994 16.8752 44.5533 16.4621C43.7383 15.324 42.8823 14.2159 41.9869 13.1399C41.2398 12.3488 42.3385 13.008 41.8463 12.3928C41.4332 11.9445 41.3189 11.7951 40.9586 11.5227C40.7828 11.4084 40.6773 11.1887 40.607 11.5666C40.579 11.894 40.5731 12.2228 40.5894 12.551C40.5894 12.7004 40.7476 12.9904 40.8883 13.1662C42.7076 15.4074 44.7027 17.6926 46.3023 20.5666C46.5309 20.4524 46.4518 19.1604 46.3023 18.9846H46.3111Z" fill="white"/>
<path fill-rule="evenodd" clip-rule="evenodd" d="M18.9419 17.1123C18.8979 17.1914 18.8012 17.2881 18.8364 17.3847C18.8979 17.4726 18.9594 17.499 19.0649 17.499C19.1616 17.499 19.3022 17.5254 19.3286 17.4726C19.3813 17.4111 19.4165 17.2968 19.3813 17.1826C19.2759 16.9189 18.9946 17.0244 18.9419 17.1123Z" fill="#1BA400"/>
<path fill-rule="evenodd" clip-rule="evenodd" d="M39.2974 31.8607C40.106 31.8959 40.6334 31.9047 41.3453 31.9838L42.189 31.8959C43.1207 31.808 43.1558 33.223 43.1558 33.223C43.1558 34.058 42.8306 34.1019 42.4175 34.1898C42.1802 34.225 42.066 34.0492 41.9341 33.8734C41.7354 33.9371 41.5236 33.9492 41.3189 33.9086C40.9761 33.891 40.6422 33.891 40.3082 33.8646C39.9566 33.8383 39.7632 33.9086 39.4029 33.8734C39.3326 33.9877 39.2271 34.1459 39.0162 34.1019C38.8404 34.0756 38.6207 33.5746 38.6822 33.1791C38.814 32.8978 38.7701 32.9945 38.7701 32.8715C35.4654 32.7836 32.1343 32.6342 28.9 32.6781C26.3687 32.6869 23.8726 32.7924 21.3677 32.8978C20.0318 32.8803 19.0123 32.6693 18.3091 31.641C18.3795 31.641 21.7193 31.8256 22.6949 31.764C24.4966 31.7465 26.149 31.5971 27.9859 31.5443C31.607 31.6058 35.2017 31.6058 38.8228 31.8607C38.4713 31.6234 38.4713 31.0697 38.9986 30.9291C39.0425 30.8939 39.0689 31.2015 39.148 31.1928C39.5787 31.1664 39.3853 31.7465 39.2974 31.8607ZM24.7427 11.892C24.1978 13.4564 25.0591 15.1791 25.6568 15.0121C26.0963 15.1879 26.3599 14.3617 26.5357 13.4652C26.6675 13.2103 26.7554 13.184 26.817 13.3158C26.7994 14.5111 26.9048 14.7836 27.2125 15.1439C27.898 15.6713 28.4693 15.2142 28.5132 15.1703L29.0406 14.6342C29.1636 14.5023 29.3218 14.5023 29.4888 14.6078C29.6558 14.7572 29.6295 15.0121 29.981 15.1879C30.2798 15.3109 30.9039 15.223 31.0533 14.9681C31.2466 14.6254 31.2994 14.5111 31.3873 14.3881C31.5279 14.2035 31.7652 14.2826 31.7652 14.3441C31.7388 14.4496 31.5982 14.5463 31.6949 14.7396C31.8707 14.8627 31.9058 14.7836 32.0025 14.7572C32.3541 14.5814 32.6177 13.8256 32.6177 13.8256C32.6265 13.5443 32.4683 13.5619 32.3629 13.6322L32.0904 13.8168C31.9146 13.8431 31.5894 13.9574 31.4224 13.7025C31.2554 13.4037 31.2554 12.973 31.1324 12.6654C31.1324 12.6478 30.9039 12.182 31.1148 12.1556C31.2203 12.1732 31.44 12.2347 31.4752 12.0502C31.5806 11.8656 31.2466 11.3471 31.0093 11.0834C30.8072 10.8637 30.5259 10.8373 30.2535 11.0658C30.0601 11.2416 30.0865 11.4349 30.0513 11.6195C30.018 11.7518 30.0165 11.8901 30.0471 12.023C30.0777 12.156 30.1394 12.2797 30.2271 12.3842C30.4205 12.7533 30.7632 13.2367 30.649 13.9222C30.649 13.9222 30.4468 14.2387 30.0953 14.1947C29.9459 14.1683 29.7086 14.1068 29.5855 13.1576C29.4888 12.4545 29.6031 11.4525 29.3043 10.9867C29.19 10.6967 29.1109 10.4242 28.8472 10.9076C28.7769 11.101 28.4693 11.391 28.689 11.9799C28.8969 12.5105 28.9577 13.0875 28.8648 13.6498C28.733 13.8431 28.7066 13.9047 28.5396 14.0892C28.3111 14.3529 28.0562 14.2826 27.8629 14.1859C27.6871 14.0717 27.5464 14.0101 27.4586 13.6146C27.4761 12.9994 27.5113 11.9887 27.397 11.7777C27.23 11.4437 26.9576 11.5668 26.8433 11.6722C26.3205 12.2531 25.9704 12.9685 25.8326 13.7377C25.6744 14.2474 25.5074 14.098 25.3931 13.8959C25.1119 13.6322 25.0855 11.5492 24.7427 11.892Z" fill="white"/>
<path fill-rule="evenodd" clip-rule="evenodd" d="M26.3952 15.3018C26.6501 15.126 26.5358 15.003 26.9049 15.3721C27.3814 16.2151 27.658 17.1563 27.7135 18.1231C27.696 18.3516 27.8542 18.4922 27.9333 18.4395C27.9684 17.9121 29.2604 17.1739 30.4469 17.0684C30.6227 17.0244 30.5348 16.6817 30.5612 16.5059C30.4909 15.8467 30.9303 15.249 31.5456 15.2051C32.3893 15.3281 32.6706 15.7764 32.6882 16.4531C32.5915 17.7715 31.2204 17.9912 30.4557 18.0967C30.3415 18.1406 30.2887 18.1934 30.4557 18.2549L33.6725 18.2725L33.8395 18.3604C33.8571 18.4483 33.7868 18.378 33.6637 18.5889C33.4868 18.8998 33.3761 19.2439 33.3385 19.5996C32.3805 19.916 31.3874 20.0391 30.3854 20.1709C30.0339 20.3467 29.8581 20.584 29.9284 20.8477C30.0514 21.1377 30.8249 21.4365 30.8249 21.4453C30.9743 21.5332 31.1413 21.753 30.7809 22.2012C29.2165 22.1309 27.9948 21.4629 27.5729 20.5225C27.4499 20.4258 27.3092 20.5225 27.2214 20.6455C26.6061 21.4365 26.0085 22.1397 24.9626 22.5264C24.3473 22.6846 23.7057 22.4297 23.4069 22.0254C23.2048 21.7881 23.2135 21.5332 23.1432 21.4805C22.8005 21.6299 19.9001 22.8604 20.2692 22.2803C20.9723 21.5332 22.2028 20.9707 23.2751 20.2324C23.3542 19.9776 23.4948 19.1338 23.9167 18.8614C23.943 18.8614 23.8551 19.3535 23.8639 19.5645C23.8639 19.7403 23.8464 19.8018 23.8815 19.7578C23.9606 19.7139 25.2614 18.6856 25.3757 18.3692C25.4987 18.1934 25.402 17.7364 25.402 17.7188C25.1559 17.086 24.8132 17.0332 24.6901 16.7168C24.5758 16.3037 24.6286 15.8291 24.8659 15.6885C25.0768 15.5039 25.3229 15.5215 25.5602 15.7324C25.8239 15.9698 26.0524 16.4356 26.1227 16.7783C26.0788 16.9102 25.7712 16.6905 25.6833 16.752C25.8524 16.9464 25.9649 17.1835 26.0085 17.4375C26.1842 18.1582 26.1315 18.4395 25.9557 18.9053C25.3757 20.127 24.6374 20.4873 23.987 20.9444C23.9694 20.9444 23.9606 21.252 24.1979 21.419C24.2858 21.5069 24.6286 21.5508 25.0241 21.419C25.8691 20.9497 26.5523 20.2358 26.984 19.3711C27.0587 18.7131 26.9867 18.0468 26.7731 17.4199C26.5182 16.8311 26.2194 15.9961 26.2194 15.9785C26.2106 15.6094 26.237 15.4864 26.3952 15.3018ZM17.9753 11.9092C18.3444 12.085 19.0475 12.0059 19.0124 11.4082L18.9948 11.1358C18.9245 10.96 18.7135 11.0039 18.6696 11.1797C18.652 11.2412 18.696 11.3379 18.6432 11.3643C18.6081 11.3994 18.4938 11.3819 18.4938 11.2149C18.4938 11.1621 18.4587 11.1094 18.4323 11.0742C18.4147 11.0567 18.3971 11.0567 18.3532 11.0567C18.3005 11.0567 18.3005 11.0655 18.2741 11.1094C18.2653 11.1533 18.2477 11.1973 18.2477 11.25C18.2477 11.3115 18.2126 11.3291 18.1774 11.3379C18.1247 11.3379 18.1335 11.3379 18.0895 11.3203C18.0719 11.294 18.0456 11.2852 18.0456 11.2324L18.0192 11.0918C18.0016 11.0655 17.9665 11.0479 17.9313 11.0391C17.7292 11.0391 17.7116 11.2764 17.7292 11.3643C17.7116 11.3819 17.7028 11.7949 17.9753 11.9092Z" fill="white"/>
<path fill-rule="evenodd" clip-rule="evenodd" d="M28.8297 16.4972C29.1989 16.673 30.0866 16.5763 29.8668 16.005L29.8493 15.7238C29.7701 15.548 29.568 15.592 29.5241 15.7765C29.5065 15.8293 29.5504 15.9259 29.4889 15.9523C29.4625 15.9875 29.3395 15.9699 29.3483 15.8117C29.3483 15.7589 29.3131 15.6974 29.2868 15.6623C29.2604 15.6535 29.2516 15.6447 29.1989 15.6447C29.1549 15.6447 29.1549 15.6623 29.1285 15.7062C29.111 15.7502 29.1022 15.7941 29.1022 15.8468C29.0934 15.8996 29.067 15.9171 29.0231 15.9347C28.9791 15.9347 28.9879 15.9347 28.9528 15.9084C28.9264 15.882 28.9 15.8732 28.9 15.8293L28.8737 15.6886C28.8561 15.6623 28.8209 15.6447 28.7858 15.6359C28.5836 15.6359 28.566 15.8644 28.5748 15.9523C28.566 15.9699 28.5573 16.3918 28.8385 16.4972H28.8297ZM35.1578 14.5988C35.527 14.7746 36.2213 14.6955 36.195 14.1066L36.1774 13.8253C36.0983 13.6496 35.8961 13.6935 35.8522 13.8693C35.8346 13.9308 35.8785 14.0275 35.817 14.0627C35.7907 14.089 35.6676 14.0714 35.6764 13.9045C35.6764 13.8517 35.6412 13.799 35.6149 13.7638C35.5885 13.7462 35.5797 13.7462 35.527 13.7462C35.483 13.7462 35.483 13.7638 35.4567 13.8078L35.4303 13.9396C35.4215 14.0011 35.3951 14.0275 35.3512 14.0275C35.3073 14.0275 35.316 14.0275 35.2809 14.0099C35.2545 13.9836 35.2282 13.9748 35.2282 13.9308C35.2282 13.8869 35.2194 13.8166 35.2018 13.7814C35.1842 13.755 35.1491 13.7462 35.1139 13.7375C34.9118 13.7375 34.8942 13.966 34.903 14.0539C34.8942 14.0714 34.8854 14.4845 35.1666 14.5988H35.1578ZM38.4362 19.3712C37.7946 20.1007 38.0758 21.3048 38.2252 21.5685C38.4362 21.9904 38.6032 22.2628 39.0162 22.4738C39.3942 22.7462 39.693 22.5793 39.8512 22.3859C40.2291 21.9904 40.2379 20.9796 40.4137 20.7863C40.5367 20.4171 40.8532 20.4787 41.0026 20.6457C41.1424 20.8441 41.3297 21.0043 41.5475 21.1115C41.8991 21.4191 42.3209 21.4806 42.7428 21.1994C43.0241 21.0324 43.2086 20.8302 43.3756 20.4171C43.5514 19.925 43.4635 17.6398 43.4196 16.2863L43.0504 14.3966C43.0504 14.3791 43.0065 13.5002 42.9625 13.298C42.9625 13.2101 42.9362 13.1837 43.0241 13.1925C43.1207 13.2804 43.1295 13.2804 43.1998 13.3068C43.2877 13.3244 43.3756 13.1574 43.3141 13.0168L42.4352 11.382C42.3649 11.3117 42.2682 11.2414 42.1539 11.3996C42.0865 11.4606 42.0329 11.5353 41.9965 11.6186C41.9601 11.7019 41.9419 11.792 41.943 11.883C41.9694 12.2697 42.0309 12.6652 42.0573 13.0519L42.4088 15.0382C42.5231 16.4445 42.5494 17.6046 42.6637 19.0197C42.6461 19.6173 42.4616 20.1359 42.2858 20.215C42.2858 20.215 42.0221 20.3644 41.8463 20.1974C41.7145 20.1447 41.1959 19.3273 41.1959 19.3273C40.9323 19.09 40.7565 19.1515 40.5719 19.3273C40.0446 19.8371 39.816 20.7687 39.4557 21.4191C39.3678 21.5685 39.1041 21.6828 38.8229 21.4103C38.1022 20.4171 38.5241 19.0109 38.4362 19.3712ZM35.3248 11.1359C35.6588 11.2677 35.8873 11.9445 35.817 12.2785C35.7467 12.674 35.5709 13.1134 35.4479 13.0607C35.3073 13.008 35.5358 12.6564 35.4039 12.2873C35.3336 12.0412 34.8766 11.6017 34.9293 11.4787C34.8414 11.2062 35.1227 11.0832 35.3248 11.1271V11.1359Z" fill="white"/>
<path fill-rule="evenodd" clip-rule="evenodd" d="M39.5084 19.7752C39.5699 18.9667 39.4557 18.4745 39.4381 17.9999C39.4205 17.5252 38.902 13.9042 38.7965 13.5526C38.6647 12.867 39.2975 13.4647 39.2272 13.0604C39.0074 12.5682 38.4713 11.8387 38.3043 11.4081C38.1988 11.2323 38.2428 11.0565 38.0143 11.3641C37.8175 11.9035 37.7483 12.4811 37.8121 13.0516C38.357 15.8905 38.9107 18.246 38.8229 20.9442C39.0865 20.9442 39.3766 20.3553 39.5084 19.7752ZM45.1686 12.2782C45.4762 12.4276 45.652 13.2713 45.6168 13.5086C45.5553 13.9481 45.3971 14.4227 45.2828 14.3612C45.151 14.3084 45.3092 13.7108 45.2477 13.5262C45.1773 13.2626 44.7643 12.7879 44.8082 12.6473C44.7203 12.3485 44.984 12.2254 45.1686 12.2782ZM22.6949 18.246C22.985 18.3602 23.1608 18.9754 23.1344 19.1512C23.0641 19.4764 22.9147 19.828 22.8004 19.7752C22.6861 19.7401 22.8268 19.3006 22.774 19.16C22.7477 18.8348 22.3434 18.659 22.3522 18.5184C22.2818 18.2547 22.5279 18.2108 22.7037 18.246H22.6949Z" fill="white"/>
<path fill-rule="evenodd" clip-rule="evenodd" d="M29.691 19.1778C30.0602 19.1954 30.2448 19.4942 29.902 19.6172C29.5504 19.7315 29.2252 19.8282 29.2164 20.3204C29.3483 21.0235 29.0407 20.7774 28.8649 20.6895C28.6539 20.5313 28.0563 20.1622 27.9684 19.3712C27.9596 19.1866 28.109 19.0196 28.3463 19.0196C28.6979 19.1163 29.2252 19.1251 29.691 19.1778Z" fill="#1B9D00"/>
<path fill-rule="evenodd" clip-rule="evenodd" d="M14.9692 10.9336C15.3911 11.0567 15.4174 11.6895 15.3911 11.8741C15.3295 12.208 15.1801 12.5684 15.0747 12.5244C14.9516 12.4805 15.0747 12.0235 15.0131 11.8828C14.9516 11.6895 14.5913 11.3203 14.6264 11.2149C14.5473 10.9952 14.8022 10.8897 14.9692 10.9336ZM23.3979 13.8868C23.0639 14.0625 22.9409 14.5899 23.143 14.9063C23.3364 15.17 23.6352 15.0733 23.6704 15.0733C23.9956 15.1084 24.1889 14.4668 24.1889 14.4668C24.1889 14.4668 24.1977 14.291 23.8198 14.6338C23.6528 14.6602 23.644 14.5987 23.6001 14.5108C23.5598 14.3435 23.5752 14.1676 23.644 14.0098C23.7055 13.8516 23.5825 13.7813 23.3979 13.8868ZM25.8588 10.6875C25.6831 10.8018 25.3579 11.1446 25.3491 11.5313C25.3403 11.751 25.2963 11.751 25.437 11.8828C25.5512 12.041 25.6479 12.0323 25.8588 11.918C25.9114 11.8849 25.9565 11.8413 25.9913 11.7898C26.0261 11.7384 26.0498 11.6803 26.061 11.6192C26.1137 11.3731 25.7973 11.7422 25.7622 11.461C25.6918 11.1973 25.894 11.0918 26.0874 10.8457C26.0874 10.67 26.0874 10.5557 25.85 10.6875H25.8588ZM27.8276 11.0391C27.7501 11.3591 27.703 11.6858 27.687 12.0147C27.6342 12.2608 27.9506 12.3662 28.0825 12.0498C28.2934 11.4785 28.2934 11.2325 28.311 10.9952C28.2495 10.6172 27.9946 10.626 27.8276 11.0391ZM40.3081 17.3936C40.3432 17.3496 42.0659 16.128 42.0659 16.128C42.2417 16.0664 42.1977 16.7608 42.1186 16.752C41.5844 17.2669 40.9699 17.6914 40.2993 18.0088C40.2114 18.0703 40.1323 17.543 40.2993 17.3936H40.3081ZM41.8637 17.376C42.1713 17.5254 42.2944 18.4131 42.2592 18.6504C42.2592 19.125 41.9692 19.4942 41.8461 19.4414C41.7231 19.3799 41.8637 18.8526 41.8022 18.668C41.7319 18.4043 41.477 17.9209 41.5209 17.7803C41.4331 17.4815 41.6792 17.3233 41.8725 17.376H41.8637ZM31.6684 21.1905C31.811 21.0241 31.9767 20.879 32.1606 20.7598C32.3364 20.6719 32.4946 20.8301 32.4858 20.8213C32.5122 20.9971 32.3803 21.1465 32.4243 21.375C32.4594 21.4629 32.4858 21.5684 32.6528 21.5332C32.9252 21.3135 33.1801 21.2959 33.4438 21.2871C33.6635 21.2959 33.6723 21.6563 33.5317 21.6563C33.0307 21.7618 32.811 21.9024 32.4506 22.0342C32.2749 22.1397 32.1342 22.0078 32.1342 21.9991C32.1342 21.9903 32.0375 21.9024 32.0991 21.6739C32.1167 21.4981 32.0463 21.3926 31.8881 21.4102C31.7827 21.4805 31.6772 21.5157 31.6245 21.3838C31.5981 21.2959 31.5893 21.2432 31.6684 21.1905ZM43.6743 21.6651C43.7446 21.753 43.7973 21.8409 43.6655 21.9991L43.3403 22.2803C43.2876 22.3682 43.2524 22.5264 43.4282 22.5703C43.7446 22.6582 44.4829 22.1748 44.4829 22.1661C44.6059 22.0782 44.5708 21.9024 44.5532 21.9024C44.4829 21.8233 44.3247 21.876 44.2192 21.8584C44.1665 21.8584 43.9995 21.8409 44.0786 21.6827C44.1376 21.605 44.185 21.5191 44.2192 21.4278C44.2631 21.3223 44.2192 21.252 44.0434 21.1905C43.8588 21.1553 43.7797 21.1729 43.5776 21.1905C43.4721 21.208 43.437 21.2608 43.4106 21.3926C43.4194 21.5948 43.5424 21.586 43.6743 21.6563V21.6651Z" fill="white"/>
<path fill-rule="evenodd" clip-rule="evenodd" d="M31.7302 16.6732C31.6862 16.7611 31.528 16.7611 31.3786 16.6732C31.2292 16.5853 31.1413 16.4446 31.194 16.3655C31.2468 16.2864 31.3962 16.2864 31.5456 16.3655C31.695 16.4446 31.7741 16.5941 31.7302 16.6732ZM23.9079 11.9622C23.82 11.9886 23.697 11.9095 23.6442 11.7864C23.5915 11.6634 23.6179 11.5579 23.7058 11.5316C23.7937 11.5052 23.9079 11.5931 23.9694 11.7073C24.031 11.8216 23.9958 11.9446 23.8991 11.971L23.9079 11.9622Z" fill="#259F00"/>
<path fill-rule="evenodd" clip-rule="evenodd" d="M39.3854 32.959C40.2116 32.9942 40.985 32.959 41.8024 33.003C41.9518 33.1348 41.8464 33.4424 41.7497 33.4249L41.0641 33.3985C41.0553 33.1348 40.3874 33.1788 40.4049 33.4073C40.0446 33.4512 39.7194 33.3985 39.3503 33.3809C39.2448 33.2491 39.2624 33.0118 39.3854 32.959Z" fill="#209000"/>
</g>
<defs>
<clipPath id="clip0_152542_2253">
<rect width="60" height="45" fill="white" transform="translate(0.666504)"/>
</clipPath>
</defs>
</svg>
