<svg width="61" height="45" viewBox="0 0 61 45" fill="none" xmlns="http://www.w3.org/2000/svg">
<g clip-path="url(#clip0_152542_2256)">
<path d="M0.666382 0H60.6664V45H0.666382V0Z" fill="#74ACDF"/>
<path d="M0.666504 15H60.6665V30H0.666504V15Z" fill="white"/>
<path d="M30.3787 22.6171L32.9437 28.1971C32.9437 28.1971 32.9887 28.3051 33.0607 28.2781C33.1327 28.2421 33.0877 28.1341 33.0877 28.1341L30.9547 22.3741M30.8917 24.5521C30.8557 25.3981 31.3777 25.8661 31.3147 26.6221C31.2427 27.3871 31.6567 27.8101 31.7647 28.1071C31.8547 28.4041 31.6567 28.5751 31.7377 28.6201C31.8277 28.6651 32.0077 28.4311 31.9537 28.0081C31.8907 27.5941 31.5757 27.4681 31.6477 26.5411C31.7197 25.6141 31.2697 25.3981 31.3777 24.5611" fill="#F6B40E"/>
<path d="M30.3787 22.6171L32.9437 28.1971C32.9437 28.1971 32.9887 28.3051 33.0607 28.2781C33.1327 28.2421 33.0877 28.1341 33.0877 28.1341L30.9547 22.3741M30.8917 24.5521C30.8557 25.3981 31.3777 25.8661 31.3147 26.6221C31.2427 27.3871 31.6567 27.8101 31.7647 28.1071C31.8547 28.4041 31.6567 28.5751 31.7377 28.6201C31.8277 28.6651 32.0077 28.4311 31.9537 28.0081C31.8907 27.5941 31.5757 27.4681 31.6477 26.5411C31.7197 25.6141 31.2697 25.3981 31.3777 24.5611" stroke="#85340A" stroke-width="0.109046"/>
<path d="M30.3556 22.4978L30.59 28.6346C30.59 28.6346 30.5902 28.7516 30.6671 28.7542C30.7474 28.7485 30.7471 28.6315 30.7471 28.6315L30.9808 22.4937M30.0891 24.4818C29.7321 25.2496 30.0352 25.8818 29.6877 26.5561C29.3285 27.2353 29.5491 27.7846 29.5352 28.1003C29.5047 28.4091 29.2563 28.4913 29.3139 28.5639C29.3798 28.6399 29.6357 28.4926 29.7477 28.0811C29.8479 27.6746 29.6051 27.4376 30.0264 26.6087C30.4476 25.7798 30.1146 25.4081 30.5346 24.6761" fill="#F6B40E"/>
<path d="M30.3556 22.4978L30.59 28.6346C30.59 28.6346 30.5902 28.7516 30.6671 28.7542C30.7474 28.7485 30.7471 28.6315 30.7471 28.6315L30.9808 22.4937M30.0891 24.4818C29.7321 25.2496 30.0352 25.8818 29.6877 26.5561C29.3285 27.2353 29.5491 27.7846 29.5352 28.1003C29.5047 28.4091 29.2563 28.4913 29.3139 28.5639C29.3798 28.6399 29.6357 28.4926 29.7477 28.0811C29.8479 27.6746 29.6051 27.4376 30.0264 26.6087C30.4476 25.7798 30.1146 25.4081 30.5346 24.6761" stroke="#85340A" stroke-width="0.109046"/>
<path d="M30.3802 22.3792L28.2482 28.1386C28.2482 28.1386 28.2037 28.2468 28.2737 28.2786C28.3501 28.304 28.3946 28.1959 28.3946 28.1959L30.9593 22.6147M29.3747 24.1102C28.751 24.6829 28.7892 25.383 28.2101 25.873C27.6182 26.363 27.6119 26.9549 27.4782 27.2413C27.3318 27.5149 27.0709 27.4958 27.0964 27.5849C27.1282 27.6804 27.4209 27.6422 27.6819 27.3049C27.93 26.9676 27.7964 26.6558 28.5028 26.0512C29.2092 25.4466 29.0437 24.9757 29.712 24.4602" fill="#F6B40E"/>
<path d="M30.3802 22.3792L28.2482 28.1386C28.2482 28.1386 28.2037 28.2468 28.2737 28.2786C28.3501 28.304 28.3946 28.1959 28.3946 28.1959L30.9593 22.6147M29.3747 24.1102C28.751 24.6829 28.7892 25.383 28.2101 25.873C27.6182 26.363 27.6119 26.9549 27.4782 27.2413C27.3318 27.5149 27.0709 27.4958 27.0964 27.5849C27.1282 27.6804 27.4209 27.6422 27.6819 27.3049C27.93 26.9676 27.7964 26.6558 28.5028 26.0512C29.2092 25.4466 29.0437 24.9757 29.712 24.4602" stroke="#85340A" stroke-width="0.109046"/>
<path d="M30.4486 22.2784L26.2749 26.7836C26.2749 26.7836 26.1924 26.8665 26.2449 26.9227C26.3057 26.9754 26.3882 26.8925 26.3882 26.8925L30.8935 22.7176M28.8572 23.4929C28.0618 23.7834 27.8292 24.4447 27.1066 24.6758C26.3723 24.9021 26.14 25.4464 25.9069 25.6599C25.6669 25.8567 25.4332 25.7392 25.4226 25.8312C25.4155 25.9316 25.7005 26.0084 26.0707 25.7966C26.4291 25.58 26.4249 25.2407 27.3089 24.9525C28.1929 24.6643 28.2203 24.1659 29.0349 23.9453" fill="#F6B40E"/>
<path d="M30.4486 22.2784L26.2749 26.7836C26.2749 26.7836 26.1924 26.8665 26.2449 26.9227C26.3057 26.9754 26.3882 26.8925 26.3882 26.8925L30.8935 22.7176M28.8572 23.4929C28.0618 23.7834 27.8292 24.4447 27.1066 24.6758C26.3723 24.9021 26.14 25.4464 25.9069 25.6599C25.6669 25.8567 25.4332 25.7392 25.4226 25.8312C25.4155 25.9316 25.7005 26.0084 26.0707 25.7966C26.4291 25.58 26.4249 25.2407 27.3089 24.9525C28.1929 24.6643 28.2203 24.1659 29.0349 23.9453" stroke="#85340A" stroke-width="0.109046"/>
<path d="M31.0537 24.6961C31.0987 25.5061 31.5577 25.8661 31.4677 26.6131C31.6657 26.0281 31.1887 25.5691 31.2157 24.7051M30.5227 22.5631L32.2777 26.3971L30.8107 22.4461" fill="#85340A"/>
<path d="M30.1836 24.6767C29.9152 25.4423 30.2015 25.9506 29.8325 26.6062C30.2393 26.1416 29.9743 25.5349 30.3298 24.747M30.5093 22.5029L30.6635 26.7167L30.8202 22.505" fill="#85340A"/>
<path d="M29.3875 24.3264C28.8466 24.931 28.9166 25.5101 28.3247 25.9747C28.8784 25.701 28.8657 25.0392 29.4957 24.4473M30.5203 22.4427L29.0502 26.3947L30.8067 22.5636" fill="#85340A"/>
<path d="M28.786 23.698C28.0549 24.0495 27.8979 24.6114 27.1733 24.8141C27.7896 24.7731 28.0311 24.1568 28.8397 23.8511M30.5534 22.3911L27.6829 25.4798L30.7717 22.6125" fill="#85340A"/>
<path d="M30.5496 22.2122L24.9696 24.7772C24.9696 24.7772 24.8616 24.8222 24.8886 24.8942C24.9246 24.9662 25.0326 24.9212 25.0326 24.9212L30.7926 22.7882M28.6146 22.7252C27.7686 22.6892 27.3006 23.2112 26.5446 23.1482C25.7796 23.0762 25.3566 23.4902 25.0596 23.5982C24.7626 23.6882 24.5916 23.4902 24.5466 23.5712C24.5016 23.6612 24.7356 23.8412 25.1586 23.7872C25.5726 23.7242 25.6986 23.4092 26.6256 23.4812C27.5526 23.5532 27.7686 23.1032 28.6056 23.2112" fill="#F6B40E"/>
<path d="M30.5496 22.2122L24.9696 24.7772C24.9696 24.7772 24.8616 24.8222 24.8886 24.8942C24.9246 24.9662 25.0326 24.9212 25.0326 24.9212L30.7926 22.7882M28.6146 22.7252C27.7686 22.6892 27.3006 23.2112 26.5446 23.1482C25.7796 23.0762 25.3566 23.4902 25.0596 23.5982C24.7626 23.6882 24.5916 23.4902 24.5466 23.5712C24.5016 23.6612 24.7356 23.8412 25.1586 23.7872C25.5726 23.7242 25.6986 23.4092 26.6256 23.4812C27.5526 23.5532 27.7686 23.1032 28.6056 23.2112" stroke="#85340A" stroke-width="0.109046"/>
<path d="M30.6687 22.1893L24.5319 22.4237C24.5319 22.4237 24.4149 22.4239 24.4122 22.5008C24.418 22.5811 24.535 22.5808 24.535 22.5808L30.6728 22.8144M28.6847 21.9228C27.9168 21.5657 27.2847 21.8689 26.6104 21.5214C25.9311 21.1621 25.3819 21.3827 25.0662 21.3689C24.7574 21.3384 24.6751 21.09 24.6026 21.1476C24.5266 21.2135 24.6739 21.4694 25.0853 21.5814C25.4919 21.6816 25.7289 21.4388 26.5578 21.86C27.3866 22.2813 27.7584 21.9482 28.4904 22.3683" fill="#F6B40E"/>
<path d="M30.6687 22.1893L24.5319 22.4237C24.5319 22.4237 24.4149 22.4239 24.4122 22.5008C24.418 22.5811 24.535 22.5808 24.535 22.5808L30.6728 22.8144M28.6847 21.9228C27.9168 21.5657 27.2847 21.8689 26.6104 21.5214C25.9311 21.1621 25.3819 21.3827 25.0662 21.3689C24.7574 21.3384 24.6751 21.09 24.6026 21.1476C24.5266 21.2135 24.6739 21.4694 25.0853 21.5814C25.4919 21.6816 25.7289 21.4388 26.5578 21.86C27.3866 22.2813 27.7584 21.9482 28.4904 22.3683" stroke="#85340A" stroke-width="0.109046"/>
<path d="M30.7874 22.2138L25.028 20.0819C25.028 20.0819 24.9198 20.0373 24.888 20.1073C24.8626 20.1837 24.9707 20.2282 24.9707 20.2282L30.5519 22.7929M29.0564 21.2083C28.4836 20.5846 27.7836 20.6228 27.2936 20.0437C26.8036 19.4518 26.2117 19.4455 25.9253 19.3118C25.6517 19.1655 25.6708 18.9045 25.5817 18.93C25.4862 18.9618 25.5244 19.2546 25.8617 19.5155C26.199 19.7637 26.5108 19.63 27.1154 20.3364C27.72 21.0428 28.1909 20.8774 28.7064 21.5456" fill="#F6B40E"/>
<path d="M30.7874 22.2138L25.028 20.0819C25.028 20.0819 24.9198 20.0373 24.888 20.1073C24.8626 20.1837 24.9707 20.2282 24.9707 20.2282L30.5519 22.7929M29.0564 21.2083C28.4836 20.5846 27.7836 20.6228 27.2936 20.0437C26.8036 19.4518 26.2117 19.4455 25.9253 19.3118C25.6517 19.1655 25.6708 18.9045 25.5817 18.93C25.4862 18.9618 25.5244 19.2546 25.8617 19.5155C26.199 19.7637 26.5108 19.63 27.1154 20.3364C27.72 21.0428 28.1909 20.8774 28.7064 21.5456" stroke="#85340A" stroke-width="0.109046"/>
<path d="M30.8877 22.2818L26.3826 18.1081C26.3826 18.1081 26.2997 18.0256 26.2435 18.0781C26.1908 18.1389 26.2737 18.2214 26.2737 18.2214L30.4486 22.7267M29.6733 20.6904C29.3828 19.895 28.7214 19.6624 28.4903 18.9398C28.2641 18.2055 27.7197 17.9732 27.5063 17.7401C27.3095 17.5001 27.427 17.2664 27.3349 17.2558C27.2346 17.2487 27.1578 17.5337 27.3696 17.9039C27.5862 18.2623 27.9254 18.2581 28.2137 19.1421C28.5019 20.0261 29.0003 20.0534 29.2208 20.8681" fill="#F6B40E"/>
<path d="M30.8877 22.2818L26.3826 18.1081C26.3826 18.1081 26.2997 18.0256 26.2435 18.0781C26.1908 18.1389 26.2737 18.2214 26.2737 18.2214L30.4486 22.7267M29.6733 20.6904C29.3828 19.895 28.7214 19.6624 28.4903 18.9398C28.2641 18.2055 27.7197 17.9732 27.5063 17.7401C27.3095 17.5001 27.427 17.2664 27.3349 17.2558C27.2346 17.2487 27.1578 17.5337 27.3696 17.9039C27.5862 18.2623 27.9254 18.2581 28.2137 19.1421C28.5019 20.0261 29.0003 20.0534 29.2208 20.8681" stroke="#85340A" stroke-width="0.109046"/>
<path d="M28.4705 22.8872C27.6605 22.9322 27.3005 23.3912 26.5535 23.3012C27.1385 23.4992 27.5975 23.0222 28.4615 23.0492M30.6035 22.3562L26.7695 24.1112L30.7205 22.6442" fill="#85340A"/>
<path d="M28.4898 22.0174C27.7242 21.749 27.216 22.0353 26.5603 21.6662C27.025 22.073 27.6316 21.808 28.4195 22.1636M30.6636 22.343L26.4499 22.4972L30.6615 22.6539" fill="#85340A"/>
<path d="M28.8401 21.2207C28.2355 20.6797 27.6564 20.7497 27.1918 20.1579C27.4654 20.7116 28.1273 20.6988 28.7191 21.3289M30.7238 22.3535L26.7718 20.8834L30.6029 22.6398" fill="#85340A"/>
<path d="M29.4688 20.6192C29.1173 19.8881 28.5554 19.7312 28.3527 19.0066C28.3937 19.6228 29.01 19.8643 29.3157 20.6729M30.7757 22.3867L27.687 19.5161L30.5544 22.605" fill="#85340A"/>
<path d="M30.9547 22.383L28.3897 16.803C28.3897 16.803 28.3447 16.695 28.2727 16.722C28.2007 16.758 28.2457 16.866 28.2457 16.866L30.3787 22.626M30.4417 20.448C30.4777 19.602 29.9557 19.134 30.0187 18.378C30.0907 17.613 29.6767 17.19 29.5687 16.893C29.4787 16.596 29.6767 16.425 29.5957 16.38C29.5057 16.335 29.3257 16.569 29.3797 16.992C29.4427 17.406 29.7577 17.532 29.6857 18.459C29.6137 19.386 30.0637 19.602 29.9557 20.439" fill="#F6B40E"/>
<path d="M30.9547 22.383L28.3897 16.803C28.3897 16.803 28.3447 16.695 28.2727 16.722C28.2007 16.758 28.2457 16.866 28.2457 16.866L30.3787 22.626M30.4417 20.448C30.4777 19.602 29.9557 19.134 30.0187 18.378C30.0907 17.613 29.6767 17.19 29.5687 16.893C29.4787 16.596 29.6767 16.425 29.5957 16.38C29.5057 16.335 29.3257 16.569 29.3797 16.992C29.4427 17.406 29.7577 17.532 29.6857 18.459C29.6137 19.386 30.0637 19.602 29.9557 20.439" stroke="#85340A" stroke-width="0.109046"/>
<path d="M30.9775 22.5025L30.7431 16.3656C30.7431 16.3656 30.7429 16.2486 30.666 16.246C30.5857 16.2517 30.586 16.3687 30.586 16.3687L30.3524 22.5065M31.2441 20.5184C31.6011 19.7506 31.2979 19.1185 31.6454 18.4441C32.0047 17.7649 31.7841 17.2157 31.7979 16.9C31.8285 16.5911 32.0768 16.5089 32.0192 16.4363C31.9533 16.3603 31.6974 16.5076 31.5854 16.9191C31.4852 17.3257 31.728 17.5626 31.3068 18.3915C30.8855 19.2204 31.2186 19.5922 30.7985 20.3241" fill="#F6B40E"/>
<path d="M30.9775 22.5025L30.7431 16.3656C30.7431 16.3656 30.7429 16.2486 30.666 16.246C30.5857 16.2517 30.586 16.3687 30.586 16.3687L30.3524 22.5065M31.2441 20.5184C31.6011 19.7506 31.2979 19.1185 31.6454 18.4441C32.0047 17.7649 31.7841 17.2157 31.7979 16.9C31.8285 16.5911 32.0768 16.5089 32.0192 16.4363C31.9533 16.3603 31.6974 16.5076 31.5854 16.9191C31.4852 17.3257 31.728 17.5626 31.3068 18.3915C30.8855 19.2204 31.2186 19.5922 30.7985 20.3241" stroke="#85340A" stroke-width="0.109046"/>
<path d="M30.9527 22.6211L33.0846 16.8617C33.0846 16.8617 33.1292 16.7535 33.0592 16.7217C32.9828 16.6962 32.9383 16.8044 32.9383 16.8044L30.3736 22.3856M31.9582 20.8901C32.5819 20.3173 32.5437 19.6173 33.1228 19.1272C33.7147 18.6372 33.721 18.0454 33.8547 17.759C34.001 17.4853 34.262 17.5044 34.2365 17.4153C34.2047 17.3199 33.912 17.3581 33.651 17.6953C33.4028 18.0326 33.5365 18.3445 32.8301 18.949C32.1237 19.5536 32.2891 20.0246 31.6209 20.54" fill="#F6B40E"/>
<path d="M30.9527 22.6211L33.0846 16.8617C33.0846 16.8617 33.1292 16.7535 33.0592 16.7217C32.9828 16.6962 32.9383 16.8044 32.9383 16.8044L30.3736 22.3856M31.9582 20.8901C32.5819 20.3173 32.5437 19.6173 33.1228 19.1272C33.7147 18.6372 33.721 18.0454 33.8547 17.759C34.001 17.4853 34.262 17.5044 34.2365 17.4153C34.2047 17.3199 33.912 17.3581 33.651 17.6953C33.4028 18.0326 33.5365 18.3445 32.8301 18.949C32.1237 19.5536 32.2891 20.0246 31.6209 20.54" stroke="#85340A" stroke-width="0.109046"/>
<path d="M30.885 22.7214L35.0587 18.2162C35.0587 18.2162 35.1412 18.1333 35.0887 18.0772C35.0279 18.0244 34.9454 18.1073 34.9454 18.1073L30.4401 22.2822M32.4764 21.5069C33.2718 21.2164 33.5044 20.5551 34.227 20.324C34.9613 20.0977 35.1937 19.5534 35.4267 19.3399C35.6667 19.1431 35.9004 19.2606 35.911 19.1686C35.9181 19.0682 35.6331 18.9914 35.2629 19.2032C34.9046 19.4198 34.9087 19.7591 34.0247 20.0473C33.1407 20.3355 33.1134 20.834 32.2987 21.0545" fill="#F6B40E"/>
<path d="M30.885 22.7214L35.0587 18.2162C35.0587 18.2162 35.1412 18.1333 35.0887 18.0772C35.0279 18.0244 34.9454 18.1073 34.9454 18.1073L30.4401 22.2822M32.4764 21.5069C33.2718 21.2164 33.5044 20.5551 34.227 20.324C34.9613 20.0977 35.1937 19.5534 35.4267 19.3399C35.6667 19.1431 35.9004 19.2606 35.911 19.1686C35.9181 19.0682 35.6331 18.9914 35.2629 19.2032C34.9046 19.4198 34.9087 19.7591 34.0247 20.0473C33.1407 20.3355 33.1134 20.834 32.2987 21.0545" stroke="#85340A" stroke-width="0.109046"/>
<path d="M30.2794 20.3043C30.2344 19.4943 29.7754 19.1343 29.8654 18.3873C29.6674 18.9723 30.1444 19.4313 30.1174 20.2953M30.8104 22.4373L29.0554 18.6033L30.5224 22.5543" fill="#85340A"/>
<path d="M31.1495 20.3234C31.4179 19.5578 31.1316 19.0495 31.5006 18.3938C31.0938 18.8585 31.3589 19.4651 31.0033 20.253M30.8238 22.4972L30.6696 18.2834L30.513 22.4951" fill="#85340A"/>
<path d="M31.9459 20.6737C32.4868 20.0691 32.4168 19.49 33.0086 19.0254C32.455 19.2991 32.4677 19.9609 31.8377 20.5528M30.8131 22.5574L32.2832 18.6054L30.5267 22.4365" fill="#85340A"/>
<path d="M32.5472 21.3021C33.2783 20.9506 33.4352 20.3887 34.1598 20.186C33.5436 20.2269 33.302 20.8433 32.4935 21.149M30.7797 22.6089L33.6503 19.5203L30.5614 22.3876" fill="#85340A"/>
<path d="M30.7838 22.7878L36.3638 20.2228C36.3638 20.2228 36.4718 20.1778 36.4448 20.1058C36.4088 20.0338 36.3008 20.0788 36.3008 20.0788L30.5408 22.2118M32.7188 22.2748C33.5648 22.3108 34.0328 21.7888 34.7888 21.8518C35.5538 21.9238 35.9768 21.5098 36.2738 21.4018C36.5708 21.3118 36.7418 21.5098 36.7868 21.4288C36.8318 21.3388 36.5978 21.1588 36.1748 21.2128C35.7608 21.2758 35.6348 21.5908 34.7078 21.5188C33.7808 21.4468 33.5648 21.8968 32.7278 21.7888" fill="#F6B40E"/>
<path d="M30.7838 22.7878L36.3638 20.2228C36.3638 20.2228 36.4718 20.1778 36.4448 20.1058C36.4088 20.0338 36.3008 20.0788 36.3008 20.0788L30.5408 22.2118M32.7188 22.2748C33.5648 22.3108 34.0328 21.7888 34.7888 21.8518C35.5538 21.9238 35.9768 21.5098 36.2738 21.4018C36.5708 21.3118 36.7418 21.5098 36.7868 21.4288C36.8318 21.3388 36.5978 21.1588 36.1748 21.2128C35.7608 21.2758 35.6348 21.5908 34.7078 21.5188C33.7808 21.4468 33.5648 21.8968 32.7278 21.7888" stroke="#85340A" stroke-width="0.109046"/>
<path d="M30.6647 22.8111L36.8015 22.5768C36.8015 22.5768 36.9185 22.5765 36.9211 22.4997C36.9154 22.4194 36.7984 22.4196 36.7984 22.4196L30.6606 22.186M32.6487 23.0777C33.4165 23.4347 34.0487 23.1315 34.723 23.479C35.4022 23.8383 35.9515 23.6177 36.2672 23.6316C36.576 23.6621 36.6582 23.9104 36.7308 23.8528C36.8068 23.7869 36.6595 23.5311 36.248 23.4191C35.8415 23.3188 35.6045 23.5616 34.7756 23.1404C33.9467 22.7191 33.575 23.0522 32.843 22.6321" fill="#F6B40E"/>
<path d="M30.6647 22.8111L36.8015 22.5768C36.8015 22.5768 36.9185 22.5765 36.9211 22.4997C36.9154 22.4194 36.7984 22.4196 36.7984 22.4196L30.6606 22.186M32.6487 23.0777C33.4165 23.4347 34.0487 23.1315 34.723 23.479C35.4022 23.8383 35.9515 23.6177 36.2672 23.6316C36.576 23.6621 36.6582 23.9104 36.7308 23.8528C36.8068 23.7869 36.6595 23.5311 36.248 23.4191C35.8415 23.3188 35.6045 23.5616 34.7756 23.1404C33.9467 22.7191 33.575 23.0522 32.843 22.6321" stroke="#85340A" stroke-width="0.109046"/>
<path d="M30.5457 22.7868L36.3051 24.9187C36.3051 24.9187 36.4133 24.9633 36.4451 24.8933C36.4706 24.8169 36.3624 24.7723 36.3624 24.7723L30.7812 22.2077M32.2767 23.7923C32.8495 24.416 33.5495 24.3778 34.0395 24.9569C34.5296 25.5487 35.1214 25.5551 35.4078 25.6887C35.6814 25.8351 35.6624 26.096 35.7514 26.0706C35.8469 26.0388 35.8087 25.746 35.4714 25.4851C35.1341 25.2369 34.8223 25.3706 34.2177 24.6642C33.6132 23.9578 33.1422 24.1232 32.6267 23.455" fill="#F6B40E"/>
<path d="M30.5457 22.7868L36.3051 24.9187C36.3051 24.9187 36.4133 24.9633 36.4451 24.8933C36.4706 24.8169 36.3624 24.7723 36.3624 24.7723L30.7812 22.2077M32.2767 23.7923C32.8495 24.416 33.5495 24.3778 34.0395 24.9569C34.5296 25.5487 35.1214 25.5551 35.4078 25.6888C35.6814 25.8351 35.6624 26.096 35.7514 26.0706C35.8469 26.0388 35.8087 25.746 35.4714 25.4851C35.1341 25.2369 34.8223 25.3706 34.2177 24.6642C33.6132 23.9578 33.1422 24.1232 32.6267 23.455" stroke="#85340A" stroke-width="0.109046"/>
<path d="M30.4454 22.7184L34.9505 26.8921C34.9505 26.8921 35.0334 26.9746 35.0896 26.9221C35.1424 26.8613 35.0595 26.7788 35.0595 26.7788L30.8846 22.2735M31.6599 24.3098C31.9503 25.1052 32.6117 25.3378 32.8428 26.0603C33.069 26.7947 33.6134 27.027 33.8268 27.2601C34.0236 27.5 33.9062 27.7338 33.9982 27.7444C34.0986 27.7515 34.1753 27.4664 33.9636 27.0963C33.7469 26.7379 33.4077 26.7421 33.1195 25.8581C32.8312 24.9741 32.3328 24.9467 32.1123 24.1321" fill="#F6B40E"/>
<path d="M30.4454 22.7184L34.9505 26.8921C34.9505 26.8921 35.0334 26.9746 35.0896 26.9221C35.1424 26.8613 35.0595 26.7788 35.0595 26.7788L30.8846 22.2735M31.6599 24.3098C31.9503 25.1052 32.6117 25.3378 32.8428 26.0603C33.069 26.7947 33.6134 27.027 33.8268 27.2601C34.0236 27.5 33.9062 27.7338 33.9982 27.7444C34.0986 27.7515 34.1753 27.4664 33.9636 27.0963C33.7469 26.7379 33.4077 26.7421 33.1195 25.8581C32.8312 24.9741 32.3328 24.9467 32.1123 24.1321" stroke="#85340A" stroke-width="0.109046"/>
<path d="M32.8627 22.1129C33.6727 22.0679 34.0327 21.6089 34.7797 21.6989C34.1947 21.5009 33.7357 21.9779 32.8717 21.9509M30.7297 22.6439L34.5637 20.8889L30.6127 22.3559" fill="#85340A"/>
<path d="M32.8438 22.9827C33.6094 23.2511 34.1176 22.9648 34.7733 23.3338C34.3086 22.927 33.702 23.1921 32.9141 22.8365M30.67 22.657L34.8837 22.5028L30.6721 22.3462" fill="#85340A"/>
<path d="M32.4931 23.7793C33.0977 24.3203 33.6768 24.2503 34.1413 24.8421C33.8677 24.2884 33.2058 24.3012 32.614 23.6711M30.6093 22.6465L34.5614 24.1166L30.7303 22.3602" fill="#85340A"/>
<path d="M31.8647 24.3808C32.2162 25.1119 32.7781 25.2689 32.9808 25.9935C32.9398 25.3772 32.3235 25.1357 32.0178 24.3271M30.5578 22.6134L33.6465 25.4839L30.7791 22.3951" fill="#85340A"/>
<path d="M30.6666 25.0032C32.049 25.0032 33.1697 23.8825 33.1697 22.5001C33.1697 21.1177 32.049 19.997 30.6666 19.997C29.2841 19.997 28.1635 21.1177 28.1635 22.5001C28.1635 23.8825 29.2841 25.0032 30.6666 25.0032Z" fill="#F6B40E" stroke="#85340A" stroke-width="0.144568"/>
<path d="M31.5104 21.9658C31.351 21.9658 31.1823 22.0408 31.0885 22.1908C31.276 22.3689 31.7073 22.3783 31.9979 22.1721C31.9365 22.1069 31.8624 22.055 31.7801 22.0195C31.6979 21.984 31.6093 21.9658 31.5198 21.9658H31.5104ZM31.5104 22.0033C31.6791 22.0033 31.8385 22.0783 31.8573 22.1533C31.6698 22.3689 31.3604 22.3408 31.1635 22.1908C31.2572 22.0596 31.3885 22.0033 31.5198 22.0033H31.5104Z" fill="#843511"/>
<path d="M31.5478 21.844C31.2947 21.844 31.2384 21.9002 31.1259 22.0034C31.0134 22.0971 30.9478 22.0784 30.9384 22.0971C30.9103 22.1159 30.9384 22.1721 30.9665 22.1534C31.0134 22.1346 31.0884 22.0971 31.2009 22.0034C31.3134 21.9096 31.4353 21.9096 31.5478 21.9096C31.8947 21.9096 32.0822 22.1909 32.1197 22.1721C32.1665 22.1534 31.9322 21.844 31.5478 21.844Z" fill="#85340A"/>
<path d="M32.2416 21.9656C31.801 21.5812 31.2385 21.5156 30.9291 21.8062C30.8578 21.8999 30.8097 22.0091 30.7885 22.125C30.751 22.35 30.8166 22.5843 30.9853 22.8281L30.9103 22.8656C30.7603 22.575 30.7041 22.275 30.7603 21.9843L30.8166 21.7687C31.2385 21.4218 31.8197 21.3937 32.2416 21.9562V21.9656Z" fill="#85340A"/>
<path d="M31.5092 22.3197C31.6019 22.3197 31.677 22.2446 31.677 22.1519C31.677 22.0593 31.6019 21.9842 31.5092 21.9842C31.4165 21.9842 31.3414 22.0593 31.3414 22.1519C31.3414 22.2446 31.4165 22.3197 31.5092 22.3197Z" fill="#85340A"/>
<path d="M32.0073 22.2656C31.6792 22.5188 31.3511 22.5 31.1636 22.3875C30.9761 22.2656 30.9761 22.2281 31.0136 22.2281C31.0511 22.2281 31.0886 22.2656 31.2386 22.35C31.3979 22.425 31.6229 22.425 32.0073 22.2656Z" fill="#85340A"/>
<path d="M30.2918 22.847C30.2657 22.8532 30.2415 22.8655 30.2212 22.8828C30.2008 22.9002 30.1848 22.9221 30.1746 22.9469C30.1644 22.9716 30.1602 22.9984 30.1624 23.0251C30.1646 23.0518 30.1731 23.0775 30.1872 23.1003C30.2013 23.123 30.2206 23.1421 30.2436 23.1559C30.2665 23.1697 30.2924 23.1778 30.3191 23.1796C30.3458 23.1815 30.3726 23.1769 30.3971 23.1663C30.4217 23.1558 30.4435 23.1395 30.4605 23.1189C30.5224 23.1573 30.594 23.1768 30.6668 23.1752H30.6855C30.7418 23.1752 30.8355 23.1658 30.9012 23.1189C30.9293 23.1658 30.9855 23.1845 31.0418 23.1845C31.0866 23.1883 31.131 23.1741 31.1652 23.1451C31.1995 23.1161 31.2209 23.0746 31.2246 23.0299C31.2283 22.9851 31.2141 22.9407 31.1851 22.9064C31.1561 22.8721 31.1147 22.8508 31.0699 22.847C31.1168 22.8658 31.1449 22.9033 31.1449 22.9595C31.1449 22.9894 31.1331 23.018 31.112 23.0391C31.0909 23.0602 31.0623 23.072 31.0324 23.072C31.0026 23.072 30.974 23.0602 30.9529 23.0391C30.9318 23.018 30.9199 22.9894 30.9199 22.9595C30.8977 23.0058 30.8632 23.0451 30.8203 23.0732C30.7773 23.1013 30.7275 23.1171 30.6762 23.1189C30.6265 23.1155 30.5786 23.0989 30.5374 23.0709C30.4963 23.0429 30.4633 23.0045 30.4418 22.9595C30.4418 23.0252 30.3855 23.072 30.3199 23.072C30.2637 23.072 30.2074 23.0158 30.2074 22.9595C30.2074 22.9033 30.2355 22.8658 30.2824 22.847H30.2918ZM30.4793 23.3533C30.2824 23.3533 30.198 23.5408 30.0293 23.6439C30.123 23.6064 30.198 23.5314 30.3387 23.4564C30.4699 23.3814 30.5824 23.4752 30.6668 23.4752C30.7418 23.4752 30.8543 23.3814 30.9949 23.4564C31.1262 23.5314 31.2105 23.6064 31.3043 23.6439C31.1262 23.5314 31.0512 23.3627 30.8543 23.3627C30.8168 23.3627 30.7418 23.3814 30.6668 23.4189L30.4793 23.3533Z" fill="#85340A"/>
<path d="M30.4042 23.5876C30.3292 23.5876 30.2354 23.6063 30.0854 23.6438C30.4323 23.5688 30.5073 23.6907 30.6667 23.6907C30.8167 23.6907 30.9011 23.5688 31.2386 23.6438C30.8636 23.5313 30.7792 23.6063 30.6667 23.6063C30.5917 23.6063 30.5355 23.5782 30.4042 23.5876Z" fill="#85340A"/>
<path d="M30.1043 23.6438H30.0293C30.4324 23.6907 30.2449 23.9251 30.6668 23.9251C31.0887 23.9251 30.9012 23.6907 31.3043 23.6438C30.8824 23.6063 31.0137 23.8594 30.6668 23.8594C30.3387 23.8594 30.4418 23.6438 30.1043 23.6438Z" fill="#85340A"/>
<path d="M31.0132 24.272C31.0132 24.18 30.9767 24.0918 30.9116 24.0267C30.8466 23.9617 30.7583 23.9251 30.6663 23.9251C30.5743 23.9251 30.4861 23.9617 30.4211 24.0267C30.356 24.0918 30.3195 24.18 30.3195 24.272C30.3378 24.1937 30.382 24.124 30.445 24.074C30.508 24.0241 30.586 23.9969 30.6663 23.9969C30.7467 23.9969 30.8247 24.0241 30.8877 24.074C30.9507 24.124 30.9949 24.1937 31.0132 24.272Z" fill="#85340A"/>
<path d="M29.1104 21.9656C29.551 21.5812 30.1135 21.5156 30.4229 21.8062C30.4941 21.8999 30.5423 22.0091 30.5635 22.125C30.601 22.35 30.5354 22.5843 30.3666 22.8281L30.4416 22.8656C30.5916 22.575 30.6479 22.275 30.5916 21.9843L30.5354 21.7687C30.1135 21.4218 29.5322 21.3937 29.1104 21.9562V21.9656Z" fill="#85340A"/>
<path d="M29.8041 21.844C30.0573 21.844 30.1135 21.9002 30.226 22.0034C30.3385 22.0971 30.4041 22.0784 30.4135 22.0971C30.4416 22.1159 30.4135 22.1721 30.3854 22.1534C30.3385 22.1346 30.2635 22.0971 30.151 22.0034C30.0385 21.9096 29.9166 21.9096 29.8041 21.9096C29.4573 21.9096 29.2698 22.1909 29.2323 22.1721C29.1854 22.1534 29.4198 21.844 29.8041 21.844Z" fill="#85340A"/>
<path d="M29.7853 21.9658C29.6259 21.9658 29.4572 22.0408 29.3634 22.1908C29.5509 22.3689 29.9822 22.3783 30.2728 22.1721C30.2114 22.1069 30.1373 22.055 30.055 22.0195C29.9728 21.984 29.8842 21.9658 29.7947 21.9658H29.7853ZM29.7853 22.0033C29.954 22.0033 30.1134 22.0783 30.1322 22.1533C29.9447 22.3689 29.6353 22.3408 29.4384 22.1908C29.5322 22.0596 29.6634 22.0033 29.7947 22.0033H29.7853Z" fill="#843511"/>
<path d="M29.8123 22.3197C29.905 22.3197 29.9801 22.2446 29.9801 22.1519C29.9801 22.0593 29.905 21.9842 29.8123 21.9842C29.7196 21.9842 29.6445 22.0593 29.6445 22.1519C29.6445 22.2446 29.7196 22.3197 29.8123 22.3197Z" fill="#85340A"/>
<path d="M29.3446 22.2656C29.6727 22.5188 30.0009 22.5 30.1884 22.3875C30.3759 22.2656 30.3759 22.2281 30.3384 22.2281C30.3009 22.2281 30.2634 22.2656 30.1134 22.35C29.954 22.425 29.729 22.425 29.3446 22.2656Z" fill="#85340A"/>
</g>
<defs>
<clipPath id="clip0_152542_2256">
<rect width="60" height="45" fill="white" transform="translate(0.666504)"/>
</clipPath>
</defs>
</svg>
