<svg width="61" height="45" viewBox="0 0 61 45" fill="none" xmlns="http://www.w3.org/2000/svg">
<g clip-path="url(#clip0_152542_2281)">
<path fill-rule="evenodd" clip-rule="evenodd" d="M0.666748 0H60.6667V45H0.666748V0Z" fill="#FFE800"/>
<path fill-rule="evenodd" clip-rule="evenodd" d="M0.666718 22.5001H60.6667V45.0001H0.666718V22.5001Z" fill="#00148E"/>
<path fill-rule="evenodd" clip-rule="evenodd" d="M0.666718 33.75H60.6667V45H0.666718V33.75Z" fill="#DA0010"/>
<path fill-rule="evenodd" clip-rule="evenodd" d="M25.9416 27.2623L19.1353 34.4342L19.0228 34.2842L25.8103 27.1123L25.9228 27.2623H25.9416ZM30.6666 28.4342L21.7791 37.8092L21.6291 37.6592L30.5072 28.2842L30.6666 28.4342Z" fill="black"/>
<path fill-rule="evenodd" clip-rule="evenodd" d="M21.8067 37.6995L20.9761 38.5301L20.0293 39.2446L20.7438 38.2978L21.5744 37.4672L21.8067 37.6995Z" fill="#808080" stroke="black" stroke-width="0.0613628"/>
<path fill-rule="evenodd" clip-rule="evenodd" d="M19.5191 34.0339L18.6885 34.8645L17.7417 35.579L18.4562 34.6322L19.2868 33.8016L19.5191 34.0339Z" fill="#808080" stroke="black" stroke-width="0.0613628"/>
<path fill-rule="evenodd" clip-rule="evenodd" d="M20.1611 10.7616C20.1611 10.7616 19.4144 30.9576 22.4013 30.9576C25.3882 30.9576 26.8858 28.8336 26.8858 28.8336L26.8521 17.7336L20.1611 10.7616Z" fill="#FFDF00" stroke="black" stroke-width="0.0905091"/>
<path fill-rule="evenodd" clip-rule="evenodd" d="M21.9879 12.6455C21.9879 13.7075 21.6546 28.8335 23.1481 28.8335C24.6415 28.8335 26.8859 27.7715 26.8859 27.7715L26.8521 17.7335L21.9879 12.6455Z" fill="#0000C4" stroke="black" stroke-width="0.0905091"/>
<path fill-rule="evenodd" clip-rule="evenodd" d="M22.9582 13.6656C22.9582 14.7276 23.148 26.7096 24.6457 26.7096H26.8858L26.8521 17.7336L22.9582 13.6656Z" fill="#E10000" stroke="black" stroke-width="0.0905091"/>
<path fill-rule="evenodd" clip-rule="evenodd" d="M19.9981 10.8747L26.7856 18.0466L26.9075 17.8966L20.12 10.7247L19.9981 10.8747Z" fill="black"/>
<path fill-rule="evenodd" clip-rule="evenodd" d="M17.9445 14.9003C17.9445 14.9003 16.0196 34.4651 21.7942 34.4651C26.6064 34.4651 26.6064 31.3787 27.5689 31.3787L26.6064 24.1712L17.939 14.9003H17.9445Z" fill="#FFDF00" stroke="black" stroke-width="0.101136"/>
<path d="M22.7149 18.1529C22.7562 18.1498 24.2168 14.9889 27.8674 12.9882" stroke="black" stroke-width="0.10956"/>
<path fill-rule="evenodd" clip-rule="evenodd" d="M22.1174 15.1733C22.6264 15.4109 22.9486 15.6843 23.2418 16.003C22.6593 15.8809 22.3587 15.8316 21.8496 15.5941C21.3406 15.3565 20.9517 14.9931 20.6427 14.6991C21.0216 14.8144 21.6055 14.9344 22.1174 15.1733Z" fill="#005B00" stroke="black" stroke-width="0.0495537"/>
<path fill-rule="evenodd" clip-rule="evenodd" d="M23.3921 17.1097C23.4294 17.173 23.3973 17.2623 23.3185 17.3061C23.2396 17.35 23.1451 17.3331 23.1069 17.2681C23.0686 17.2031 23.1026 17.117 23.1814 17.0732C23.2603 17.0294 23.3548 17.0463 23.3921 17.1097Z" fill="#FF0000" stroke="black" stroke-width="0.0339879"/>
<path fill-rule="evenodd" clip-rule="evenodd" d="M24.9941 13.1502C24.7735 13.7102 24.5302 14.0792 24.2497 14.4235C24.3758 13.8005 24.4293 13.4807 24.6499 12.9207C24.8705 12.3608 25.1924 11.9113 25.4527 11.5536C25.3404 11.9631 25.216 12.5872 24.9941 13.1502Z" fill="#005B00" stroke="black" stroke-width="0.0467173"/>
<path fill-rule="evenodd" clip-rule="evenodd" d="M24.2494 13.121C24.1985 13.6809 24.0869 14.1146 23.9403 14.5545C23.902 14.0103 23.8734 13.7383 23.9243 13.1783C23.9752 12.6184 24.1314 12.0733 24.2589 11.6368C24.2606 12.014 24.3006 12.5579 24.2494 13.121Z" fill="#005B00" stroke="black" stroke-width="0.0403367"/>
<path fill-rule="evenodd" clip-rule="evenodd" d="M24.7357 13.7615C24.4473 14.1008 24.2046 14.248 23.9496 14.3437C24.2066 13.873 24.3325 13.6227 24.621 13.2833C24.9095 12.944 25.2186 12.7846 25.4669 12.6608C25.2822 12.9473 25.0258 13.4202 24.7357 13.7615Z" fill="#005B00" stroke="black" stroke-width="0.0438128"/>
<path fill-rule="evenodd" clip-rule="evenodd" d="M22.2781 14.2357C22.6174 14.643 22.7862 15.0352 22.9137 15.4687C22.4693 15.1665 22.2349 15.0255 21.8956 14.6182C21.5562 14.211 21.3649 13.701 21.2149 13.29C21.4906 13.5258 21.9368 13.8262 22.2781 14.2357Z" fill="#005B00" stroke="black" stroke-width="0.0501338"/>
<path fill-rule="evenodd" clip-rule="evenodd" d="M21.5949 17.3745C22.0191 17.7139 22.243 18.0638 22.4215 18.459C21.8818 18.2351 21.5984 18.1346 21.1742 17.7953C20.7499 17.4559 20.4917 16.9969 20.2885 16.6264C20.6266 16.8114 21.1683 17.0333 21.5949 17.3745Z" fill="#005B00" stroke="black" stroke-width="0.0532287"/>
<path fill-rule="evenodd" clip-rule="evenodd" d="M23.5814 17.1886C23.2421 17.7316 22.8749 18.0965 22.4542 18.4407C22.6571 17.8452 22.7448 17.5403 23.0842 16.9973C23.4236 16.4543 23.9081 16.0081 24.2996 15.6526C24.1231 16.0462 23.9227 16.6426 23.5814 17.1886Z" fill="#005B00" stroke="black" stroke-width="0.0546813"/>
<path fill-rule="evenodd" clip-rule="evenodd" d="M23.936 17.1669C23.393 17.5402 22.9203 17.7345 22.4167 17.8875C22.881 17.4092 23.1061 17.1577 23.6491 16.7844C24.1921 16.4111 24.7978 16.188 25.2845 16.0125C24.9449 16.3114 24.482 16.7916 23.936 17.1669Z" fill="#005B00" stroke="black" stroke-width="0.0525492"/>
<path fill-rule="evenodd" clip-rule="evenodd" d="M27.5969 13.2648C27.3593 13.5363 27.1463 13.6972 26.9168 13.8375C27.1124 13.5135 27.2063 13.3451 27.4439 13.0736C27.6815 12.8021 27.9556 12.6108 28.1761 12.4593C28.0306 12.6669 27.8358 12.9918 27.5969 13.2648Z" fill="#005B00" stroke="black" stroke-width="0.0278286"/>
<path fill-rule="evenodd" clip-rule="evenodd" d="M27.0821 12.464C26.9464 12.7525 26.8012 12.9693 26.6355 13.186C26.7187 12.8975 26.7551 12.7525 26.8909 12.464C27.0266 12.1756 27.2179 11.9046 27.3724 11.6879C27.3009 11.8855 27.2186 12.174 27.0821 12.464Z" fill="#005B00" stroke="black" stroke-width="0.0231174"/>
<path fill-rule="evenodd" clip-rule="evenodd" d="M27.877 12.9816C27.6394 13.1173 27.4609 13.1589 27.2824 13.1717C27.52 12.9624 27.6394 12.8496 27.877 12.7138C28.1145 12.5781 28.3376 12.5398 28.5161 12.5113C28.3534 12.6345 28.1158 12.8451 27.877 12.9816Z" fill="#005B00" stroke="black" stroke-width="0.0253398"/>
<path fill-rule="evenodd" clip-rule="evenodd" d="M24.5986 14.5024C24.1744 14.7569 23.8255 14.9051 23.4621 15.0326C23.8496 14.7255 24.0405 14.5657 24.4648 14.3112C24.889 14.0566 25.332 13.8813 25.6875 13.7426C25.412 13.9385 25.0252 14.2465 24.5986 14.5024Z" fill="#005B00" stroke="black" stroke-width="0.0318161"/>
<path fill-rule="evenodd" clip-rule="evenodd" d="M25.8369 14.8827C25.2769 15.2221 24.8001 15.3822 24.2965 15.497C24.7882 15.0421 25.0283 14.8013 25.5883 14.462C26.1482 14.1226 26.757 13.9441 27.246 13.8046C26.8904 14.0845 26.3999 14.5415 25.8369 14.8827Z" fill="#005B00" stroke="black" stroke-width="0.05296"/>
<path d="M22.0314 20.3752C22.0675 20.3546 21.7262 17.3771 24.0041 14.2799" stroke="black" stroke-width="0.107842"/>
<path fill-rule="evenodd" clip-rule="evenodd" d="M25.5204 14.1C25.5576 14.1634 25.5256 14.2527 25.4467 14.2965C25.3679 14.3403 25.2733 14.3234 25.2351 14.2584C25.1969 14.1935 25.2308 14.1073 25.3097 14.0635C25.3886 14.0197 25.4831 14.0366 25.5204 14.1Z" fill="#FF0000" stroke="black" stroke-width="0.0339879"/>
<path fill-rule="evenodd" clip-rule="evenodd" d="M26.5329 13.5093C26.5702 13.5727 26.5381 13.662 26.4593 13.7058C26.3804 13.7496 26.2859 13.7327 26.2477 13.6678C26.2095 13.6028 26.2434 13.5167 26.3222 13.4729C26.4011 13.4291 26.4956 13.4459 26.5329 13.5093Z" fill="#FF0000" stroke="black" stroke-width="0.0339879"/>
<path fill-rule="evenodd" clip-rule="evenodd" d="M23.7074 15.4945C23.7335 15.543 23.6848 15.6196 23.5972 15.6634C23.5096 15.7072 23.4172 15.7027 23.3905 15.653C23.3637 15.6033 23.4137 15.5291 23.5013 15.4853C23.5889 15.4415 23.6813 15.446 23.7074 15.4945Z" fill="#FF0000" stroke="black" stroke-width="0.0306445"/>
<path fill-rule="evenodd" clip-rule="evenodd" d="M24.0075 15.363C24.0336 15.4114 23.9849 15.4881 23.8973 15.5319C23.8097 15.5757 23.7173 15.5711 23.6906 15.5214C23.6638 15.4717 23.7138 15.3975 23.8014 15.3537C23.889 15.3099 23.9814 15.3145 24.0075 15.363Z" fill="#FF0000" stroke="black" stroke-width="0.0306445"/>
<path fill-rule="evenodd" clip-rule="evenodd" d="M23.8292 15.6447C23.8553 15.6932 23.8067 15.7698 23.7191 15.8136C23.6314 15.8574 23.5391 15.8529 23.5123 15.8032C23.4856 15.7535 23.5355 15.6793 23.6232 15.6355C23.7108 15.5917 23.8031 15.5963 23.8292 15.6447Z" fill="#FF0000" stroke="black" stroke-width="0.0306445"/>
<path fill-rule="evenodd" clip-rule="evenodd" d="M24.3556 15.6838C24.3929 15.7584 24.3556 15.8516 24.2624 15.8982C24.1691 15.9448 24.0759 15.9169 24.0386 15.833C24.0014 15.7491 24.0386 15.6652 24.1319 15.6186C24.2251 15.572 24.3183 15.6 24.3462 15.6838H24.3556Z" fill="#FF0000" stroke="black" stroke-width="0.0379471"/>
<path fill-rule="evenodd" clip-rule="evenodd" d="M24.5731 15.4592C24.6013 15.5342 24.5731 15.628 24.4794 15.6748C24.3856 15.7217 24.2919 15.6936 24.245 15.6186C24.1981 15.5436 24.245 15.4405 24.3388 15.3936C24.4325 15.3467 24.5263 15.3842 24.5638 15.4592H24.5731Z" fill="#FF0000" stroke="black" stroke-width="0.0379471"/>
<path fill-rule="evenodd" clip-rule="evenodd" d="M24.618 15.5618C24.6553 15.6363 24.618 15.7389 24.5248 15.7762C24.4316 15.8135 24.3384 15.7948 24.3011 15.7202C24.2638 15.6457 24.3011 15.5525 24.3943 15.5058C24.4875 15.4592 24.5807 15.4872 24.618 15.5618Z" fill="#FF0000" stroke="black" stroke-width="0.0379471"/>
<path fill-rule="evenodd" clip-rule="evenodd" d="M19.8694 16.9635C19.8694 17.9923 17.9445 29.3209 22.7621 32.4073C24.687 33.4361 27.5743 31.3785 27.5743 32.4073L26.6119 24.171L19.8694 16.9635Z" fill="#0000C4" stroke="black" stroke-width="0.101136"/>
<path fill-rule="evenodd" clip-rule="evenodd" d="M21.7943 19.021C21.7943 20.0499 20.8319 28.2862 23.7246 30.3496C25.6495 32.4072 30.4671 31.8492 30.4671 31.8492L26.6119 24.1709L21.7943 19.021Z" fill="#E10000" stroke="black" stroke-width="0.101136"/>
<path fill-rule="evenodd" clip-rule="evenodd" d="M17.8981 14.8122L26.7856 24.1872L26.945 24.0372L18.0575 14.6716L17.9075 14.8216L17.8981 14.8122Z" fill="black"/>
<path fill-rule="evenodd" clip-rule="evenodd" d="M16.5305 13.7011L17.0947 13.8006L17.2606 13.9666C17.2379 13.9649 17.4265 14.1325 17.1942 14.3648C16.9619 14.5971 16.6313 14.2639 16.6313 14.2639C16.6313 14.2639 16.7309 14.8281 17.0637 15.1609C17.3965 15.4937 17.7938 15.4264 17.7938 15.4264C17.7938 15.4264 17.4157 15.1165 17.6943 14.8622C17.9733 14.6057 18.0925 14.7959 18.0925 14.7959L18.4244 15.1277L18.658 14.8941L17.3296 13.5657L17.23 13.0015L16.3743 12.8597L16.5308 13.6988L16.5305 13.7011Z" fill="#CECECC" stroke="black" stroke-width="0.0282212"/>
<path fill-rule="evenodd" clip-rule="evenodd" d="M17.8397 9.76121L18.5224 10.8195L19.3865 11.0527L18.8224 11.4178L19.8512 11.3846L20.3171 11.7174L20.484 11.4504L20.0167 11.1166L19.6526 10.0863L19.5521 10.7848L19.0207 10.019L17.8393 9.75877L17.8397 9.76121Z" fill="#CECECC" stroke="black" stroke-width="0.0303866"/>
<path fill-rule="evenodd" clip-rule="evenodd" d="M20.6168 10.3969C20.6168 10.4532 20.5418 10.501 20.4556 10.501C20.3693 10.501 20.2906 10.4532 20.2906 10.3969C20.2906 10.3407 20.3656 10.29 20.4556 10.29C20.5456 10.29 20.6168 10.3379 20.6168 10.3969ZM20.3843 10.6191C20.3843 11.626 21.1681 15.901 21.2318 16.005C21.2356 16.1316 21.0518 16.185 20.9656 16.0304C20.7181 15.541 20.1856 11.5304 20.1668 10.5938C20.1556 10.2085 20.3056 10.1775 20.4781 10.186C20.6168 10.1916 20.7893 10.29 20.7893 10.4082C20.7893 10.5488 20.5718 10.6529 20.3843 10.6191Z" fill="#E10000" stroke="black" stroke-width="0.0584234"/>
<path fill-rule="evenodd" clip-rule="evenodd" d="M20.9168 11.3952C20.8886 11.4514 20.7935 11.4805 20.7116 11.4589C20.6296 11.4374 20.5787 11.3699 20.6068 11.3136C20.635 11.2574 20.7315 11.2255 20.817 11.248C20.9025 11.2705 20.9463 11.3361 20.9168 11.3952ZM20.5848 11.5592C20.8435 13.5814 19.9755 16.7042 19.9826 16.8271C19.9243 16.9517 19.7216 16.9621 19.7185 16.783C19.6758 16.6667 20.6751 13.8458 20.3908 11.4795C20.5728 11.0914 20.7308 11.098 20.8904 11.1495C21.0194 11.1899 21.1341 11.3314 21.075 11.4495C21.0047 11.5902 20.746 11.6399 20.5848 11.5592Z" fill="#0000C4" stroke="black" stroke-width="0.0612274"/>
<path fill-rule="evenodd" clip-rule="evenodd" d="M18.17 14.2031C18.17 14.2968 18.0762 14.3906 17.9637 14.3906C17.8512 14.3906 17.7575 14.2968 17.7575 14.2031C17.7575 14.1093 17.8512 14.0343 17.9637 14.0343C18.0762 14.0343 18.1606 14.1093 18.1606 14.2031H18.17ZM17.87 14.5781C17.87 16.2562 18.8544 23.3812 18.9294 23.5593C18.9294 23.7656 18.7137 23.8593 18.6012 23.5968C18.2919 22.7812 17.6262 16.0968 17.5981 14.5406C17.5887 13.8937 17.7762 13.8468 17.9919 13.8562C18.17 13.8656 18.3762 14.0343 18.3762 14.2312C18.3762 14.4562 18.1044 14.6343 17.87 14.5781Z" fill="#E10000" stroke="black" stroke-width="0.0885432"/>
<path fill-rule="evenodd" clip-rule="evenodd" d="M18.6761 15.0687C18.6386 15.1587 18.5167 15.2071 18.4132 15.1748C18.3097 15.1424 18.2471 15.0364 18.2846 14.9464C18.3221 14.8564 18.4458 14.8035 18.5538 14.8373C18.6618 14.871 18.7155 14.9742 18.6761 15.0687ZM18.249 15.337C18.5152 18.543 17.3148 23.5234 17.3201 23.7183C17.2421 23.9177 16.9841 23.9388 16.9856 23.6545C16.935 23.4708 18.2928 18.9669 18.0048 15.215C18.2482 14.5943 18.4488 14.601 18.6502 14.6792C18.813 14.7402 18.9543 14.9624 18.8756 15.1514C18.7818 15.3764 18.4515 15.4614 18.249 15.337Z" fill="#0000C4" stroke="black" stroke-width="0.0862452"/>
<path fill-rule="evenodd" clip-rule="evenodd" d="M35.3918 27.2623L42.1887 34.4342L42.3105 34.2842L35.5137 27.1123L35.3918 27.2623ZM30.6668 28.4342L39.5543 37.8092L39.7043 37.6592L30.8262 28.2842L30.6668 28.4342Z" fill="black"/>
<path fill-rule="evenodd" clip-rule="evenodd" d="M39.5269 37.6995L40.3575 38.5301L41.3043 39.2446L40.5898 38.2978L39.7592 37.4672L39.5269 37.6995Z" fill="#808080" stroke="black" stroke-width="0.0613628"/>
<path fill-rule="evenodd" clip-rule="evenodd" d="M41.8144 34.0339L42.645 34.8645L43.5918 35.579L42.8774 34.6322L42.0467 33.8016L41.8144 34.0339Z" fill="#808080" stroke="black" stroke-width="0.0613628"/>
<path fill-rule="evenodd" clip-rule="evenodd" d="M41.1725 10.7614C41.1725 10.7614 41.9192 30.9574 38.9323 30.9574C35.9454 30.9574 34.4478 28.8334 34.4478 28.8334L34.4815 17.7334L41.1725 10.7614Z" fill="#FFDF00" stroke="black" stroke-width="0.0905091"/>
<path fill-rule="evenodd" clip-rule="evenodd" d="M39.3457 12.6455C39.3457 13.7075 39.679 28.8335 38.1855 28.8335C36.6921 28.8335 34.4477 27.7715 34.4477 27.7715L34.4815 17.7335L39.3457 12.6455Z" fill="#0000C4" stroke="black" stroke-width="0.0905091"/>
<path fill-rule="evenodd" clip-rule="evenodd" d="M38.3756 13.6657C38.3756 14.7277 38.1857 26.7097 36.6881 26.7097H34.4479L34.4817 17.7337L38.3756 13.6657Z" fill="#E10000" stroke="black" stroke-width="0.0905091"/>
<path fill-rule="evenodd" clip-rule="evenodd" d="M41.3356 10.8748L34.5481 18.0467L34.4262 17.8967L41.2137 10.7248L41.3356 10.8748Z" fill="black"/>
<path fill-rule="evenodd" clip-rule="evenodd" d="M35.9779 16.4131C35.9779 16.4131 37.8807 18.8543 38.7987 20.741C39.7159 22.6317 40.7869 25.5126 40.7869 25.5126C40.7869 25.5126 40.1749 22.6763 39.0199 20.4024C37.5064 17.5418 35.9772 16.5758 35.9779 16.4131Z" fill="#005B00" stroke="black" stroke-width="0.0422313"/>
<path fill-rule="evenodd" clip-rule="evenodd" d="M35.912 14.4742C35.912 14.4742 38.0353 17.4934 39.0045 19.7326C39.9725 21.9761 41.0502 25.3389 41.0502 25.3389C41.0502 25.3389 40.5271 22.1036 39.2999 19.3965C37.6825 15.9808 35.8984 14.6537 35.912 14.4742Z" fill="#005B00" stroke="black" stroke-width="0.0487976"/>
<path fill-rule="evenodd" clip-rule="evenodd" d="M37.7446 11.4888C37.7446 11.4888 39.2468 15.9598 39.7046 18.7244C40.1599 21.4916 40.438 25.2997 40.438 25.2997C40.438 25.2997 40.7273 22.1036 40.1137 18.7108C39.2648 14.3669 37.6823 11.6274 37.7446 11.4888Z" fill="#005B00" stroke="black" stroke-width="0.0554268"/>
<path fill-rule="evenodd" clip-rule="evenodd" d="M36.3958 11.284C36.3958 11.284 38.476 15.2546 39.2863 17.9529C40.0944 20.6549 40.8543 24.5532 40.8543 24.5532C40.8543 24.5532 40.7446 21.0119 39.6979 17.7274C38.2938 13.5549 36.3503 11.4632 36.3958 11.284Z" fill="#005B00" stroke="black" stroke-width="0.0561654"/>
<path fill-rule="evenodd" clip-rule="evenodd" d="M38.8939 12.5477C38.8939 12.5477 39.9291 16.8227 40.1892 19.3732C40.4472 21.9254 40.521 25.3688 40.521 25.3688C40.521 25.3688 40.8807 22.582 40.5197 19.4418C40.0065 15.409 38.8382 12.6587 38.8939 12.5477Z" fill="#005B00" stroke="black" stroke-width="0.0498086"/>
<path fill-rule="evenodd" clip-rule="evenodd" d="M36.1583 12.6653C36.1583 12.6653 38.1707 16.0666 38.9851 18.4441C39.7976 20.8253 40.5977 24.3053 40.5977 24.3053C40.5977 24.3053 40.4033 21.0803 39.3565 18.1928C37.9586 14.5328 36.1213 12.8341 36.1583 12.6653Z" fill="#005B00" stroke="black" stroke-width="0.051227"/>
<path fill-rule="evenodd" clip-rule="evenodd" d="M35.7807 15.0344C35.7807 15.0344 37.9041 17.7307 38.8732 19.7958C39.8412 21.865 40.919 25.007 40.919 25.007C40.919 25.007 40.3958 21.9288 39.1687 19.4383C37.5513 16.3032 35.7671 15.2098 35.7807 15.0344Z" fill="#005B00" stroke="black" stroke-width="0.0482584"/>
<path fill-rule="evenodd" clip-rule="evenodd" d="M36.0564 13.7957C36.0564 13.7957 38.0096 16.9677 38.8599 19.2622C39.7089 21.5608 40.6126 24.9705 40.6126 24.9705C40.6126 24.9705 40.2507 21.7393 39.1679 18.9601C37.7335 15.4466 36.0343 13.9709 36.0564 13.7957Z" fill="#005B00" stroke="black" stroke-width="0.0481549"/>
<path fill-rule="evenodd" clip-rule="evenodd" d="M38.1717 11.5566C38.1717 11.5566 39.4275 15.9339 39.7388 18.6074C40.0475 21.283 40.1281 24.9406 40.1281 24.9406C40.1281 24.9406 40.5766 21.9078 40.1435 18.6232C39.5264 14.4136 38.1032 11.6846 38.1717 11.5566Z" fill="#005B00" stroke="black" stroke-width="0.0538782"/>
<path fill-rule="evenodd" clip-rule="evenodd" d="M36.4482 10.4655C36.4482 10.4655 38.2819 14.5889 38.9457 17.3425C39.6072 20.0996 40.1697 24.0448 40.1697 24.0448C40.1697 24.0448 40.2192 20.5076 39.3529 17.1509C38.1807 12.8807 36.3964 10.6404 36.4482 10.4655Z" fill="#005B00" stroke="black" stroke-width="0.0553912"/>
<path fill-rule="evenodd" clip-rule="evenodd" d="M39.3681 12.8609C39.3681 12.8609 40.1568 16.9658 40.2703 19.3974C40.3817 21.8305 40.2581 25.0999 40.2581 25.0999C40.2581 25.0999 40.7769 22.4744 40.5965 19.4786C40.3151 15.6288 39.3061 12.9634 39.3681 12.8609Z" fill="#005B00" stroke="black" stroke-width="0.0478924"/>
<path fill-rule="evenodd" clip-rule="evenodd" d="M36.2139 12.1654C36.2139 12.1654 38.0476 15.7194 38.7114 18.1522C39.3729 20.5886 39.9354 24.1155 39.9354 24.1155C39.9354 24.1155 39.9849 20.8946 39.1186 17.9349C37.9464 14.1772 36.1621 12.3298 36.2139 12.1654Z" fill="#005B00" stroke="black" stroke-width="0.0523459"/>
<path fill-rule="evenodd" clip-rule="evenodd" d="M43.3891 14.9003C43.3891 14.9003 45.314 34.4652 39.5394 34.4652C34.7272 34.4652 34.7272 31.3788 33.7647 31.3788L34.7272 24.1713L43.3946 14.9003H43.3891Z" fill="#FFDF00" stroke="black" stroke-width="0.101136"/>
<path fill-rule="evenodd" clip-rule="evenodd" d="M41.4642 16.9636C41.4642 17.9924 43.3891 29.321 38.5715 32.4074C36.6466 33.4362 33.7593 31.3786 33.7593 32.4074L34.7217 24.1711L41.4642 16.9636Z" fill="#0000C4" stroke="black" stroke-width="0.101136"/>
<path fill-rule="evenodd" clip-rule="evenodd" d="M39.5394 19.0211C39.5394 20.0499 40.5018 28.2862 37.6091 30.3497C35.6842 32.4073 30.8666 31.8493 30.8666 31.8493L34.7218 24.171L39.5394 19.0211Z" fill="#E10000" stroke="black" stroke-width="0.101136"/>
<path fill-rule="evenodd" clip-rule="evenodd" d="M43.4356 14.8123L34.5481 24.1873L34.3887 24.0373L43.2762 14.6717L43.4356 14.8217V14.8123Z" fill="black"/>
<path fill-rule="evenodd" clip-rule="evenodd" d="M44.8032 13.7011L44.239 13.8007L44.073 13.9666C44.0957 13.9649 43.9071 14.1326 44.1394 14.3649C44.3717 14.5972 44.7023 14.264 44.7023 14.264C44.7023 14.264 44.6027 14.8282 44.2699 15.161C43.9371 15.4938 43.5398 15.4265 43.5398 15.4265C43.5398 15.4265 43.918 15.1166 43.6393 14.8623C43.3603 14.6058 43.2411 14.7959 43.2411 14.7959L42.9092 15.1278L42.6756 14.8942L44.004 13.5657L44.1036 13.0016L44.9593 12.8598L44.8028 13.6989L44.8032 13.7011Z" fill="#CECECC" stroke="black" stroke-width="0.0282212"/>
<path fill-rule="evenodd" clip-rule="evenodd" d="M43.4939 9.76104L42.8112 10.8193L41.9471 11.0525L42.5112 11.4176L41.4824 11.3844L41.0165 11.7172L40.8496 11.4502L41.3169 11.1165L41.681 10.0862L41.7815 10.7846L42.3129 10.0189L43.4943 9.7586L43.4939 9.76104Z" fill="#CECECC" stroke="black" stroke-width="0.0303866"/>
<path fill-rule="evenodd" clip-rule="evenodd" d="M40.7261 10.3967C40.7261 10.453 40.8011 10.5008 40.8874 10.5008C40.9736 10.5008 41.0524 10.453 41.0524 10.3967C41.0524 10.3405 40.9774 10.2898 40.8874 10.2898C40.7974 10.2898 40.7261 10.3377 40.7261 10.3967ZM40.9586 10.6189C40.9586 11.6258 40.1749 15.9008 40.1111 16.0048C40.1074 16.1314 40.2911 16.1848 40.3774 16.0302C40.6249 15.5408 41.1574 11.5302 41.1761 10.5936C41.1874 10.2083 41.0374 10.1773 40.8649 10.1858C40.7261 10.1914 40.5536 10.2898 40.5536 10.408C40.5536 10.5486 40.7711 10.6527 40.9586 10.6189Z" fill="#E10000" stroke="black" stroke-width="0.0584234"/>
<path fill-rule="evenodd" clip-rule="evenodd" d="M40.4168 11.395C40.445 11.4513 40.5401 11.4803 40.6221 11.4588C40.704 11.4372 40.7549 11.3697 40.7268 11.3134C40.6987 11.2572 40.6021 11.2253 40.5166 11.2478C40.4311 11.2703 40.3873 11.3359 40.4168 11.395ZM40.7488 11.5591C40.4901 13.5813 41.3581 16.7041 41.351 16.8269C41.4093 16.9516 41.612 16.9619 41.6152 16.7828C41.6578 16.6666 40.6585 13.8456 40.9428 11.4794C40.7608 11.0913 40.6028 11.0978 40.4432 11.1494C40.3142 11.1897 40.1995 11.3313 40.2586 11.4494C40.3289 11.59 40.5876 11.6397 40.7488 11.5591Z" fill="#0000C4" stroke="black" stroke-width="0.0612274"/>
<path fill-rule="evenodd" clip-rule="evenodd" d="M43.1732 14.2029C43.1732 14.2966 43.2669 14.3904 43.37 14.3904C43.4825 14.3904 43.5763 14.2966 43.5763 14.2029C43.5763 14.1091 43.4825 14.0341 43.37 14.0341C43.2575 14.0341 43.1732 14.1091 43.1732 14.2029ZM43.4544 14.5779C43.23 17.585 42.8796 20.5814 42.4044 23.5591C42.4044 23.7654 42.62 23.8591 42.7325 23.5966C43.0419 22.781 43.7075 16.0966 43.7357 14.5404C43.745 13.8935 43.5575 13.8466 43.3419 13.856C43.1638 13.8654 42.9575 14.0341 42.9575 14.231C42.9575 14.456 43.2294 14.6341 43.4638 14.5779H43.4544Z" fill="#E10000" stroke="black" stroke-width="0.0885432"/>
<path fill-rule="evenodd" clip-rule="evenodd" d="M42.6575 15.0688C42.695 15.1588 42.8169 15.2072 42.9204 15.1748C43.0239 15.1425 43.0865 15.0364 43.049 14.9464C43.0115 14.8564 42.8878 14.8036 42.7798 14.8373C42.6718 14.8711 42.6181 14.9743 42.6575 15.0688ZM43.0846 15.3371C42.8184 18.5431 44.0188 23.5234 44.0135 23.7184C44.0915 23.9178 44.3495 23.9389 44.348 23.6545C44.3986 23.4709 43.0408 18.9669 43.3288 15.215C43.0854 14.5943 42.8848 14.6011 42.6834 14.6793C42.5206 14.7403 42.3793 14.9625 42.458 15.1515C42.5518 15.3765 42.8821 15.4614 43.0846 15.3371Z" fill="#0000C4" stroke="black" stroke-width="0.0862452"/>
<path fill-rule="evenodd" clip-rule="evenodd" d="M27.5797 39.6148C28.019 39.8846 28.5168 40.0265 29.0234 40.0265C29.53 40.0265 30.0277 39.8846 30.467 39.6148V31.3785H28.5422C29.5046 34.4649 29.5046 37.5572 27.5743 39.6148H27.5797Z" fill="#E10000" stroke="black" stroke-width="0.101136"/>
<path fill-rule="evenodd" clip-rule="evenodd" d="M29.104 31.5604C29.104 37.3682 27.7094 38.661 27.7094 39.8292C28.2902 39.8292 28.6774 39.2845 29.104 38.5363C29.6847 37.3682 29.7405 31.4685 29.6847 31.5604H29.104Z" fill="#0000C4" stroke="black" stroke-width="0.0834794"/>
<path fill-rule="evenodd" clip-rule="evenodd" d="M27.9423 31.5606C27.9128 34.9534 26.4723 38.0969 26.7447 38.7925C27.0531 39.4159 27.9423 37.3684 29.1039 38.53C29.6847 37.3684 29.7405 31.4687 29.6847 31.554H27.9423V31.5606Z" fill="#0000C4" stroke="black" stroke-width="0.0834794"/>
<path fill-rule="evenodd" clip-rule="evenodd" d="M28.0727 31.0658C28.0727 34.8824 26.7372 35.1368 26.7372 36.1546C27.318 36.1546 28.0694 35.5982 28.0727 35.65C28.6535 34.8824 28.7093 31.0054 28.6535 31.0658H28.0727Z" fill="#FFDF00" stroke="black" stroke-width="0.067672"/>
<path fill-rule="evenodd" clip-rule="evenodd" d="M26.9111 31.0659C26.8816 33.2954 25.4739 35.1929 25.7463 35.6501C26.058 36.0554 26.9111 34.8824 28.0727 35.6501C28.6535 34.8824 28.7093 31.0055 28.6535 31.0659H26.9111Z" fill="#FFDF00" stroke="black" stroke-width="0.067672"/>
<path fill-rule="evenodd" clip-rule="evenodd" d="M33.7537 39.6148C33.3144 39.8846 32.8167 40.0265 32.31 40.0265C31.8034 40.0265 31.3057 39.8846 30.8664 39.6148V31.3785H32.7913C31.8288 34.4649 31.8288 37.5572 33.7591 39.6148H33.7537Z" fill="#E10000" stroke="black" stroke-width="0.101136"/>
<path fill-rule="evenodd" clip-rule="evenodd" d="M32.2296 31.5604C32.2296 37.3682 33.6241 38.661 33.6241 39.8292C33.0433 39.8292 32.6561 39.2845 32.2296 38.5363C31.6488 37.3682 31.593 31.4685 31.6488 31.5604H32.2296Z" fill="#0000C4" stroke="black" stroke-width="0.0834794"/>
<path fill-rule="evenodd" clip-rule="evenodd" d="M33.3911 31.5606C33.4206 34.9534 34.8611 38.0969 34.5887 38.7925C34.2803 39.4159 33.3911 37.3684 32.2295 38.53C31.6487 37.3684 31.5929 31.4687 31.6487 31.554H33.3911V31.5606Z" fill="#0000C4" stroke="black" stroke-width="0.0834794"/>
<path fill-rule="evenodd" clip-rule="evenodd" d="M33.2607 31.0658C33.2607 34.8824 34.5962 35.1368 34.5962 36.1546C34.0154 36.1546 33.264 35.5982 33.2607 35.65C32.68 34.8824 32.6242 31.0054 32.68 31.0658H33.2607Z" fill="#FFDF00" stroke="black" stroke-width="0.067672"/>
<path fill-rule="evenodd" clip-rule="evenodd" d="M34.4223 31.0658C34.4518 33.2954 35.8595 35.1929 35.5871 35.65C35.2754 36.0554 34.4223 34.8824 33.2607 35.65C32.68 34.8824 32.6242 31.0054 32.68 31.0658H34.4223Z" fill="#FFDF00" stroke="black" stroke-width="0.067672"/>
<path fill-rule="evenodd" clip-rule="evenodd" d="M23.3198 32.0209L22.3107 32.751L23.3198 33.4811L23.8238 33.1161L24.0758 33.4811L24.3278 34.2112L24.5809 33.4811L24.8329 33.1161H38.3543V32.3859H24.8318L24.5798 32.0188C24.5798 31.6537 24.6327 31.2887 24.8329 31.2887H25.8409C25.8409 30.9236 25.3369 30.1935 24.3278 30.1935C23.3198 30.1935 22.8147 30.9236 22.8147 31.2887H23.8238C24.0229 31.2887 24.0758 31.6537 24.0758 32.0209L23.8238 32.3859L23.3187 32.0188L23.3198 32.0209Z" fill="#908F8A" stroke="black" stroke-width="0.0924851"/>
<path fill-rule="evenodd" clip-rule="evenodd" d="M26.2796 33.7908H35.118V34.2389H26.2822L26.2796 33.7908ZM26.2796 33.3403H35.118V33.7908H26.2822L26.2796 33.3403ZM26.2796 32.8922H35.118V33.3428H26.2822L26.2796 32.8922ZM26.2796 32.4442H35.118V32.8922H26.2822L26.2796 32.4442ZM26.2796 31.9962H35.118V32.4442H26.2822L26.2796 31.9962ZM26.2796 31.5456H35.118V31.9962H26.2822L26.2796 31.5456ZM26.2796 31.1001H35.118V31.5456H26.2822L26.2796 31.1001Z" fill="#B74D00" stroke="black" stroke-width="0.0626023"/>
<path fill-rule="evenodd" clip-rule="evenodd" d="M26.7012 31.0737L29.9309 34.2125H30.3927L27.1653 31.0762H26.7036L26.7012 31.0737Z" fill="#908F8A" stroke="black" stroke-width="0.108448"/>
<path fill-rule="evenodd" clip-rule="evenodd" d="M26.7012 34.3073L29.9309 31.1686H30.3927L27.1653 34.3048H26.7036L26.7012 34.3073Z" fill="#908F8A" stroke="black" stroke-width="0.108448"/>
<path fill-rule="evenodd" clip-rule="evenodd" d="M26.7908 31.0737V34.2125H27.2554V31.0737H26.7908Z" fill="#908F8A" stroke="black" stroke-width="0.107815"/>
<path fill-rule="evenodd" clip-rule="evenodd" d="M30.8543 31.0737L34.084 34.2125H34.5457L31.3183 31.0762H30.8566L30.8543 31.0737Z" fill="#908F8A" stroke="black" stroke-width="0.108448"/>
<path fill-rule="evenodd" clip-rule="evenodd" d="M30.8543 34.3073L34.084 31.1686H34.5457L31.3183 34.3048H30.8566L30.8543 34.3073Z" fill="#908F8A" stroke="black" stroke-width="0.108448"/>
<path fill-rule="evenodd" clip-rule="evenodd" d="M34.1783 31.0737V34.2125H34.6429V31.0737H34.1783Z" fill="#908F8A" stroke="black" stroke-width="0.107815"/>
<path fill-rule="evenodd" clip-rule="evenodd" d="M30.9534 31.0737V34.2125H31.418V31.0737H30.9534Z" fill="#908F8A" stroke="black" stroke-width="0.107815"/>
<path fill-rule="evenodd" clip-rule="evenodd" d="M30.0158 31.0737V34.2125H30.4805V31.0737H30.0158Z" fill="#908F8A" stroke="black" stroke-width="0.107815"/>
<path fill-rule="evenodd" clip-rule="evenodd" d="M37.2096 22.1134C37.2096 27.2284 34.1863 31.3786 30.4671 31.3786C26.7478 31.3786 23.7246 27.2284 23.7246 22.1134C23.7246 16.9984 26.7424 12.8425 30.4671 12.8425C34.1918 12.8425 37.2096 16.9926 37.2096 22.1076V22.1134ZM36.2471 22.1134C36.2471 26.6588 33.6589 30.3497 30.4671 30.3497C27.2753 30.3497 24.687 26.6588 24.687 22.1134C24.687 17.5622 27.2753 13.8713 30.4671 13.8713C33.6589 13.8713 36.2471 17.5622 36.2471 22.1134Z" fill="#FFDF00" stroke="black" stroke-width="0.101136"/>
<path fill-rule="evenodd" clip-rule="evenodd" d="M33.0935 13.5748C32.2833 13.104 31.397 12.8424 30.4672 12.8424C29.5374 12.8424 28.6511 13.104 27.8409 13.569L28.2215 14.5222C28.9053 14.1009 29.6807 13.8791 30.4699 13.8791C31.2591 13.8791 32.0345 14.1009 32.7183 14.5222L33.0935 13.569V13.5748Z" fill="#FFDF00" stroke="black" stroke-width="0.101136"/>
<path fill-rule="evenodd" clip-rule="evenodd" d="M33.112 30.403C32.3019 30.8738 31.4155 31.1353 30.4857 31.1353C29.5559 31.1353 28.6696 30.8738 27.8594 30.4088L28.24 29.4555C28.9238 29.8768 29.6992 30.0986 30.4885 30.0986C31.2777 30.0986 32.0531 29.8768 32.7369 29.4555L33.112 30.4088V30.403Z" fill="#FFDF00" stroke="black" stroke-width="0.101136"/>
<path fill-rule="evenodd" clip-rule="evenodd" d="M36.2543 22.1154C36.2543 26.6623 33.6574 30.3467 30.4699 30.3467C27.2824 30.3467 24.6949 26.6623 24.6949 22.1154C24.6949 17.5685 27.2824 13.8654 30.4699 13.8654C33.6574 13.8654 36.2543 17.5592 36.2543 22.1154Z" fill="#A7CFFF"/>
<path fill-rule="evenodd" clip-rule="evenodd" d="M36.2471 22.1134C36.3069 23.6595 35.997 24.4151 35.6001 26.0252C35.4968 26.1995 35.0019 25.6474 34.7083 25.3742C34.4147 25.101 34.2842 25.6183 33.9144 25.1998C33.5501 24.7697 33.3163 25.316 33.0444 24.9557C32.7726 24.5953 30.255 24.5488 30.255 24.5139C30.5051 24.386 31.7884 24.5255 31.5818 23.8687C31.3479 23.1829 29.8961 23.8455 29.7004 22.9736C29.5644 22.1017 26.7859 22.0669 26.5847 21.8576C26.6663 22.1831 28.7488 22.3226 28.6999 23.1654C28.6509 23.5142 26.6499 23.613 26.4542 23.9036C26.2911 24.2698 28.0311 23.8048 28.0909 24.2524C28.0909 24.4384 27.8353 24.2524 26.9327 24.543C26.4759 24.6883 27.7701 25.1417 27.2807 25.3916C26.7913 25.6415 25.7419 25.752 25.7854 25.8566C25.9485 26.3797 28.2159 26.9959 27.993 27.083C27.1883 27.4667 26.7641 27.7166 26.3781 27.9375C25.2469 26.239 24.6542 24.198 24.687 22.1134C26.4107 21.4507 26.0464 21.3112 29.2328 21.3112C32.4191 21.3112 33.474 21.4449 36.2471 22.1134Z" fill="#AFFF7B" stroke="black" stroke-width="0.101136"/>
<path fill-rule="evenodd" clip-rule="evenodd" d="M36.2471 22.1132C35.8121 22.1132 35.3553 22.3108 34.8877 22.3108C34.4147 22.3108 33.9362 22.1074 33.4468 22.1074C32.9574 22.1074 32.3973 22.3748 31.8971 22.3748C31.3914 22.3748 30.951 22.1132 30.4453 22.1132C29.9396 22.1132 29.4339 22.3108 28.9337 22.3108C28.4334 22.3108 27.9386 22.1074 27.4547 22.1074C26.9707 22.1074 26.4922 22.3108 26.03 22.3108C25.5678 22.3108 25.1165 22.1074 24.687 22.1074C24.687 20.9739 24.8501 19.8928 25.1437 18.9047C26.6118 19.0209 25.7418 17.9921 26.6118 17.9921C26.8658 17.9774 27.1198 18.0206 27.357 18.1188C27.5942 18.217 27.8091 18.368 27.9875 18.5618C28.118 18.5618 28.7705 17.8991 29.5046 17.9921C30.2332 18.0851 29.9668 19.5789 30.9401 19.6545C31.4295 20.0498 31.7177 20.2997 32.3919 20.4624C33.3543 20.5554 36.1112 20.3171 36.1275 20.4508C36.2068 21.0009 36.2468 21.5566 36.2471 22.1132Z" fill="white" stroke="black" stroke-width="0.101136"/>
<path fill-rule="evenodd" clip-rule="evenodd" d="M31.3399 26.9079C31.3399 26.6514 31.5931 26.4804 31.5931 26.0709C31.5931 25.6614 31.3681 25.6524 31.3606 25.2699C31.3568 25.1124 31.5537 24.9549 31.6399 24.9369C31.7262 24.9189 31.7993 25.2699 31.7993 25.3464C31.7993 25.4229 31.7112 25.1574 31.6381 25.1529C31.5649 25.1484 31.4074 25.1799 31.4074 25.2564C31.4074 25.4094 31.6849 25.5984 31.6643 26.1114C31.6437 26.6154 31.4262 26.7684 31.4262 26.9214C31.4262 27.0744 31.5199 27.4974 31.5199 27.4974C31.5199 27.4974 31.3381 27.1599 31.3381 26.9034L31.3399 26.9079Z" fill="black" stroke="black" stroke-width="0.0522555"/>
<path fill-rule="evenodd" clip-rule="evenodd" d="M32.1498 26.8704C32.1498 26.6139 31.8967 26.4429 31.8967 26.0334C31.8967 25.6239 32.1217 25.6149 32.1292 25.2324C32.148 25.0524 31.908 24.9354 31.8217 24.9219C31.7355 24.9084 31.6342 25.2819 31.6342 25.3539C31.6342 25.4259 31.7355 25.1199 31.8086 25.1154C31.8817 25.1109 32.0823 25.1424 32.0823 25.2189C32.0823 25.3719 31.8048 25.5609 31.8255 26.0739C31.8461 26.5779 32.0636 26.7309 32.0636 26.8839C32.0636 27.0369 31.9698 27.4599 31.9698 27.4599C31.9698 27.4599 32.1517 27.1224 32.1517 26.8659L32.1498 26.8704Z" fill="black" stroke="black" stroke-width="0.0522555"/>
<path fill-rule="evenodd" clip-rule="evenodd" d="M31.8856 24.8343C31.8856 24.9561 31.82 25.0593 31.745 25.0593C31.67 25.0593 31.6137 24.9561 31.6137 24.8249C31.6137 24.6936 31.67 24.5999 31.745 24.5999C31.82 24.5999 31.8856 24.703 31.8856 24.8343ZM33.4794 25.678H33.5169V27.5061H33.47L33.4794 25.678ZM33.8637 25.528H33.9106V27.3749H33.8637V25.528Z" fill="black"/>
<path fill-rule="evenodd" clip-rule="evenodd" d="M33.723 26.3625V26.3156L34.098 26.3812V26.4281L33.723 26.3625Z" fill="black"/>
<path fill-rule="evenodd" clip-rule="evenodd" d="M28.3638 26.8929C28.3638 26.8929 29.7776 27.5556 30.0875 27.9508C30.392 28.3461 30.2724 28.3461 30.2724 28.3461L33.4098 28.4798C33.4098 28.2821 33.9645 28.2821 34.0895 27.8171C34.2146 27.3579 34.2146 27.2243 34.2146 27.2243L33.2304 27.5556L33.2848 26.9627H32.4257L32.3006 27.5556L30.4519 27.4916L30.5769 25.9048L30.2072 25.9688L30.1528 27.48C30.0875 27.48 28.4237 27.0208 28.3584 26.8929H28.3638Z" fill="#B74D00" stroke="black" stroke-width="0.101136"/>
<path fill-rule="evenodd" clip-rule="evenodd" d="M25.5189 17.4285C25.5189 17.4285 27.5688 16.7775 30.5268 16.824C33.4848 16.8705 35.5348 17.568 35.4913 17.568C35.4478 17.568 34.9258 16.4985 34.9258 16.4985C34.9258 16.4985 32.8378 15.8882 30.4833 15.8417C28.1343 15.7952 26.0844 16.3067 26.1333 16.3532L25.5189 17.4285Z" fill="#FEDE00" stroke="#FEDE00" stroke-width="0.101136"/>
<path fill-rule="evenodd" clip-rule="evenodd" d="M29.3543 15.9186L30.6293 15.8998L30.648 16.6404L29.373 16.6686L29.3543 15.9186ZM26.4293 16.3217L25.9793 17.0623L27.498 16.8748L27.3762 16.1529L26.4293 16.3404V16.3217ZM27.7137 16.0404L28.9887 15.9373L29.0449 16.6686L27.7793 16.7811L27.7137 16.0404ZM32.298 15.9748L31.0324 15.8811L30.9855 16.6311L32.2512 16.7061L32.298 15.9748ZM35.0355 16.4436L35.4949 17.3436L34.1262 17.0061L34.2762 16.2842L35.0262 16.4342L35.0355 16.4436ZM33.9293 16.1623L32.673 16.0029L32.5793 16.7342L33.8449 16.9029L33.9293 16.1623Z" fill="#38A9F9"/>
<path fill-rule="evenodd" clip-rule="evenodd" d="M30.527 17.847L30.391 17.0623L29.9778 17.7308L30.13 16.9461L29.5156 17.3937L29.9288 16.7368L29.2002 16.8996L29.8255 16.4578L29.0915 16.3125L29.8255 16.1614L29.2002 15.7197L29.9288 15.8824L29.5101 15.2256L30.13 15.6732L29.9778 14.8885L30.391 15.5569L30.527 14.7722L30.6683 15.5569L31.0761 14.8885L30.9293 15.6732L31.5438 15.2256L31.1251 15.8824L31.8591 15.7197L31.2338 16.1614L31.9679 16.3125L31.2338 16.4578L31.8591 16.8996L31.1251 16.7368L31.5438 17.3937L30.9293 16.9461L31.0816 17.7308L30.6683 17.0623L30.527 17.847Z" fill="#FFDF00" stroke="black" stroke-width="0.101136"/>
<path fill-rule="evenodd" clip-rule="evenodd" d="M31.6127 15.8203C31.6127 16.2562 31.26 16.6078 30.8218 16.6078C30.3836 16.6078 30.0309 16.2562 30.0309 15.8203C30.0309 15.3843 30.3836 15.0281 30.8218 15.0281C31.26 15.0281 31.6127 15.3843 31.6127 15.825V15.8203Z" fill="#FFDF00" stroke="black" stroke-width="0.0900365"/>
<path fill-rule="evenodd" clip-rule="evenodd" d="M30.7325 15.9935C30.7325 16.0404 30.6106 16.0873 30.47 16.0873C30.3294 16.0873 30.2075 16.0404 30.2075 15.9935C30.2075 15.9466 30.32 15.8998 30.47 15.8998C30.62 15.8998 30.7325 15.9373 30.7325 15.9935ZM31.295 15.9935C31.295 16.0404 31.2106 16.0873 31.1075 16.0873C31.0044 16.0873 30.9013 16.0404 30.9013 15.9935C30.9013 15.9373 30.995 15.8998 31.0981 15.8998C31.2013 15.8998 31.295 15.9373 31.295 15.9935Z" fill="black"/>
<path d="M30.7049 16.3168L30.7597 16.3483C30.628 16.2679 30.688 16.2977 30.8947 16.5013C31.0127 16.4327 31.0351 16.3703 31.1084 16.2853" stroke="black" stroke-width="0.102147"/>
<path d="M30.1814 16.7309L30.2249 16.7774C30.1215 16.6612 30.1705 16.7193 30.3989 16.8704C30.6164 16.8995 30.8393 16.8007 30.9698 16.6379" stroke="black" stroke-width="0.101136"/>
<path fill-rule="evenodd" clip-rule="evenodd" d="M27.048 18.2622C27.048 18.2622 27.1418 19.0122 26.5699 19.9497C26.0074 20.8778 26.0918 20.5497 26.0918 20.5497C26.0918 20.5497 26.3543 21.0653 26.3074 21.0653C26.2605 21.0653 25.8668 20.5966 25.8668 20.5966L25.398 21.1122C25.398 21.1122 25.8293 20.3153 25.7824 20.3153C25.7355 20.3153 25.6511 20.0341 25.6511 20.0341L25.998 19.8935C25.998 19.8935 26.523 18.9185 26.523 18.9653C26.523 19.0122 24.9574 20.0341 24.9574 20.0341L27.048 18.2716V18.2622ZM27.3949 18.5435C27.348 18.5435 27.6105 19.2935 27.8355 19.6685C28.0511 20.0435 28.0511 20.5028 28.0511 20.5028L28.7918 20.8778L27.8355 19.4341L28.4449 19.6591L27.3949 18.5435ZM27.3949 20.5028C27.3949 20.5028 27.9199 21.0653 27.9574 21.2528C27.9949 21.4403 28.0043 21.8528 28.0043 21.8528L27.7886 21.3841L27.4793 21.806C27.4793 21.806 27.7043 21.1497 27.6574 21.1028C27.6105 21.056 27.3105 21.3372 27.3105 21.3372C27.3105 21.3372 27.4418 20.9622 27.4418 20.9247C27.4418 20.8872 27.4418 20.6435 27.3949 20.5028ZM24.7793 21.806C24.9574 21.6653 25.3043 21.5716 25.3043 21.5716C25.3043 21.5716 25.0886 21.9466 25.0418 21.9466C24.9949 21.9466 24.873 21.9466 24.7793 21.806ZM30.7886 19.7622C30.7886 19.7622 31.923 20.456 31.923 20.5028C31.923 20.5497 31.1824 20.1747 31.1824 20.1747L30.7886 19.7622ZM28.7449 18.3091C28.8386 18.356 30.4043 19.6591 30.3574 19.6591C30.3105 19.6591 29.6636 19.2841 29.6636 19.3403V19.6591L29.3074 18.9185L29.223 19.1997L28.7543 18.3091H28.7449ZM29.1386 20.4091L29.5699 21.2903L30.0105 21.1966C30.0105 21.1966 29.1855 20.4091 29.1386 20.4091ZM30.4886 19.8466L30.5355 20.6903C30.5355 20.6903 30.7886 20.9247 30.7886 20.8778C30.7886 20.831 30.5355 19.8935 30.4886 19.8466Z" fill="#B7E1FF"/>
<path fill-rule="evenodd" clip-rule="evenodd" d="M17.7855 8.39059C17.7855 8.39059 19.7542 7.30309 21.9949 6.49684C23.6434 5.89113 25.3444 5.43921 27.0761 5.14684C27.7324 5.14684 28.8761 6.81558 29.0636 6.81558C29.2511 6.81558 30.0105 6.34683 30.9667 6.34683C31.923 6.34683 32.4761 7.09683 32.673 7.09683H34.3792C34.5667 7.09683 33.8074 5.24059 34.3792 5.33434C34.6605 5.38121 37.0792 5.75621 39.3292 6.47809C41.5792 7.20934 44.7667 8.50308 44.7667 8.50308C44.7667 8.50308 39.5636 9.18746 38.1667 8.99059C37.9792 9.08434 38.1667 10.2093 37.8855 9.71246C37.4542 9.61871 35.8511 9.36559 35.5699 9.36559C35.2886 9.36559 34.7542 9.68434 33.9949 9.87184C33.2449 10.0593 32.2886 10.3406 32.2886 10.3406L33.5261 12.2812L32.0074 13.0312C32.0074 13.0312 31.0605 10.8 30.6761 10.8C30.2917 10.8 30.1136 12.375 29.6355 12.2812C29.1667 12.1875 28.9792 10.8 28.5949 10.425C28.2199 10.0593 26.2136 9.91871 25.4542 9.74059C24.7042 9.55309 23.4761 9.41246 22.8105 9.22496C22.1542 9.03746 21.4792 9.69371 21.198 9.69371C20.9167 9.69371 21.573 9.13121 21.2917 9.03746C21.0105 8.94371 20.823 9.31871 20.6355 9.31871C20.448 9.31871 18.4511 8.94371 18.2636 8.84996C18.0761 8.75621 18.7324 8.39059 18.5449 8.39059H17.7855Z" fill="#984000"/>
<path fill-rule="evenodd" clip-rule="evenodd" d="M31.9287 7.46231C31.9287 7.97906 31.5038 8.39831 30.982 8.39831C30.4602 8.39831 30.0374 7.97906 30.0374 7.46231C30.0374 6.94556 30.4602 6.52875 30.982 6.52875C31.5038 6.52875 31.9287 6.948 31.9287 7.46231Z" fill="#808080" stroke="#772600" stroke-width="0.111933"/>
<path fill-rule="evenodd" clip-rule="evenodd" d="M27.1295 7.64055C27.2991 7.44255 27.5092 7.14255 28.0584 7.14255C28.185 7.09155 28.185 6.79155 28.4786 6.79155C28.7748 6.79155 28.6887 7.09155 28.9013 7.19355C29.1114 7.29255 30.8403 7.09155 30.8403 7.09155C30.8403 7.09155 31.0073 7.24155 31.0073 7.44255C31.0073 7.64355 30.8808 7.79055 30.8403 7.79055C30.7998 7.79055 29.1114 7.64055 28.9849 7.69155C28.8583 7.74255 28.7748 7.79055 28.4786 7.79055C28.185 7.79055 28.0989 7.44255 27.8888 7.44255C27.6788 7.44255 27.4687 7.39155 27.1295 7.64355V7.64055Z" fill="#984000" stroke="#772600" stroke-width="0.197056"/>
<path d="M32.273 7.53607H32.9463C33.1893 7.53907 33.2729 7.62607 33.4956 7.63507H34.0854C34.3006 7.62607 34.4145 7.56607 34.6321 7.53607C34.9992 7.53007 34.8751 7.49707 34.8017 7.23607C34.7359 7.04107 34.7258 6.94807 34.6321 6.83707C34.5967 6.59707 34.5157 6.51307 34.5056 6.23707C34.4676 6.02707 34.3967 5.88607 34.4651 5.63707C34.5613 5.80807 34.5992 5.87707 34.8448 5.88907C35.0979 5.88907 35.1966 5.88007 35.351 5.98807C35.4675 6.13507 35.6244 6.08707 35.8573 6.08707C36.0496 6.12907 36.0826 6.24607 36.2344 6.33607C36.4141 6.45607 36.5306 6.48607 36.7812 6.48607C36.9837 6.53107 37.1609 6.56407 37.2874 6.63607C37.3963 6.78907 37.5659 6.82807 37.7937 6.83707C37.9202 6.83707 38.0215 6.82207 38.1303 6.78607C38.3252 6.79807 38.5227 6.78607 38.7631 6.78607C38.9201 7.00207 38.9555 7.08307 39.2264 7.08607C39.4137 7.24207 39.5706 7.26607 39.7326 7.33507H40.3654C40.5932 7.35607 40.6641 7.46707 40.8717 7.53607C41.0497 7.63145 41.2323 7.71459 41.4184 7.78507C41.5996 7.82395 41.7836 7.84104 41.9677 7.83607C42.1221 7.93207 42.312 7.93807 42.4309 8.03407C42.6056 8.07907 42.8435 8.13307 42.9777 8.18407C43.2004 8.22007 43.2865 8.30407 43.4839 8.33407C43.6535 8.39407 43.4282 8.44207 43.3143 8.48407C43.0663 8.47507 43.0486 8.36407 42.8081 8.33407C42.6815 8.24707 42.4891 8.25907 42.3018 8.18407H42.2613C42.4284 8.30407 42.5904 8.37907 42.5145 8.58607C42.2993 8.58607 42.1246 8.55307 41.9247 8.53507C41.7121 8.48707 41.6159 8.43607 41.3779 8.43607C41.6159 8.36707 41.6766 8.44207 41.8411 8.53507C41.9019 8.77507 41.7703 8.68507 41.545 8.68507C41.3526 8.60407 41.2362 8.50507 40.9982 8.48407H40.492C40.7426 8.49607 40.7957 8.60707 40.9552 8.73607C40.9679 8.81407 40.9527 8.80807 40.8286 8.83507C40.697 8.70007 40.5274 8.65507 40.3224 8.58607C40.1224 8.57707 39.9123 8.55607 39.7326 8.48407C39.6086 8.47507 39.6288 8.30107 39.9022 8.58607C40.0667 8.70007 40.125 8.79607 40.1123 8.88607C39.8946 8.82007 39.7883 8.71807 39.6491 8.63407C39.4597 8.55624 39.2594 8.52262 39.0593 8.53507C38.8416 8.46607 39.0821 8.42707 39.2264 8.68507C39.5402 8.94907 39.1859 8.83507 39.0593 8.78407C38.8695 8.72107 38.672 8.62807 38.51 8.58607C38.3835 8.54107 38.2721 8.49907 38.1303 8.48407C38.3506 8.50807 38.424 8.60107 38.51 8.78407C38.7328 8.96407 38.4999 8.87707 38.2999 8.83507C38.1734 8.70307 38.0088 8.63407 37.9202 8.48407C37.7101 8.36107 37.7026 8.21407 37.8367 8.53507C37.8696 8.63707 37.862 8.85907 37.8772 8.88607C37.7228 8.68507 37.7557 8.63407 37.5836 8.63407C37.4646 8.53807 37.2925 8.46307 37.2039 8.33407C37.0419 8.31607 37.0318 8.24707 36.8672 8.18407C37.0014 8.37307 37.1811 8.55907 37.2874 8.73607C37.4798 8.86207 37.533 8.97607 37.6671 9.08407C37.7203 9.19507 37.8696 9.28507 37.7101 9.13507C37.5279 8.92507 37.3937 8.87407 37.1204 8.73607C36.9634 8.58607 36.9077 8.52607 36.7407 8.38507C36.5129 8.29807 36.6015 8.25007 36.7407 8.53507C36.9001 8.70907 37.0216 8.90107 37.1609 9.03607C37.27 9.19063 37.398 9.3251 37.5406 9.43507C37.5785 9.50107 37.6924 9.51307 37.5406 9.53407C37.414 9.39607 37.2267 9.30907 37.0773 9.18307C36.8672 9.11407 36.7685 8.98507 36.6141 8.83507C36.5129 8.65807 36.3509 8.52307 36.2344 8.38507C35.9914 8.27107 36.2825 8.49307 36.361 8.63407C36.4141 8.81707 36.4825 8.96407 36.5281 9.13507C36.5989 9.30007 36.3154 9.09607 36.2344 9.03607C36.0679 8.9082 35.8809 8.82241 35.6851 8.78407C35.5174 8.74428 35.3485 8.71126 35.1789 8.68507C34.9891 8.62507 35.2827 8.82907 35.3915 9.03607C35.6041 9.27307 35.1814 9.07807 35.0549 9.03607C34.8459 8.99399 34.6339 8.97691 34.4221 8.98507C34.1512 9.00307 34.3461 9.04507 34.4221 9.18307C34.5056 9.26107 34.5638 9.42307 34.5486 9.48307C34.3714 9.45307 34.2196 9.39307 33.9993 9.38407C33.8221 9.45307 33.6121 9.43507 33.4096 9.43507C33.402 9.56107 33.4475 9.45307 33.5361 9.58507C33.6829 9.65407 33.7791 9.73807 33.7487 9.83407H32.5261C32.392 9.87607 32.554 9.85507 32.6527 10.0351C32.597 10.1971 32.5261 10.1341 32.3566 10.1341C32.2426 10.0801 32.0123 10.0561 31.8933 9.98407C31.7744 9.98407 31.7845 9.94807 31.6832 9.93307C32.0376 10.2331 31.8604 10.1581 32.0629 10.3831C32.0958 10.3981 32.1768 10.4341 32.1034 10.4341M29.3216 12.0331C29.2963 12.0331 29.2406 11.8711 29.1545 11.7331C29.0938 11.5531 29.0178 11.6551 28.9419 11.3821C28.952 11.1001 28.9596 11.0521 28.9419 10.7821C28.7698 10.6381 28.6964 10.5961 28.5622 10.3321C28.3496 10.1221 28.5951 9.76207 28.6356 9.49807C28.4483 9.45007 28.3572 9.84307 28.0711 9.98407C27.8636 10.1491 28.0458 9.64207 27.9446 9.34807C27.8762 8.93107 27.6712 9.55807 27.5953 9.73507C27.4561 9.84607 27.413 9.99007 27.2156 9.78307C27.2156 9.63007 27.3396 9.19807 27.2865 9.11407C27.089 9.23107 26.8308 9.57907 26.6258 9.63307C26.4182 9.58207 26.6688 9.18907 26.6688 8.89807C26.5929 8.86807 26.2967 9.67207 26.1752 9.67807C26.0537 9.68407 26.1069 8.89807 26.0487 8.91607C25.9601 9.06607 25.7804 9.37807 25.6563 9.48607C25.4159 9.44707 25.6918 8.96107 25.7272 8.78107C25.7677 8.56507 25.5019 9.19507 25.3602 9.23407C25.2564 9.34207 25.0514 9.41407 24.9805 9.43507C25.0615 9.24907 25.4614 8.87407 25.4361 8.76607C25.2007 8.77507 24.8438 9.14107 24.6438 9.18607C24.5122 9.18607 24.33 9.23707 24.3072 9.23407C24.3173 8.99407 24.7982 8.79607 24.8742 8.64907C24.6388 8.69407 24.1857 8.94007 24.0541 9.13507C23.8971 9.17407 23.6997 9.22507 23.5478 9.13507C23.5706 8.91007 23.925 8.47507 24.0034 8.33107C23.7883 8.44207 23.682 8.52907 23.4541 8.58007C23.4111 8.63107 23.2896 8.73907 23.3276 8.63107C23.3959 8.42107 23.4972 8.33107 23.5807 8.18107C23.3909 8.22307 23.32 8.35207 23.1175 8.48107C22.9884 8.48707 22.6188 8.92807 22.4948 8.93407C22.2849 9.1302 22.0398 9.26669 21.7785 9.33307C21.5861 9.37507 21.4924 9.42307 21.3988 9.53407C21.495 9.33307 21.6418 9.14407 21.7785 9.03607C21.8619 8.85397 21.9961 8.71187 22.1581 8.63407C22.2062 8.56507 22.3379 8.54707 22.1986 8.53507C22.0797 8.66107 21.8772 8.80507 21.7785 8.88607C21.6494 8.98207 21.5 9.07807 21.4393 9.03607C21.5076 8.82007 21.6291 8.76607 21.7354 8.58607C21.9582 8.41807 21.7354 8.52607 21.5658 8.58607C21.457 8.70007 21.2621 8.78707 21.1026 8.88607C20.9254 8.94007 20.8065 9.06607 20.5964 9.13507C20.5964 9.20707 20.6571 9.00607 20.6824 8.93407C20.8546 8.71207 20.9001 8.64907 21.1026 8.58607C21.1532 8.49907 21.214 8.53507 21.0621 8.53507C20.9457 8.65507 20.7887 8.72107 20.6394 8.83507C20.4901 8.87407 20.2951 8.88607 20.0926 8.88607C19.8294 8.92207 19.8522 8.94607 20.0926 8.78407C20.2268 8.63407 20.3382 8.67307 20.3458 8.48407C20.1863 8.62207 19.9914 8.72407 19.7965 8.83507C19.6345 8.84107 19.5915 8.88607 19.4168 8.88607C19.5003 8.78407 19.551 8.65507 19.6699 8.58607C19.8471 8.35507 19.5586 8.54107 19.5003 8.58607H18.8675C18.7561 8.75407 18.8625 8.58607 18.9536 8.48407C19.0624 8.41807 19.1763 8.33107 19.1637 8.28607C19.0371 8.41507 18.8928 8.47507 18.784 8.58607C18.6676 8.62807 18.5309 8.64607 18.5309 8.68507C18.6245 8.52607 18.7739 8.42707 18.8701 8.28607C19.0118 8.25007 19.1333 8.19607 19.1637 8.13607H18.5739H18.9941C19.2092 8.13607 19.3915 8.11207 19.5864 8.08507C19.9205 8.01907 19.556 7.98607 19.3738 7.98607C19.3409 7.90807 19.4801 7.86607 19.6269 7.83607C19.7535 7.76407 19.9129 7.70107 20.0496 7.63507C20.1703 7.59151 20.284 7.52461 20.3863 7.43707C20.2597 7.44307 20.2597 7.47907 20.1331 7.48507C20.323 7.47007 20.4571 7.43707 20.6824 7.43707C20.868 7.36458 21.0504 7.28148 21.2292 7.18807C21.3051 7.08007 21.3355 7.08607 21.1456 7.08607C21.3152 7.02307 21.5557 6.99007 21.6924 6.93607C21.8669 6.89275 22.0367 6.82634 22.1986 6.73807C22.3227 6.63907 22.3936 6.52207 22.5353 6.43807C22.6998 6.57007 22.7024 6.58807 22.9985 6.58807C23.2365 6.58507 23.3833 6.51607 23.5048 6.38707C23.687 6.32707 23.7199 6.22507 23.9275 6.18907C24.1225 6.22538 24.3199 6.24144 24.5173 6.23707C24.7198 6.17407 24.9147 6.05707 25.064 5.93707C25.1931 5.86207 25.3475 5.75407 25.4867 5.68807C25.6386 5.78107 25.7601 5.85607 25.95 5.88907C26.1449 5.85307 26.2486 5.73907 26.4132 5.68807C26.5147 5.56006 26.6475 5.47298 26.7929 5.43907C27.0384 5.29507 27.0207 5.48407 27.1295 5.63707C27.2561 5.79307 27.4181 5.71807 27.5927 5.78707C27.6915 5.96707 27.7623 6.08707 27.8889 6.18607C27.9876 6.33007 28.1041 6.36607 28.3116 6.38707C28.3876 6.50707 28.3268 6.59107 28.4787 6.63607C28.5394 6.71407 28.6432 6.74407 28.7318 6.78607" stroke="#772600" stroke-width="0.130131"/>
<path d="M31.7871 10.7581V10.7821C31.7871 10.7131 31.7871 10.7521 31.8301 10.8841C31.8453 10.9921 31.8099 10.9801 31.7669 11.0581C31.7593 11.1691 31.7466 11.2501 31.7466 11.3821C31.7314 11.4901 31.6808 11.5921 31.6403 11.6821C31.5998 11.7751 31.4251 11.8291 31.4302 11.9581C31.329 11.9911 31.3264 11.9131 31.3239 11.7811C31.2631 11.7001 31.2429 11.5891 31.1973 11.4811C31.172 11.3791 31.1113 11.3011 31.0708 11.1811C31.01 11.0701 30.9569 11.0371 30.9037 10.9081C30.8809 10.8481 30.886 10.7701 30.8404 10.7341C30.7721 10.6291 30.7265 10.6141 30.6075 10.6081C30.5164 10.6321 30.481 10.6801 30.3975 10.7071C30.3316 10.7341 30.2051 10.7251 30.1241 10.7581C30.1038 10.7971 30.1646 10.8181 30.1874 10.9081C30.1317 10.9621 30.1114 11.0551 30.081 11.1331C30.0304 11.2081 29.9975 11.2441 29.9747 11.3581C30.0102 11.4271 29.9798 11.5201 29.9342 11.5831C29.919 11.6971 29.871 11.7601 29.8482 11.8561C29.7824 11.9131 29.757 11.9641 29.7014 12.0571C29.6533 12.1381 29.6102 12.1321 29.4913 12.1321C29.3976 12.1021 29.385 12.0421 29.3014 12.0061C29.2938 11.9761 29.2862 11.9671 29.2584 11.9581" stroke="#782600" stroke-width="0.115259"/>
<path fill-rule="evenodd" clip-rule="evenodd" d="M29.5042 11.7653C29.5042 11.7653 29.4667 12.2341 29.1667 12.5435C28.8667 12.8528 28.2479 13.2091 28.2479 13.2091C28.2479 13.2091 29.0823 12.8153 29.1667 12.8997C29.2604 12.9935 28.6323 13.6778 28.6323 13.6778C28.6323 13.6778 29.4479 12.956 29.5511 12.956C29.6542 12.956 29.8886 13.6591 29.9823 13.6403C30.0667 13.6216 29.7948 12.7497 29.8323 12.6091C29.8698 12.4778 29.8323 11.7372 29.8323 11.7372L29.5136 11.7653H29.5042ZM31.4261 11.7091C31.4261 11.7091 31.3886 12.206 31.0886 12.5341C30.7886 12.8622 30.1698 13.2466 30.1698 13.2466C30.1698 13.2466 31.0042 12.8247 31.0886 12.9185C31.1823 13.0122 30.5542 13.7435 30.5542 13.7435C30.5542 13.7435 31.3698 12.9747 31.4729 12.9747C31.5761 12.9747 31.8104 13.7247 31.9042 13.706C31.9886 13.6872 31.7167 12.7497 31.7542 12.6091C31.7917 12.4591 31.7542 11.6716 31.7542 11.6716L31.4261 11.7091ZM28.7354 7.20909C28.7354 7.29346 28.6417 7.36846 28.5386 7.36846C28.4354 7.36846 28.3323 7.29346 28.3323 7.19971C28.3323 7.10596 28.4261 7.03096 28.5386 7.03096C28.6511 7.03096 28.7354 7.10596 28.7354 7.19971V7.20909Z" fill="#812E00"/>
</g>
<defs>
<clipPath id="clip0_152542_2281">
<rect width="60" height="45" fill="white" transform="translate(0.666748)"/>
</clipPath>
</defs>
</svg>
