<svg width="61" height="45" viewBox="0 0 61 45" fill="none" xmlns="http://www.w3.org/2000/svg">
<g clip-path="url(#clip0_152542_2267)">
<path fill-rule="evenodd" clip-rule="evenodd" d="M-8.70825 0.000350952H70.0417V45.0004H-8.70825V0.000350952Z" fill="white"/>
<path fill-rule="evenodd" clip-rule="evenodd" d="M-8.70825 30.217H70.0417V45.0002H-8.70825V30.217Z" fill="#DA0000"/>
<path fill-rule="evenodd" clip-rule="evenodd" d="M6.26855 30.8501H10.5752V31.1402H6.26855V30.8501ZM6.91016 32.3267H7.20898V32.6167H6.91016V32.3267ZM10.5928 32.3267V32.6167H9.73145V32.3179L10.5928 32.3267ZM11.0498 30.8501H11.3486V32.6079H11.0498V30.8501Z" fill="white"/>
<path fill-rule="evenodd" clip-rule="evenodd" d="M12.7724 32.3177V32.6166H11.1376V32.3177H12.7724ZM9.73138 31.6234H10.0126V32.6166H9.7226L9.73138 31.6234Z" fill="white"/>
<path fill-rule="evenodd" clip-rule="evenodd" d="M12.5264 30.8501H12.8252V32.6079H12.5264V30.8501ZM11.7881 30.8501H12.0781V32.6079H11.7881V30.8501ZM7.85059 31.5533V31.8521H6.26855V31.5533H7.85059ZM11.3047 31.5533V31.8521H9.72266V31.5533H11.3047Z" fill="white"/>
<path fill-rule="evenodd" clip-rule="evenodd" d="M9.73138 31.6323H10.0126V32.6079H9.7226L9.73138 31.6323Z" fill="white"/>
<path fill-rule="evenodd" clip-rule="evenodd" d="M9.73138 31.6323H10.0126V32.6079H9.7226L9.73138 31.6323Z" fill="white"/>
<path fill-rule="evenodd" clip-rule="evenodd" d="M9.73138 31.6323H10.0126V32.6079H9.7226L9.73138 31.6323ZM6.27728 31.6323H6.56732V32.6079H6.27728V31.6323ZM8.80853 31.6323H9.10736V32.6079H8.80853V31.6323ZM7.5517 31.6323H7.85053V32.6079H7.5517V31.6323Z" fill="white"/>
<path fill-rule="evenodd" clip-rule="evenodd" d="M9.01056 32.3181V32.617H7.68341V32.3181H9.01056ZM9.09845 31.5535V31.8523H8.2547V31.5535H9.09845Z" fill="white"/>
<path fill-rule="evenodd" clip-rule="evenodd" d="M-0.815552 30.8501H3.49109V31.1402H-0.815552V30.8501ZM-0.173951 32.3267H0.124878V32.6167H-0.182739L-0.173951 32.3267ZM3.50867 32.3267V32.6167H2.64734V32.3179L3.50867 32.3267ZM3.9657 30.8501H4.26453V32.6079H3.9657V30.8501Z" fill="white"/>
<path fill-rule="evenodd" clip-rule="evenodd" d="M5.68854 32.3177V32.6166H4.05377V32.3177H5.68854ZM2.64752 31.6234H2.93756V32.6166H2.64752V31.6234Z" fill="white"/>
<path fill-rule="evenodd" clip-rule="evenodd" d="M5.44226 30.8501H5.74109V32.6079H5.44226V30.8501ZM4.70398 30.8501H4.99402V32.6079H4.70398V30.8501ZM0.766479 31.5533V31.8521H-0.815552V31.5533H0.766479ZM4.22058 31.5533V31.8521H2.63855V31.5533H4.22058Z" fill="white"/>
<path fill-rule="evenodd" clip-rule="evenodd" d="M2.64752 31.6323H2.93756V32.6079H2.64752V31.6323Z" fill="white"/>
<path fill-rule="evenodd" clip-rule="evenodd" d="M2.64752 31.6323H2.93756V32.6079H2.64752V31.6323Z" fill="white"/>
<path fill-rule="evenodd" clip-rule="evenodd" d="M2.64752 31.6323H2.93756V32.6079H2.64752V31.6323ZM-0.80658 31.6323H-0.516541V32.6079H-0.80658V31.6323ZM1.72467 31.6323H2.01471V32.6079H1.72467V31.6323ZM0.467834 31.6323H0.766663V32.6079H0.467834V31.6323Z" fill="white"/>
<path fill-rule="evenodd" clip-rule="evenodd" d="M1.92664 32.3181V32.617H0.608276V32.3181H1.92664ZM2.01453 31.5535V31.8523H1.17078V31.5535H2.01453Z" fill="white"/>
<path fill-rule="evenodd" clip-rule="evenodd" d="M13.291 30.8501H17.5976V31.1402H13.291V30.8501ZM13.9326 32.3267H14.2314V32.6167H13.9326V32.3267ZM17.6152 32.3267V32.6167H16.7538V32.3179L17.6152 32.3267ZM18.081 30.8501H18.3798V32.6079H18.081V30.8501Z" fill="white"/>
<path fill-rule="evenodd" clip-rule="evenodd" d="M19.7949 32.3177V32.6166H18.1602V32.3177H19.7949ZM16.7539 31.6234H17.0527V32.6166H16.7539V31.6234Z" fill="white"/>
<path fill-rule="evenodd" clip-rule="evenodd" d="M19.5488 30.8501H19.8476V32.6079H19.5488V30.8501ZM18.8105 30.8501H19.1093V32.6079H18.8017L18.8105 30.8501ZM14.873 31.5533V31.8521H13.291V31.5533H14.873ZM18.3271 31.5533V31.8521H16.7451V31.5533H18.3271Z" fill="white"/>
<path fill-rule="evenodd" clip-rule="evenodd" d="M16.7539 31.6323H17.0527V32.6079H16.7539V31.6323Z" fill="white"/>
<path fill-rule="evenodd" clip-rule="evenodd" d="M16.7539 31.6323H17.0527V32.6079H16.7539V31.6323Z" fill="white"/>
<path fill-rule="evenodd" clip-rule="evenodd" d="M16.754 31.6323H17.0528V32.6079H16.754V31.6323ZM13.2999 31.6323H13.5987V32.6079H13.2999V31.6323ZM15.8311 31.6323H16.1299V32.6079H15.8311V31.6323ZM14.5743 31.6323H14.8731V32.6079H14.5743V31.6323Z" fill="white"/>
<path fill-rule="evenodd" clip-rule="evenodd" d="M16.0419 32.3181V32.617H14.706V32.3181H16.0419ZM16.1298 31.5535V31.8523H15.2861V31.5535H16.1298Z" fill="white"/>
<path fill-rule="evenodd" clip-rule="evenodd" d="M20.3573 30.8501H24.6727V31.1402H20.3661L20.3573 30.8501ZM21.0077 32.3267H21.2977V32.6167H21.0077V32.3267ZM24.6815 32.3267V32.6167H23.8202V32.3179L24.6815 32.3267ZM25.1473 30.8501H25.4462V32.6079H25.1473V30.8501Z" fill="white"/>
<path fill-rule="evenodd" clip-rule="evenodd" d="M26.8699 32.3177V32.6166H25.2351V32.3177H26.8699ZM23.8201 31.6234H24.1189V32.6166H23.8201V31.6234Z" fill="white"/>
<path fill-rule="evenodd" clip-rule="evenodd" d="M26.6229 30.8502H26.9218V32.608H26.6229V30.8502ZM25.8759 30.8502H26.1747V32.608H25.8759V30.8502ZM21.9384 31.5533V31.8521H20.3651V31.5533H21.9384ZM25.3925 31.5533V31.8521H23.8192V31.5533H25.3925Z" fill="white"/>
<path fill-rule="evenodd" clip-rule="evenodd" d="M23.8201 31.6323H24.1189V32.6079H23.8201V31.6323Z" fill="white"/>
<path fill-rule="evenodd" clip-rule="evenodd" d="M23.8201 31.6323H24.1189V32.6079H23.8201V31.6323Z" fill="white"/>
<path fill-rule="evenodd" clip-rule="evenodd" d="M23.8201 31.6323H24.119V32.6079H23.8201V31.6323ZM20.366 31.6323H20.6649V32.6079H20.366V31.6323ZM22.8973 31.6323H23.1961V32.6079H22.8973V31.6323ZM21.6492 31.6323H21.9393V32.6079H21.6492V31.6323Z" fill="white"/>
<path fill-rule="evenodd" clip-rule="evenodd" d="M23.1083 32.3181V32.617H21.7811V32.3181H23.1083ZM23.1962 31.5535V31.8523H22.3524V31.5535H23.1962Z" fill="white"/>
<path fill-rule="evenodd" clip-rule="evenodd" d="M27.4589 30.8501H31.7656V31.1402H27.4589V30.8501ZM28.1005 32.3267H28.3994V32.6167H28.1005V32.3267ZM31.7831 32.3267V32.6167H30.9218V32.3179L31.7831 32.3267ZM32.249 30.8501H32.539V32.6079H32.249V30.8501Z" fill="white"/>
<path fill-rule="evenodd" clip-rule="evenodd" d="M33.963 32.3177V32.6166H32.3282V32.3177H33.963ZM30.922 31.6234H31.2208V32.6166H30.922V31.6234Z" fill="white"/>
<path fill-rule="evenodd" clip-rule="evenodd" d="M33.7167 30.8501H34.0156V32.6079H33.7167V30.8501ZM32.9785 30.8501H33.2773V32.6079H32.9785V30.8501ZM29.041 31.5533V31.8521H27.4589V31.5533H29.041ZM32.4951 31.5533V31.8521H30.913V31.5533H32.4951Z" fill="white"/>
<path fill-rule="evenodd" clip-rule="evenodd" d="M30.922 31.6323H31.2208V32.6079H30.922V31.6323Z" fill="white"/>
<path fill-rule="evenodd" clip-rule="evenodd" d="M30.922 31.6323H31.2208V32.6079H30.922V31.6323Z" fill="white"/>
<path fill-rule="evenodd" clip-rule="evenodd" d="M30.9218 31.6323H31.2206V32.6079H30.9218V31.6323ZM27.4677 31.6323H27.7578V32.6079H27.4677V31.6323ZM29.999 31.6323H30.2978V32.6079H29.999V31.6323ZM28.7421 31.6323H29.041V32.6079H28.7333L28.7421 31.6323Z" fill="white"/>
<path fill-rule="evenodd" clip-rule="evenodd" d="M30.21 32.3181V32.617H28.874V32.3181H30.21ZM30.2978 31.5535V31.8523H29.4365V31.5535H30.2978Z" fill="white"/>
<path fill-rule="evenodd" clip-rule="evenodd" d="M-8.70825 0.000350952H70.0417V14.7836H-8.70825V0.000350952Z" fill="#239F40"/>
<path fill-rule="evenodd" clip-rule="evenodd" d="M34.5956 30.8501H38.9023V31.1402H34.5956V30.8501ZM35.2372 32.3267H35.5361V32.6167H35.2372V32.3267ZM38.9199 32.3267V32.6167H38.0497V32.3179L38.9199 32.3267ZM39.3857 30.8501H39.6757V32.6079H39.3857V30.8501Z" fill="white"/>
<path fill-rule="evenodd" clip-rule="evenodd" d="M41.0995 32.3177V32.6166H39.4647V32.3177H41.0995ZM38.0585 31.6234H38.3573V32.6166H38.0497L38.0585 31.6234Z" fill="white"/>
<path fill-rule="evenodd" clip-rule="evenodd" d="M40.8622 30.8501H41.1523V32.6079H40.8622V30.8501ZM40.1152 30.8501H40.414V32.6079H40.1152V30.8501ZM36.1777 31.5533V31.8521H34.5956V31.5533H36.1777ZM39.6318 31.5533V31.8521H38.0497V31.5533H39.6318Z" fill="white"/>
<path fill-rule="evenodd" clip-rule="evenodd" d="M38.0497 31.6323H38.3573V32.6079H38.0497V31.6323Z" fill="white"/>
<path fill-rule="evenodd" clip-rule="evenodd" d="M38.0497 31.6323H38.3573V32.6079H38.0497V31.6323Z" fill="white"/>
<path fill-rule="evenodd" clip-rule="evenodd" d="M38.0497 31.6323H38.3573V32.6079H38.0497V31.6323ZM34.6044 31.6323H34.9032V32.6079H34.6044V31.6323ZM37.1356 31.6323H37.4344V32.6079H37.1356V31.6323ZM35.8788 31.6323H36.1776V32.6079H35.8788V31.6323Z" fill="white"/>
<path fill-rule="evenodd" clip-rule="evenodd" d="M37.3464 32.3181V32.617H36.0105V32.3181H37.3464ZM37.4343 31.5535V31.8523H36.5906V31.5535H37.4343Z" fill="white"/>
<path fill-rule="evenodd" clip-rule="evenodd" d="M41.6883 30.8501H45.9949V31.1402H41.6883V30.8501ZM42.3299 32.3267H42.6287V32.6167H42.3299V32.3267ZM46.0213 32.3267V32.6167H45.1512V32.3179L46.0213 32.3267ZM46.4783 30.8501H46.7772V32.6079H46.4783V30.8501Z" fill="white"/>
<path fill-rule="evenodd" clip-rule="evenodd" d="M48.1921 32.3177V32.6166H46.5574V32.3177H48.1921ZM45.1511 31.6234H45.45V32.6166H45.1511V31.6234Z" fill="white"/>
<path fill-rule="evenodd" clip-rule="evenodd" d="M47.954 30.8502H48.244V32.608H47.954V30.8502ZM47.2069 30.8502H47.5057V32.608H47.2069V30.8502ZM43.2694 31.5533V31.8521H41.6962V31.5533H43.2694ZM46.7235 31.5533V31.8521H45.1503V31.5533H46.7235Z" fill="white"/>
<path fill-rule="evenodd" clip-rule="evenodd" d="M45.1511 31.6323H45.45V32.6079H45.1511V31.6323Z" fill="white"/>
<path fill-rule="evenodd" clip-rule="evenodd" d="M45.1511 31.6323H45.45V32.6079H45.1511V31.6323Z" fill="white"/>
<path fill-rule="evenodd" clip-rule="evenodd" d="M45.1512 31.6323H45.4501V32.6079H45.1512V31.6323ZM41.6971 31.6323H41.996V32.6079H41.6971V31.6323ZM44.2284 31.6323H44.5272V32.6079H44.2284V31.6323ZM42.9716 31.6323H43.2704V32.6079H42.9803L42.9716 31.6323Z" fill="white"/>
<path fill-rule="evenodd" clip-rule="evenodd" d="M44.4391 32.3181V32.617H43.112V32.3181H44.4391ZM44.527 31.5535V31.8523H43.6745V31.5535H44.527Z" fill="white"/>
<path fill-rule="evenodd" clip-rule="evenodd" d="M48.7899 30.8501H53.0966V31.1402H48.7899V30.8501ZM49.4315 32.3267H49.7303V32.6167H49.4315V32.3267ZM53.1141 32.3267V32.6167H52.2528V32.3179L53.1141 32.3267ZM53.5712 30.8501H53.87V32.6079H53.5712V30.8501Z" fill="white"/>
<path fill-rule="evenodd" clip-rule="evenodd" d="M55.2938 32.3177V32.6166H53.6591V32.3177H55.2938ZM52.244 31.6234H52.5428V32.6166H52.244V31.6234Z" fill="white"/>
<path fill-rule="evenodd" clip-rule="evenodd" d="M55.0477 30.8501H55.3466V32.6079H55.0477V30.8501ZM54.3094 30.8501H54.5995V32.6079H54.3094V30.8501ZM50.3719 31.5533V31.8521H48.7899V31.5533H50.3719ZM53.8261 31.5533V31.8521H52.244V31.5533H53.8261Z" fill="white"/>
<path fill-rule="evenodd" clip-rule="evenodd" d="M52.2527 31.6323H52.5427V32.6079H52.2527V31.6323Z" fill="white"/>
<path fill-rule="evenodd" clip-rule="evenodd" d="M52.2527 31.6323H52.5427V32.6079H52.2527V31.6323Z" fill="white"/>
<path fill-rule="evenodd" clip-rule="evenodd" d="M52.2528 31.6323H52.5428V32.6079H52.2528V31.6323ZM48.7899 31.6323H49.0887V32.6079H48.7899V31.6323ZM51.33 31.6323H51.62V32.6079H51.33V31.6323ZM50.0731 31.6323H50.3719V32.6079H50.0731V31.6323Z" fill="white"/>
<path fill-rule="evenodd" clip-rule="evenodd" d="M51.532 32.3181V32.617H50.2048V32.3181H51.532ZM51.6199 31.5535V31.8523H50.7761V31.5535H51.6199Z" fill="white"/>
<path fill-rule="evenodd" clip-rule="evenodd" d="M55.9267 30.8501H60.2333V31.1402H55.9267V30.8501ZM56.5683 32.3267H56.8671V32.6167H56.5683V32.3267ZM60.2509 32.3267V32.6167H59.3896V32.3179L60.2509 32.3267ZM60.7079 30.8501H61.0068V32.6079H60.7079V30.8501Z" fill="white"/>
<path fill-rule="evenodd" clip-rule="evenodd" d="M62.4305 32.3177V32.6166H60.7957V32.3177H62.4305ZM59.3895 31.6234H59.6795V32.6166H59.3895V31.6234Z" fill="white"/>
<path fill-rule="evenodd" clip-rule="evenodd" d="M62.1845 30.8501H62.4833V32.6079H62.1845V30.8501ZM61.4462 30.8501H61.7363V32.6079H61.4462V30.8501ZM57.5087 31.5533V31.8521H55.9267V31.5533H57.5087ZM60.9628 31.5533V31.8521H59.3808V31.5533H60.9628Z" fill="white"/>
<path fill-rule="evenodd" clip-rule="evenodd" d="M59.3895 31.6323H59.6795V32.6079H59.3895V31.6323Z" fill="white"/>
<path fill-rule="evenodd" clip-rule="evenodd" d="M59.3895 31.6323H59.6795V32.6079H59.3895V31.6323Z" fill="white"/>
<path fill-rule="evenodd" clip-rule="evenodd" d="M59.3893 31.6323H59.6794V32.6079H59.3893V31.6323ZM55.9352 31.6323H56.2253V32.6079H55.9352V31.6323ZM58.4665 31.6323H58.7653V32.6079H58.4665V31.6323ZM57.2097 31.6323H57.5085V32.6079H57.2097V31.6323Z" fill="white"/>
<path fill-rule="evenodd" clip-rule="evenodd" d="M58.6687 32.3181V32.617H57.3416V32.3181H58.6687ZM58.7566 31.5535V31.8523H57.9128V31.5535H58.7566Z" fill="white"/>
<path fill-rule="evenodd" clip-rule="evenodd" d="M6.26855 12.6037H10.5752V12.9026H6.26855V12.6037ZM6.91016 14.0979H7.20898V14.3791H6.91016V14.0979ZM10.5928 14.0803V14.3791H9.73145V14.0803H10.5928ZM11.0498 12.6037H11.3486V14.3791H11.0498V12.6037Z" fill="white"/>
<path fill-rule="evenodd" clip-rule="evenodd" d="M12.7724 14.0807V14.3795H11.1376V14.0807H12.7724ZM9.73138 13.3863H10.0126V14.3795H9.7226L9.73138 13.3863Z" fill="white"/>
<path fill-rule="evenodd" clip-rule="evenodd" d="M12.5264 12.6037H12.8252V14.3791H12.5264V12.6037ZM11.7881 12.6037H12.0781V14.3791H11.7881V12.6037ZM7.85059 13.3069V13.6057H6.26855V13.3156L7.85059 13.3069ZM11.3047 13.3069V13.6057H9.72266V13.3156L11.3047 13.3069Z" fill="white"/>
<path fill-rule="evenodd" clip-rule="evenodd" d="M9.73138 13.3863H10.0126V14.3795H9.7226L9.73138 13.3863Z" fill="white"/>
<path fill-rule="evenodd" clip-rule="evenodd" d="M9.73138 13.3863H10.0126V14.3795H9.7226L9.73138 13.3863Z" fill="white"/>
<path fill-rule="evenodd" clip-rule="evenodd" d="M9.73138 13.3863H10.0126V14.3795H9.7226L9.73138 13.3863ZM6.27728 13.3863H6.56732V14.3795H6.27728V13.3863ZM8.80853 13.3863H9.10736V14.3795H8.80853V13.3863ZM7.5517 13.3863H7.85053V14.3795H7.5517V13.3863Z" fill="white"/>
<path fill-rule="evenodd" clip-rule="evenodd" d="M9.01056 14.0801V14.3789H7.68341V14.0801H9.01056ZM9.09845 13.3154V13.6055H8.2547V13.3154H9.09845Z" fill="white"/>
<path fill-rule="evenodd" clip-rule="evenodd" d="M-0.815552 12.6037H3.49109V12.9026H-0.815552V12.6037ZM-0.173951 14.0979H0.124878V14.3791H-0.182739L-0.173951 14.0979ZM3.50867 14.0803V14.3791H2.64734V14.0803H3.50867ZM3.9657 12.6037H4.26453V14.3791H3.9657V12.6037Z" fill="white"/>
<path fill-rule="evenodd" clip-rule="evenodd" d="M5.68854 14.0807V14.3795H4.05377V14.0807H5.68854ZM2.64752 13.3863H2.93756V14.3795H2.64752V13.3863Z" fill="white"/>
<path fill-rule="evenodd" clip-rule="evenodd" d="M5.44226 12.6037H5.74109V14.3791H5.44226V12.6037ZM4.70398 12.6037H4.99402V14.3791H4.70398V12.6037ZM0.766479 13.3069V13.6057H-0.815552V13.3156L0.766479 13.3069ZM4.22058 13.3069V13.6057H2.63855V13.3156L4.22058 13.3069Z" fill="white"/>
<path fill-rule="evenodd" clip-rule="evenodd" d="M2.64752 13.3863H2.93756V14.3795H2.64752V13.3863Z" fill="white"/>
<path fill-rule="evenodd" clip-rule="evenodd" d="M2.64752 13.3863H2.93756V14.3795H2.64752V13.3863Z" fill="white"/>
<path fill-rule="evenodd" clip-rule="evenodd" d="M2.64752 13.3863H2.93756V14.3795H2.64752V13.3863ZM-0.80658 13.3863H-0.516541V14.3795H-0.80658V13.3863ZM1.72467 13.3863H2.01471V14.3795H1.72467V13.3863ZM0.467834 13.3863H0.766663V14.3795H0.467834V13.3863Z" fill="white"/>
<path fill-rule="evenodd" clip-rule="evenodd" d="M1.92664 14.0801V14.3789H0.608276V14.0801H1.92664ZM2.01453 13.3154V13.6055H1.17078V13.3154H2.01453Z" fill="white"/>
<path fill-rule="evenodd" clip-rule="evenodd" d="M13.291 12.6037H17.5976V12.9026H13.291V12.6037ZM13.9326 14.0979H14.2314V14.3791H13.9326V14.0979ZM17.6152 14.0803V14.3791H16.7538V14.0803H17.6152ZM18.081 12.6037H18.3798V14.3791H18.081V12.6037Z" fill="white"/>
<path fill-rule="evenodd" clip-rule="evenodd" d="M19.7949 14.0807V14.3795H18.1602V14.0807H19.7949ZM16.7539 13.3863H17.0527V14.3795H16.7539V13.3863Z" fill="white"/>
<path fill-rule="evenodd" clip-rule="evenodd" d="M19.5488 12.6037H19.8476V14.3791H19.5488V12.6037ZM18.8105 12.6037H19.1093V14.3791H18.8017L18.8105 12.6037ZM14.873 13.3069V13.6057H13.291V13.3156L14.873 13.3069ZM18.3271 13.3069V13.6057H16.7451V13.3156L18.3271 13.3069Z" fill="white"/>
<path fill-rule="evenodd" clip-rule="evenodd" d="M16.7539 13.3863H17.0527V14.3795H16.7539V13.3863Z" fill="white"/>
<path fill-rule="evenodd" clip-rule="evenodd" d="M16.7539 13.3863H17.0527V14.3795H16.7539V13.3863Z" fill="white"/>
<path fill-rule="evenodd" clip-rule="evenodd" d="M16.754 13.3863H17.0528V14.3795H16.754V13.3863ZM13.2999 13.3863H13.5987V14.3795H13.2999V13.3863ZM15.8311 13.3863H16.1299V14.3795H15.8311V13.3863ZM14.5743 13.3863H14.8731V14.3795H14.5743V13.3863Z" fill="white"/>
<path fill-rule="evenodd" clip-rule="evenodd" d="M16.0419 14.0801V14.3789H14.706V14.0801H16.0419ZM16.1298 13.3154V13.6055H15.2861V13.3154H16.1298Z" fill="white"/>
<path fill-rule="evenodd" clip-rule="evenodd" d="M20.3573 12.6037H24.6727V12.9026H20.3661L20.3573 12.6037ZM21.0077 14.0979H21.2977V14.3791H21.0077V14.0979ZM24.6815 14.0803V14.3791H23.8202V14.0803H24.6815ZM25.1473 12.6037H25.4462V14.3791H25.1473V12.6037Z" fill="white"/>
<path fill-rule="evenodd" clip-rule="evenodd" d="M26.8699 14.0807V14.3795H25.2351V14.0807H26.8699ZM23.8201 13.3863H24.1189V14.3795H23.8201V13.3863Z" fill="white"/>
<path fill-rule="evenodd" clip-rule="evenodd" d="M26.6229 12.6037H26.9218V14.3791H26.6229V12.6037ZM25.8759 12.6037H26.1747V14.3791H25.8759V12.6037ZM21.9384 13.3069V13.6057H20.3651V13.3157L21.9384 13.3069ZM25.3925 13.3069V13.6057H23.8192V13.3157L25.3925 13.3069Z" fill="white"/>
<path fill-rule="evenodd" clip-rule="evenodd" d="M23.8201 13.3863H24.1189V14.3795H23.8201V13.3863Z" fill="white"/>
<path fill-rule="evenodd" clip-rule="evenodd" d="M23.8201 13.3863H24.1189V14.3795H23.8201V13.3863Z" fill="white"/>
<path fill-rule="evenodd" clip-rule="evenodd" d="M23.8201 13.3863H24.119V14.3795H23.8201V13.3863ZM20.366 13.3863H20.6649V14.3795H20.366V13.3863ZM22.8973 13.3863H23.1961V14.3795H22.8973V13.3863ZM21.6492 13.3863H21.9393V14.3795H21.6492V13.3863Z" fill="white"/>
<path fill-rule="evenodd" clip-rule="evenodd" d="M23.1083 14.0801V14.3789H21.7811V14.0801H23.1083ZM23.1962 13.3154V13.6055H22.3524V13.3154H23.1962Z" fill="white"/>
<path fill-rule="evenodd" clip-rule="evenodd" d="M27.4589 12.6037H31.7656V12.9026H27.4589V12.6037ZM28.1005 14.0979H28.3994V14.3791H28.1005V14.0979ZM31.7831 14.0803V14.3791H30.9218V14.0803H31.7831ZM32.249 12.6037H32.539V14.3791H32.249V12.6037Z" fill="white"/>
<path fill-rule="evenodd" clip-rule="evenodd" d="M33.963 14.0807V14.3795H32.3282V14.0807H33.963ZM30.922 13.3863H31.2208V14.3795H30.922V13.3863Z" fill="white"/>
<path fill-rule="evenodd" clip-rule="evenodd" d="M33.7167 12.6037H34.0156V14.3791H33.7167V12.6037ZM32.9785 12.6037H33.2773V14.3791H32.9785V12.6037ZM29.041 13.3069V13.6057H27.4589V13.3156L29.041 13.3069ZM32.4951 13.3069V13.6057H30.913V13.3156L32.4951 13.3069Z" fill="white"/>
<path fill-rule="evenodd" clip-rule="evenodd" d="M30.922 13.3863H31.2208V14.3795H30.922V13.3863Z" fill="white"/>
<path fill-rule="evenodd" clip-rule="evenodd" d="M30.922 13.3863H31.2208V14.3795H30.922V13.3863Z" fill="white"/>
<path fill-rule="evenodd" clip-rule="evenodd" d="M30.9218 13.3863H31.2206V14.3795H30.9218V13.3863ZM27.4677 13.3863H27.7578V14.3795H27.4677V13.3863ZM29.999 13.3863H30.2978V14.3795H29.999V13.3863ZM28.7421 13.3863H29.041V14.3795H28.7333L28.7421 13.3863Z" fill="white"/>
<path fill-rule="evenodd" clip-rule="evenodd" d="M30.21 14.0801V14.3789H28.874V14.0801H30.21ZM30.2978 13.3154V13.6055H29.4365V13.3154H30.2978Z" fill="white"/>
<path fill-rule="evenodd" clip-rule="evenodd" d="M34.5956 12.6037H38.9023V12.9026H34.5956V12.6037ZM35.2372 14.0979H35.5361V14.3791H35.2372V14.0979ZM38.9199 14.0803V14.3791H38.0497V14.0803H38.9199ZM39.3857 12.6037H39.6757V14.3791H39.3857V12.6037Z" fill="white"/>
<path fill-rule="evenodd" clip-rule="evenodd" d="M41.0995 14.0807V14.3795H39.4647V14.0807H41.0995ZM38.0585 13.3863H38.3573V14.3795H38.0497L38.0585 13.3863Z" fill="white"/>
<path fill-rule="evenodd" clip-rule="evenodd" d="M40.8622 12.6037H41.1523V14.3791H40.8622V12.6037ZM40.1152 12.6037H40.414V14.3791H40.1152V12.6037ZM36.1777 13.3069V13.6057H34.5956V13.3156L36.1777 13.3069ZM39.6318 13.3069V13.6057H38.0497V13.3156L39.6318 13.3069Z" fill="white"/>
<path fill-rule="evenodd" clip-rule="evenodd" d="M38.0497 13.3863H38.3573V14.3795H38.0497V13.3863Z" fill="white"/>
<path fill-rule="evenodd" clip-rule="evenodd" d="M38.0497 13.3863H38.3573V14.3795H38.0497V13.3863Z" fill="white"/>
<path fill-rule="evenodd" clip-rule="evenodd" d="M38.0497 13.3863H38.3573V14.3795H38.0497V13.3863ZM34.6044 13.3863H34.9032V14.3795H34.6044V13.3863ZM37.1356 13.3863H37.4344V14.3795H37.1356V13.3863ZM35.8788 13.3863H36.1776V14.3795H35.8788V13.3863Z" fill="white"/>
<path fill-rule="evenodd" clip-rule="evenodd" d="M37.3464 14.0801V14.3789H36.0105V14.0801H37.3464ZM37.4343 13.3154V13.6055H36.5906V13.3154H37.4343Z" fill="white"/>
<path fill-rule="evenodd" clip-rule="evenodd" d="M41.6883 12.6037H45.9949V12.9026H41.6883V12.6037ZM42.3299 14.0979H42.6287V14.3791H42.3299V14.0979ZM46.0213 14.0803V14.3791H45.1512V14.0803H46.0213ZM46.4783 12.6037H46.7772V14.3791H46.4783V12.6037Z" fill="white"/>
<path fill-rule="evenodd" clip-rule="evenodd" d="M48.1921 14.0807V14.3795H46.5574V14.0807H48.1921ZM45.1511 13.3863H45.45V14.3795H45.1511V13.3863Z" fill="white"/>
<path fill-rule="evenodd" clip-rule="evenodd" d="M47.954 12.6037H48.244V14.3791H47.954V12.6037ZM47.2069 12.6037H47.5057V14.3791H47.2069V12.6037ZM43.2694 13.3069V13.6057H41.6962V13.3157L43.2694 13.3069ZM46.7235 13.3069V13.6057H45.1503V13.3157L46.7235 13.3069Z" fill="white"/>
<path fill-rule="evenodd" clip-rule="evenodd" d="M45.1511 13.3863H45.45V14.3795H45.1511V13.3863Z" fill="white"/>
<path fill-rule="evenodd" clip-rule="evenodd" d="M45.1511 13.3863H45.45V14.3795H45.1511V13.3863Z" fill="white"/>
<path fill-rule="evenodd" clip-rule="evenodd" d="M45.1512 13.3863H45.4501V14.3795H45.1512V13.3863ZM41.6971 13.3863H41.996V14.3795H41.6971V13.3863ZM44.2284 13.3863H44.5272V14.3795H44.2284V13.3863ZM42.9716 13.3863H43.2704V14.3795H42.9803L42.9716 13.3863Z" fill="white"/>
<path fill-rule="evenodd" clip-rule="evenodd" d="M44.4391 14.0801V14.3789H43.112V14.0801H44.4391ZM44.527 13.3154V13.6055H43.6745V13.3154H44.527Z" fill="white"/>
<path fill-rule="evenodd" clip-rule="evenodd" d="M48.7899 12.6037H53.0966V12.9026H48.7899V12.6037ZM49.4315 14.0979H49.7303V14.3791H49.4315V14.0979ZM53.1141 14.0803V14.3791H52.2528V14.0803H53.1141ZM53.5712 12.6037H53.87V14.3791H53.5712V12.6037Z" fill="white"/>
<path fill-rule="evenodd" clip-rule="evenodd" d="M55.2938 14.0807V14.3795H53.6591V14.0807H55.2938ZM52.244 13.3863H52.5428V14.3795H52.244V13.3863Z" fill="white"/>
<path fill-rule="evenodd" clip-rule="evenodd" d="M55.0477 12.6037H55.3466V14.3791H55.0477V12.6037ZM54.3094 12.6037H54.5995V14.3791H54.3094V12.6037ZM50.3719 13.3069V13.6057H48.7899V13.3156L50.3719 13.3069ZM53.8261 13.3069V13.6057H52.244V13.3156L53.8261 13.3069Z" fill="white"/>
<path fill-rule="evenodd" clip-rule="evenodd" d="M52.2527 13.3863H52.5427V14.3795H52.2527V13.3863Z" fill="white"/>
<path fill-rule="evenodd" clip-rule="evenodd" d="M52.2527 13.3863H52.5427V14.3795H52.2527V13.3863Z" fill="white"/>
<path fill-rule="evenodd" clip-rule="evenodd" d="M52.2528 13.3863H52.5428V14.3795H52.2528V13.3863ZM48.7899 13.3863H49.0887V14.3795H48.7899V13.3863ZM51.33 13.3863H51.62V14.3795H51.33V13.3863ZM50.0731 13.3863H50.3719V14.3795H50.0731V13.3863Z" fill="white"/>
<path fill-rule="evenodd" clip-rule="evenodd" d="M51.532 14.0801V14.3789H50.2048V14.0801H51.532ZM51.6199 13.3154V13.6055H50.7761V13.3154H51.6199Z" fill="white"/>
<path fill-rule="evenodd" clip-rule="evenodd" d="M55.9267 12.6037H60.2333V12.9026H55.9267V12.6037ZM56.5683 14.0979H56.8671V14.3791H56.5683V14.0979ZM60.2509 14.0803V14.3791H59.3896V14.0803H60.2509ZM60.7079 12.6037H61.0068V14.3791H60.7079V12.6037Z" fill="white"/>
<path fill-rule="evenodd" clip-rule="evenodd" d="M62.4305 14.0807V14.3795H60.7957V14.0807H62.4305ZM59.3895 13.3863H59.6795V14.3795H59.3895V13.3863Z" fill="white"/>
<path fill-rule="evenodd" clip-rule="evenodd" d="M62.1845 12.6037H62.4833V14.3791H62.1845V12.6037ZM61.4462 12.6037H61.7363V14.3791H61.4462V12.6037ZM57.5087 13.3069V13.6057H55.9267V13.3156L57.5087 13.3069ZM60.9628 13.3069V13.6057H59.3808V13.3156L60.9628 13.3069Z" fill="white"/>
<path fill-rule="evenodd" clip-rule="evenodd" d="M59.3895 13.3863H59.6795V14.3795H59.3895V13.3863Z" fill="white"/>
<path fill-rule="evenodd" clip-rule="evenodd" d="M59.3895 13.3863H59.6795V14.3795H59.3895V13.3863Z" fill="white"/>
<path fill-rule="evenodd" clip-rule="evenodd" d="M59.3893 13.3863H59.6794V14.3795H59.3893V13.3863ZM55.9352 13.3863H56.2253V14.3795H55.9352V13.3863ZM58.4665 13.3863H58.7653V14.3795H58.4665V13.3863ZM57.2097 13.3863H57.5085V14.3795H57.2097V13.3863Z" fill="white"/>
<path fill-rule="evenodd" clip-rule="evenodd" d="M58.6687 14.0801V14.3789H57.3416V14.0801H58.6687ZM58.7566 13.3154V13.6055H57.9128V13.3154H58.7566Z" fill="white"/>
<path fill-rule="evenodd" clip-rule="evenodd" d="M2.11987 29.8395H2.64722V30.7623H2.11987V29.8395ZM16.2263 29.8395H16.7537V30.7623H16.2263V29.8395ZM-8.70825 29.8395H-8.18091V30.7623H-8.70825V29.8395ZM-1.54517 29.8395H-1.01782V30.7623H-1.54517V29.8395ZM5.56518 29.8395H6.09253V30.7623H5.56518V29.8395ZM9.08081 29.8395H9.60815V30.7623H9.08081V29.8395ZM12.6755 29.8395H13.2029V30.7623H12.6755V29.8395ZM19.7419 29.8395H20.2693V30.7623H19.7419V29.8395ZM37.5837 29.8395H38.1199V30.7623H37.5925L37.5837 29.8395ZM23.3367 29.8395H23.864V30.7623H23.3367V29.8395ZM26.8523 29.8395H27.3796V30.7623H26.8523V29.8395ZM30.4119 29.8395H30.9392V30.7623H30.4119V29.8395ZM33.9626 29.8395H34.49V30.7623H33.9626V29.8395ZM62.3689 29.8395H62.8962V30.7623H62.3689V29.8395ZM41.0378 29.8395H41.5652V30.7623H41.0378V29.8395ZM44.6238 29.8395H45.1511V30.7623H44.6238V29.8395ZM48.2537 29.8395H48.781V30.7623H48.2537V29.8395ZM51.6638 29.8395H52.1912V30.7623H51.6638V29.8395ZM55.2937 29.8395H55.821V30.7623H55.2937V29.8395ZM58.8445 29.8395H59.3718V30.7623H58.8445V29.8395ZM69.365 29.8395H69.8923V30.7623H69.365V29.8395ZM65.9548 29.8395H66.4822V30.7623H65.9548V29.8395ZM-5.13989 29.8395H-4.61255V30.7623H-5.13989V29.8395Z" fill="#D90000"/>
<path fill-rule="evenodd" clip-rule="evenodd" d="M2.11987 14.291H2.64722V15.2139H2.11987V14.291ZM16.2263 14.291H16.7537V15.2139H16.2263V14.291ZM-8.70825 14.291H-8.18091V15.2139H-8.70825V14.291ZM-1.54517 14.291H-1.01782V15.2139H-1.54517V14.291ZM5.56518 14.291H6.09253V15.2139H5.56518V14.291ZM9.08081 14.291H9.60815V15.2139H9.08081V14.291ZM12.6755 14.291H13.2029V15.2139H12.6755V14.291ZM19.7419 14.291H20.2693V15.2139H19.7419V14.291ZM37.5837 14.291H38.1199V15.2139H37.5925L37.5837 14.291ZM23.3367 14.291H23.864V15.2139H23.3367V14.291ZM26.8523 14.291H27.3796V15.2139H26.8523V14.291ZM30.4119 14.291H30.9392V15.2139H30.4119V14.291ZM33.9626 14.291H34.49V15.2139H33.9626V14.291ZM62.3689 14.291H62.8962V15.2139H62.3689V14.291ZM41.0378 14.291H41.5652V15.2139H41.0378V14.291ZM44.6238 14.291H45.1511V15.2139H44.6238V14.291ZM48.2537 14.291H48.781V15.2139H48.2537V14.291ZM51.6638 14.291H52.1912V15.2139H51.6638V14.291ZM55.2937 14.291H55.821V15.2139H55.2937V14.291ZM58.8445 14.291H59.3718V15.2139H58.8445V14.291ZM69.365 14.291H69.8923V15.2139H69.365V14.291ZM65.9548 14.291H66.4822V15.2139H65.9548V14.291ZM-5.13989 14.291H-4.61255V15.2139H-5.13989V14.291Z" fill="#239E3F"/>
<path fill-rule="evenodd" clip-rule="evenodd" d="M32.7587 17.3586C33.4969 18.2726 35.7909 23.3 31.3788 26.6047C29.2958 28.1691 30.5878 28.2394 30.6493 28.5031C33.9891 26.7365 35.0702 24.3283 35.0438 22.175C35.0262 20.0304 33.8837 18.132 32.7587 17.3586Z" fill="#DA0000"/>
<path fill-rule="evenodd" clip-rule="evenodd" d="M33.1981 17.1214C34.0135 17.6176 34.7085 18.2888 35.2328 19.0865C35.7571 19.8842 36.0976 20.7884 36.2297 21.7338C36.3617 22.6792 36.282 23.6421 35.9964 24.5529C35.7107 25.4637 35.2262 26.2997 34.578 27.0003C36.9686 26.473 40.0272 19.4066 33.1981 17.1214ZM28.1356 17.1214C27.3208 17.6183 26.6265 18.2901 26.1031 19.0882C25.5796 19.8862 25.24 20.7906 25.1088 21.7359C24.9776 22.6813 25.0581 23.6439 25.3444 24.5544C25.6308 25.4648 26.1158 26.3002 26.7645 27.0003C24.3651 26.473 21.3153 19.4066 28.1356 17.1214Z" fill="#DA0000"/>
<path fill-rule="evenodd" clip-rule="evenodd" d="M28.5748 17.3586C27.8365 18.2726 25.5426 23.3 29.9547 26.6047C32.0289 28.1691 30.7457 28.2394 30.6842 28.5031C27.3443 26.7365 26.2633 24.3283 26.2897 22.175C26.3072 20.0304 27.4498 18.132 28.5748 17.3586Z" fill="#DA0000"/>
<path fill-rule="evenodd" clip-rule="evenodd" d="M34.9033 28.0463C33.5937 28.0638 31.9501 27.8705 30.7285 27.2289C30.9306 27.6244 31.0976 27.8705 31.2997 28.2572C32.4599 28.3714 34.0683 28.5033 34.9033 28.0463ZM26.5536 28.0463C27.8632 28.0638 29.5068 27.8705 30.7285 27.2289C30.5263 27.6244 30.3593 27.8705 30.1572 28.2572C28.997 28.3714 27.3886 28.5033 26.5536 28.0463ZM28.9531 15.8558C29.2167 16.5589 29.9111 16.6644 30.6494 16.2513C31.1943 16.5677 32.0292 16.5941 32.3193 15.891C32.539 17.6312 30.7109 17.2093 30.6494 16.8754C29.9638 17.5345 28.6982 17.1566 28.9531 15.8558Z" fill="#DA0000"/>
<path fill-rule="evenodd" clip-rule="evenodd" d="M30.7019 29.1448L31.3875 28.3537L31.4841 17.7981L30.6667 17.0774L29.8494 17.7629L30.0164 28.3977L30.7019 29.1448Z" fill="#DA0000"/>
</g>
<defs>
<clipPath id="clip0_152542_2267">
<rect width="60" height="45" fill="white" transform="translate(0.666748)"/>
</clipPath>
</defs>
</svg>
