<svg width="228" height="76" viewBox="0 0 228 76" fill="none" xmlns="http://www.w3.org/2000/svg">
<g clip-path="url(#clip0_152542_2300)">
<path d="M150.834 0.032959C148.846 0.032959 147.234 1.62425 147.234 3.58662C147.234 5.54921 148.846 7.14027 150.834 7.14027C152.821 7.14027 154.432 5.54921 154.432 3.58662C154.432 1.62425 152.821 0.032959 150.834 0.032959ZM159.164 8.40856C157.176 8.40856 155.565 9.99985 155.565 11.9622C155.565 13.925 157.176 15.5159 159.164 15.5159C161.152 15.5159 162.763 13.925 162.763 11.9622C162.763 9.99985 161.152 8.40856 159.164 8.40856ZM142.503 8.40856C140.516 8.40856 138.904 9.99985 138.904 11.9622C138.904 13.925 140.516 15.5159 142.503 15.5159C144.491 15.5159 146.102 13.925 146.102 11.9622C146.102 9.99985 144.491 8.40856 142.503 8.40856ZM150.834 8.40856C148.846 8.40856 147.234 9.99985 147.234 11.9622C147.234 13.925 148.846 15.5159 150.834 15.5159C152.821 15.5159 154.432 13.925 154.432 11.9622C154.432 9.99985 152.821 8.40856 150.834 8.40856ZM150.834 16.7843C148.846 16.7843 147.234 18.3756 147.234 20.3379C147.234 22.3006 148.846 23.8914 150.834 23.8914C152.821 23.8914 154.432 22.3006 154.432 20.3379C154.432 18.3756 152.821 16.7843 150.834 16.7843Z" fill="white"/>
<path d="M105.37 10.0608V5.23085H114.37L116.264 0.0330811H97.9436V23.8916H105.37V15.2747H110.715L112.616 10.0608H105.37ZM121.991 16.1016L124.86 6.16298L127.829 16.1016H121.991ZM121.117 0.0330811L112.424 23.8916H119.736L120.665 20.6866H129.057L130.027 23.8916H137.527L128.838 0.0330811H121.117ZM85.408 23.8916H92.8337V0.0330811H85.4075L85.408 23.8916ZM64.8146 23.8916H72.2408V15.2747H77.5867L79.487 10.0608H72.2408V5.23085H81.2411L83.1356 0.0330811H64.8146V23.8916ZM131.816 0.798536C131.861 0.686844 131.922 0.590248 131.999 0.508958C132.076 0.427453 132.166 0.36449 132.27 0.319425C132.373 0.274791 132.484 0.252151 132.603 0.252151C132.722 0.252151 132.833 0.274791 132.936 0.319425C133.04 0.36449 133.13 0.427453 133.207 0.508958C133.284 0.590248 133.345 0.686844 133.39 0.798536C133.435 0.910229 133.458 1.03162 133.458 1.16315C133.458 1.29468 133.435 1.41629 133.39 1.52777C133.345 1.63946 133.284 1.73605 133.207 1.81735C133.13 1.89885 133.04 1.96203 132.936 2.00688C132.833 2.05172 132.722 2.07415 132.603 2.07415C132.484 2.07415 132.373 2.05172 132.27 2.00688C132.166 1.96203 132.076 1.89885 131.999 1.81735C131.922 1.73605 131.861 1.63946 131.816 1.52777C131.771 1.41629 131.748 1.29468 131.748 1.16315C131.748 1.03162 131.771 0.910229 131.816 0.798536ZM131.805 1.96139C131.907 2.0638 132.026 2.14466 132.163 2.20396C132.3 2.26347 132.446 2.29323 132.603 2.29323C132.759 2.29323 132.906 2.26347 133.043 2.20396C133.179 2.14466 133.299 2.0638 133.401 1.96139C133.504 1.85918 133.585 1.73972 133.644 1.60302C133.704 1.46632 133.733 1.31969 133.733 1.16315C133.733 1.00661 133.704 0.859989 133.644 0.723285C133.585 0.586581 133.504 0.467127 133.401 0.364705C133.299 0.262717 133.179 0.181643 133.043 0.122132C132.906 0.0628356 132.759 0.0330811 132.603 0.0330811C132.446 0.0330811 132.3 0.0628356 132.163 0.122132C132.026 0.181643 131.907 0.262717 131.805 0.364705C131.702 0.467127 131.622 0.586581 131.562 0.723285C131.503 0.859989 131.473 1.00661 131.473 1.16315C131.473 1.31969 131.503 1.46632 131.562 1.60302C131.622 1.73972 131.702 1.85918 131.805 1.96139ZM132.406 0.699781H132.618C132.65 0.699781 132.681 0.70194 132.711 0.706036C132.741 0.710349 132.769 0.718542 132.794 0.731047C132.819 0.74377 132.839 0.76145 132.855 0.784305C132.871 0.807377 132.878 0.837565 132.878 0.875083C132.878 0.918855 132.871 0.953352 132.856 0.978365C132.842 1.00359 132.823 1.02214 132.799 1.03486C132.775 1.04736 132.747 1.05556 132.716 1.05987C132.684 1.06397 132.651 1.06612 132.616 1.06612H132.406V0.699781ZM132.406 1.24768H132.55L132.882 1.79859H133.126L132.781 1.23819C132.888 1.22784 132.97 1.19549 133.029 1.14116C133.087 1.08704 133.116 1.00446 133.116 0.893842C133.116 0.758431 133.076 0.661835 132.996 0.604264C132.915 0.546908 132.798 0.518229 132.644 0.518229H132.168V1.79859H132.406V1.24768Z" fill="white"/>
</g>
<path d="M0 53.6644C0 51.2699 0.349753 49.2137 1.04926 47.4959C1.74876 45.7781 2.71059 44.3726 3.93472 43.2795C5.188 42.1603 6.68903 41.3404 8.43779 40.8199C10.1866 40.2733 12.1102 40 14.2087 40C16.4821 40 18.4786 40.3123 20.1982 40.937C21.947 41.5356 23.4043 42.3815 24.5701 43.4747C25.736 44.5678 26.6104 45.8562 27.1933 47.3397C27.8054 48.8233 28.1114 50.45 28.1114 52.2199C28.1114 55.6034 27.2079 58.3754 25.4008 60.5356C23.6229 62.6699 21.2183 64.1925 18.1872 65.1034L24.2641 67.7582C25.6048 68.3569 26.4938 69.2288 26.931 70.374C27.3682 71.5192 27.1059 73.0678 26.144 75.0199L10.1866 67.8754C7.97145 66.9124 6.19354 65.9103 4.85282 64.8692C3.54125 63.8281 2.52114 62.7219 1.79248 61.5507C1.06383 60.3795 0.582922 59.1432 0.349753 57.8418C0.116584 56.5404 0 55.148 0 53.6644ZM13.2469 62.9562L15.1268 63.8151C16.0012 63.1123 16.7736 62.4226 17.4439 61.7459C18.1434 61.0692 18.7264 60.3534 19.1927 59.5986C19.659 58.8178 20.0088 57.9589 20.242 57.0219C20.5043 56.0589 20.6354 54.9397 20.6354 53.6644C20.6354 50.8274 20.0671 48.7322 18.9304 47.3788C17.7937 46.0253 16.1761 45.3486 14.0776 45.3486C11.979 45.3486 10.3469 46.0253 9.18102 47.3788C8.04432 48.7322 7.47597 50.8274 7.47597 53.6644C7.47597 54.9658 7.59255 56.0849 7.82572 57.0219C8.05889 57.9589 8.40864 58.7788 8.87498 59.4815C9.37047 60.1843 9.96796 60.8089 10.6675 61.3555C11.3961 61.9021 12.2559 62.4356 13.2469 62.9562Z" fill="white"/>
<path d="M29.6957 58.6617C29.6957 56.5014 30.0163 54.6795 30.6576 53.1959C31.3279 51.7123 32.246 50.5151 33.4119 49.6041C34.5777 48.6932 35.9621 48.0425 37.5652 47.6521C39.1682 47.2356 40.917 47.0274 42.8115 47.0274C44.1522 47.0274 45.4783 47.0664 46.7899 47.1445C48.1306 47.2226 49.4859 47.3137 50.8558 47.4178V66.9384H43.8607V61.5507C43.3944 62.6439 42.8843 63.5678 42.3306 64.3226C41.8059 65.0514 41.2376 65.65 40.6255 66.1185C40.0135 66.561 39.3577 66.8733 38.6582 67.0555C37.9587 67.2377 37.23 67.3288 36.4722 67.3288C35.3938 67.3288 34.432 67.1206 33.5867 66.7041C32.7415 66.2877 32.0274 65.7021 31.4445 64.9473C30.8616 64.1925 30.4244 63.2815 30.1329 62.2144C29.8415 61.1473 29.6957 59.963 29.6957 58.6617ZM39.3139 62.5658C40.0135 62.5658 40.6255 62.3185 41.1502 61.824C41.7039 61.3295 42.1848 60.6267 42.5929 59.7158C43.0009 58.7788 43.3652 57.6596 43.6859 56.3582C44.0065 55.0569 44.2979 53.5993 44.5602 51.9856C44.1522 51.9336 43.715 51.8945 43.2487 51.8685C42.8115 51.8164 42.3743 51.7904 41.9371 51.7904C39.926 51.7904 38.5124 52.1938 37.6963 53.0007C36.9094 53.7815 36.5159 54.9137 36.5159 56.3973C36.5159 57.2302 36.5742 58.024 36.6908 58.7788C36.8074 59.5075 36.9823 60.1582 37.2154 60.7308C37.4777 61.3034 37.7838 61.7589 38.1335 62.0973C38.4833 62.4096 38.8768 62.5658 39.3139 62.5658Z" fill="white"/>
<path d="M53.5602 52.1808C53.5602 51.8425 53.5602 51.4651 53.5602 51.0486C53.5893 50.6062 53.6184 50.1767 53.6476 49.7603C53.6767 49.3178 53.7205 48.9014 53.7787 48.511C53.837 48.0945 53.8953 47.7301 53.9536 47.4178H57.0577V44.6459C57.4657 44.2555 57.9466 43.8781 58.5004 43.5137C59.0833 43.1493 59.6808 42.811 60.2929 42.4986C60.9341 42.1863 61.5753 41.913 62.2165 41.6788C62.8869 41.4445 63.499 41.2753 64.0527 41.1712V47.8863C65.4518 47.7041 66.7342 47.587 67.9 47.5349C69.0659 47.4569 70.3046 47.4178 71.6161 47.4178C71.6161 47.8863 71.587 48.3158 71.5287 48.7062C71.4996 49.0966 71.4413 49.474 71.3538 49.8384C71.2664 50.2027 71.1644 50.5801 71.0478 50.9706C70.9312 51.3349 70.8001 51.7384 70.6543 52.1808C69.6342 52.1808 68.6141 52.1678 67.594 52.1418C66.603 52.1158 65.4226 52.0507 64.0527 51.9466V59.2473C64.0527 60.5486 64.4171 61.4336 65.1457 61.9021C65.9035 62.3445 66.7779 62.5658 67.7689 62.5658C68.993 62.5658 89.7824 62.8 91.1232 62.5658C91.1232 62.8781 92.0748 63.5257 92.0165 63.9422C91.9874 64.3326 90.6746 63.8831 90.5872 64.2995C90.4997 64.6899 92.9973 64.5569 92.9099 64.9473C92.8225 65.3117 95.3727 67.0685 95.2852 67.3288C94.6732 67.537 69.6824 67.3288 68.4317 67.3288C67.3597 67.3288 66.6322 67.3288 65.7578 67.3288C62.9306 67.3288 60.7738 66.7692 59.2874 65.65C57.8009 64.5048 57.0577 62.6699 57.0577 60.1452V52.1808H53.5602Z" fill="white"/>
<path d="M88.5088 58.6617C88.5088 56.5014 88.8294 54.6795 89.4706 53.1959C90.141 51.7123 91.059 50.5151 92.2249 49.6041C93.3907 48.6932 94.7752 48.0425 96.3782 47.6521C97.9812 47.2356 99.73 47.0274 101.625 47.0274C102.965 47.0274 104.291 47.0664 105.603 47.1445C106.944 47.2226 108.299 47.3137 109.669 47.4178V66.9384H102.674V61.5507C102.207 62.6439 101.697 63.5678 101.144 64.3226C100.619 65.0514 100.051 65.65 99.4385 66.1185C98.8265 66.561 98.1707 66.8733 97.4712 67.0555C96.7717 67.2377 96.043 67.3288 95.2852 67.3288C94.2068 67.3288 93.245 67.1206 92.3998 66.7041C91.5545 66.2877 90.8405 65.7021 90.2575 64.9473C89.6746 64.1925 89.2374 63.2815 88.946 62.2144C88.6545 61.1473 88.5088 59.963 88.5088 58.6617ZM98.127 62.5658C98.8265 62.5658 99.4386 62.3185 99.9632 61.824C100.517 61.3295 100.998 60.6267 101.406 59.7158C101.814 58.7788 102.178 57.6596 102.499 56.3582C102.819 55.0569 103.111 53.5993 103.373 51.9856C102.965 51.9336 102.528 51.8945 102.062 51.8685C101.624 51.8164 101.187 51.7904 100.75 51.7904C98.7391 51.7904 97.3255 52.1938 96.5094 53.0007C95.7224 53.7815 95.329 54.9137 95.329 56.3973C95.329 57.2302 95.3873 58.024 95.5038 58.7788C95.6204 59.5075 95.7953 60.1582 96.0285 60.7308C96.2908 61.3034 96.5968 61.7589 96.9466 62.0973C97.2963 62.4096 97.6898 62.5658 98.127 62.5658Z" fill="white"/>
<path d="M119.556 47.4178C119.76 48.7452 119.906 49.9295 119.994 50.9706C120.11 51.9856 120.169 53.0397 120.169 54.1329C121.276 51.7644 122.588 49.9945 124.103 48.8233C125.648 47.626 127.222 47.0274 128.825 47.0274C129 47.9123 129.131 48.9144 129.218 50.0336C129.306 51.1267 129.35 52.1938 129.35 53.2349C127.572 53.2349 126.1 53.3911 124.934 53.7034C123.797 54.0158 122.879 54.5754 122.18 55.3822C121.509 56.163 121.014 57.2432 120.693 58.6226C120.402 60.0021 120.227 61.7719 120.169 63.9322V66.9384H113.173V54.4452C113.173 53.0658 113.115 51.8425 112.999 50.7754C112.911 49.7082 112.824 48.589 112.736 47.4178H119.556Z" fill="white"/>
<path d="M131.092 61.863C133.598 60.1712 135.711 58.7007 137.431 57.4514C139.151 56.2021 140.535 55.0829 141.584 54.0938C142.634 53.1048 143.377 52.1938 143.814 51.361C144.28 50.5281 144.514 49.6952 144.514 48.8623C144.514 47.6651 144.091 46.7801 143.246 46.2075C142.401 45.6349 141.322 45.3486 140.011 45.3486C138.903 45.3486 137.679 45.4788 136.338 45.739C135.027 45.9993 133.671 46.3767 132.272 46.8712C132.156 46.5849 132.039 46.2206 131.923 45.7781C131.835 45.3096 131.748 44.8281 131.66 44.3336C131.573 43.813 131.5 43.3055 131.442 42.811C131.412 42.3164 131.398 41.887 131.398 41.5226C133.03 41.0021 134.706 40.6247 136.426 40.3904C138.145 40.1301 139.704 40 141.104 40C142.911 40 144.484 40.2082 145.825 40.6247C147.166 41.0151 148.273 41.5616 149.148 42.2644C150.051 42.9411 150.722 43.7479 151.159 44.6849C151.596 45.6219 151.815 46.624 151.815 47.6911C151.815 48.8884 151.552 50.0596 151.028 51.2048C150.532 52.35 149.687 53.4822 148.492 54.6014C147.326 55.6945 145.796 56.8007 143.902 57.9199C142.007 59.0391 139.661 60.1712 136.863 61.3165H152.427V66.9384H131.092V61.863Z" fill="white"/>
<path d="M154.484 53.6254C154.484 51.4391 154.776 49.5 155.359 47.8082C155.942 46.1164 156.772 44.6979 157.851 43.5527C158.958 42.3815 160.284 41.4966 161.829 40.8979C163.403 40.2993 165.166 40 167.119 40C169.072 40 170.821 40.2993 172.365 40.8979C173.939 41.4966 175.265 42.3815 176.344 43.5527C177.451 44.6979 178.297 46.1164 178.88 47.8082C179.463 49.5 179.754 51.4391 179.754 53.6254C179.754 55.8377 179.463 57.8028 178.88 59.5206C178.297 61.2123 177.451 62.6439 176.344 63.8151C175.265 64.9603 174.206 65.7289 172.598 66.8009C171.044 67.707 169.072 68.409 167.119 68.409C165.166 68.409 163.486 67.6943 161.878 66.8009C160.27 65.9076 158.79 64.8355 157.851 63.8151C156.772 62.6439 155.942 61.2123 155.359 59.5206C154.776 57.8028 154.484 55.8377 154.484 53.6254ZM167.119 62.5128C168.081 62.5128 168.883 62.2016 169.561 61.6194C170.312 60.9739 170.633 60.6243 171.141 59.7158C171.549 58.987 171.841 58.1151 172.016 57.1C172.191 56.0589 172.278 54.9007 172.278 53.6254C172.278 51.0747 171.885 49.0575 171.098 47.574C170.34 46.0904 169.014 45.3486 167.119 45.3486C165.225 45.3486 163.884 46.0904 163.097 47.574C162.339 49.0575 161.96 51.0747 161.96 53.6254C161.96 54.9007 162.048 56.0589 162.223 57.1C162.397 58.1151 162.689 58.987 163.097 59.7158C163.505 60.4445 164.022 61.0834 164.736 61.6194C165.451 62.1554 166.157 62.5128 167.119 62.5128Z" fill="white"/>
<path d="M182.172 61.863C184.679 60.1712 186.792 58.7007 188.511 57.4514C190.231 56.2021 191.615 55.0829 192.665 54.0938C193.714 53.1048 194.457 52.1938 194.894 51.361C195.361 50.5281 195.594 49.6952 195.594 48.8623C195.594 47.6651 195.171 46.7801 194.326 46.2075C193.481 45.6349 192.402 45.3486 191.091 45.3486C189.983 45.3486 188.759 45.4788 187.418 45.739C186.107 45.9993 184.751 46.3767 183.352 46.8712C183.236 46.5849 183.119 46.2206 183.003 45.7781C182.915 45.3096 182.828 44.8281 182.74 44.3336C182.653 43.813 182.58 43.3055 182.522 42.811C182.493 42.3164 182.478 41.887 182.478 41.5226C184.11 41.0021 185.786 40.6247 187.506 40.3904C189.225 40.1301 190.785 40 192.184 40C193.991 40 195.565 40.2082 196.905 40.6247C198.246 41.0151 199.354 41.5616 200.228 42.2644C201.131 42.9411 201.802 43.7479 202.239 44.6849C202.676 45.6219 202.895 46.624 202.895 47.6911C202.895 48.8884 202.632 50.0596 202.108 51.2048C201.612 52.35 200.767 53.4822 199.572 54.6014C198.406 55.6945 196.876 56.8007 194.982 57.9199C193.087 59.0391 190.741 60.1712 187.943 61.3165H203.507V66.9384H182.172V61.863Z" fill="white"/>
<path d="M206.294 61.863C208.801 60.1712 210.914 58.7007 212.634 57.4514C214.353 56.2021 215.738 55.0829 216.787 54.0938C217.836 53.1048 218.579 52.1938 219.017 51.361C219.483 50.5281 219.716 49.6952 219.716 48.8623C219.716 47.6651 219.293 46.7801 218.448 46.2075C217.603 45.6349 216.525 45.3486 215.213 45.3486C214.105 45.3486 212.881 45.4788 211.541 45.739C210.229 45.9993 208.874 46.3767 207.475 46.8712C207.358 46.5849 207.242 46.2206 207.125 45.7781C207.038 45.3096 206.95 44.8281 206.863 44.3336C206.775 43.813 206.702 43.3055 206.644 42.811C206.615 42.3164 206.6 41.887 206.6 41.5226C208.233 41.0021 209.908 40.6247 211.628 40.3904C213.348 40.1301 214.907 40 216.306 40C218.113 40 219.687 40.2082 221.028 40.6247C222.368 41.0151 223.476 41.5616 224.35 42.2644C225.254 42.9411 225.924 43.7479 226.361 44.6849C226.799 45.6219 227.017 46.624 227.017 47.6911C227.017 48.8884 226.755 50.0596 226.23 51.2048C225.735 52.35 224.89 53.4822 223.695 54.6014C222.529 55.6945 220.999 56.8007 219.104 57.9199C217.21 59.0391 214.863 60.1712 212.065 61.3165H227.629V66.9384H206.294V61.863Z" fill="white"/>
<rect x="167.595" y="51.7925" width="4.80621" height="5.05889" rx="2.24413" transform="rotate(45 167.595 51.7925)" fill="white"/>
<defs>
<clipPath id="clip0_152542_2300">
<rect width="98" height="24" fill="white" transform="translate(64.8146)"/>
</clipPath>
</defs>
</svg>
