<svg width="350" height="420" viewBox="0 0 350 420" fill="none" xmlns="http://www.w3.org/2000/svg">
<path d="M169.93 144.655C160.27 128.448 151.35 113.445 145.626 99.0377C143.728 93.1951 142.237 87.4415 141.315 81.9281C138.069 66.1465 139.425 56.8773 145.455 44.1042C145.583 43.837 145.719 43.5621 145.858 43.2872C148.728 41.6495 152.683 40.124 157.214 39.6787C167.312 38.6836 184.459 41.2429 191.016 59.6805C197.934 79.1597 183.165 117.138 169.93 144.655ZM232.294 34.8079C231.635 33.5418 229.191 28.9615 228.351 27.3934C228.192 27.103 228.087 26.9133 228.064 26.8707C217.397 7.29089 217.037 11.0001 210.379 9.82306C210.131 9.78046 209.875 9.71466 209.627 9.65271C202.043 7.90652 189.01 2.96994 182.642 0.631348C176.062 -1.77692 158.744 3.40356 147.566 4.50317C144.723 4.77808 142.519 5.30078 140.761 5.98608C135.621 7.98007 134.343 11.3679 132.22 14.144C130.981 15.7702 130.113 16.2619 128.963 16.5329C128.94 16.5368 128.909 16.5368 128.893 16.5446C120.198 19.6614 99.654 44.9947 104.093 79.9534C104.41 83.3839 105.131 86.7253 106.056 89.9969C114.551 123.546 142.976 168.541 149.956 181.31C144.812 193.142 133.835 217.438 130.334 240.321C130.191 241.095 129.342 246.353 129.288 250.767C128.823 262.398 131.004 273.041 137.751 280.684C137.794 280.731 139.076 282.105 139.134 282.167C142.585 285.567 146.652 287.727 150.746 289.024C156.54 291.518 160.948 290.124 165.213 289.4C167.114 290.554 169.105 291.444 171.131 292.137C183.324 296.35 196.966 292.97 203.356 289.4C211.928 286.616 215.836 281.586 218.284 273.789C220.751 266.444 224.528 251.456 215.979 229.274C212.141 219.695 204.418 204.704 192.519 182.913L192.442 182.785C201.981 164.739 227.526 120.085 232.073 107.037C232.321 106.348 232.534 105.682 232.747 105.016C240.47 85.2617 245.513 59.1307 232.294 34.8079Z" fill="white"/>
<path d="M162.68 205.167C159.926 199.858 153.899 188.293 152.614 185.544C138.608 212.825 135.153 243.122 134.932 251.927C135.079 258.695 134.932 268.959 144.507 273.33C157.211 256.035 134.932 230.194 162.68 205.167Z" fill="#ACA9A6"/>
<path d="M194.834 114.186C198.11 97.9206 206.279 84.0517 195.907 61.4441C187.362 42.8323 172.655 36.1727 157.209 39.6806H157.213C167.318 38.6855 184.469 41.2371 191.019 59.6824C197.936 79.1616 183.167 117.14 169.933 144.657C169.63 145.304 169.301 145.951 168.991 146.593C175.425 157.756 180.689 167.362 186.971 178.706C186.971 178.706 195.438 165.046 198.955 158.859C191.743 142.156 192.789 124.319 194.834 114.186Z" fill="#ACA9A6"/>
<path d="M234.964 61.1375C234.957 60.576 234.957 60.003 234.945 59.4648V59.3719C234.941 59.128 234.93 58.9112 234.93 58.6711C234.841 56.2357 234.67 54.1294 234.438 52.3871C234.19 50.6719 233.892 49.3942 233.617 48.4805C232.393 44.8138 229.457 40.4309 226.095 36.2145C219.518 27.9636 211.307 20.3826 211.051 20.1426C210.532 20.371 210.001 20.6459 209.451 20.9634C202.437 25.1604 202.6 30.8598 178.241 19.1978C174.561 17.4362 168.809 18.5512 165.591 18.7642C190.221 37.0508 217.252 36.2687 234.964 61.1375Z" fill="#BCBAB7"/>
<path d="M216.067 129.965C217.008 128.544 217.861 127.224 218.624 126.023C219.534 124.533 220.397 123.007 221.215 121.462C221.587 120.762 221.947 120.053 222.299 119.341C232.3 99.2187 235.104 75.7399 234.961 61.1354C222.427 24.7325 185.883 40.9671 174.178 18.2704C173.984 18.2821 165.219 18.7931 165.033 18.8125C165.606 19.5443 166.199 20.2644 166.823 20.9846C171.463 26.2812 182.331 37.0294 194.021 39.7707C205.718 42.5158 215.525 44.2194 225.394 58.913C235.263 73.6182 224.767 94.3363 215.525 114.683C211.838 122.798 211.47 130.952 210.931 139.002C212.434 136.926 212.759 134.51 214.541 132.118C215.06 131.413 215.568 130.693 216.067 129.965Z" fill="#CCC9C6"/>
<path d="M225.396 58.9173C215.523 44.216 205.72 42.5124 194.022 39.7711C182.329 37.0338 171.464 26.2778 166.824 20.9812C166.201 20.2688 165.608 19.5409 165.035 18.8168C156.971 19.6028 150.502 26.061 146.137 35.3069C144.638 38.4857 143.383 41.9897 142.396 45.6989C145.626 42.9035 151.091 40.2784 157.215 39.6821C172.654 36.1703 187.368 42.8299 195.909 61.4495C206.285 84.0493 198.112 97.926 194.832 114.184C192.787 124.316 191.745 142.154 198.953 158.857C201.459 154.447 204.166 148.349 210.933 139.006C211.471 130.949 211.835 122.795 215.523 114.687C224.768 94.3368 235.261 73.6148 225.396 58.9173Z" fill="#BBB8B5"/>
<path d="M165.597 18.759C165.404 18.7707 165.218 18.7979 165.028 18.8056C156.964 19.6032 150.503 26.0497 146.13 35.3034C144.635 38.486 143.376 41.9861 142.396 45.703C143.369 44.8628 144.527 44.0421 145.851 43.2871C148.729 41.6532 152.684 40.1238 157.216 39.6786C167.313 38.6874 184.468 41.2427 191.014 59.6765C197.935 79.1595 183.166 117.138 169.931 144.655C176.357 155.818 180.296 162.896 187.578 174.778C187.578 174.778 219.064 126.791 219.42 126.078C229.417 105.956 234.987 81.2776 233.495 61.5041C231.117 29.7939 211.305 20.3815 211.05 20.1453C210.531 20.3698 209.996 20.6486 209.45 20.9622C202.44 25.1632 202.258 31.8653 177.899 20.2072C175.292 18.9527 171.818 18.6506 168.874 18.6506C167.662 18.6506 166.535 18.6971 165.597 18.759Z" fill="url(#paint0_linear_152542_2307)"/>
<path d="M155.413 182.692C144.509 197.893 127.773 279.132 152.105 276.286C190.303 270.939 160.475 193.053 155.413 182.692Z" fill="#9A9794"/>
<path d="M165.597 18.7591C165.404 18.7707 165.218 18.7979 165.028 18.8056C156.964 19.6032 150.503 26.0498 146.13 35.3034C144.635 38.4861 143.376 41.9861 142.396 45.7031C143.369 44.8629 144.527 44.0422 145.851 43.2872C148.729 41.6533 152.684 40.1239 157.216 39.6786C167.313 38.6874 184.468 41.2428 191.014 59.6765C197.935 79.1595 183.166 117.138 169.931 144.655C176.357 155.818 181.892 167.217 188.186 178.557C188.186 178.557 221.949 120.058 222.298 119.341C232.302 99.2157 236.598 75.6556 234.967 61.1362C233.302 46.3807 230.416 41.0995 226.791 35.6596C225.524 33.7546 211.305 20.3815 211.05 20.1453C210.531 20.3699 209.996 20.6487 209.45 20.9623C202.44 25.1632 202.258 31.8653 177.899 20.2072C175.292 18.9528 171.818 18.6506 168.874 18.6506C167.662 18.6506 166.535 18.6971 165.597 18.7591Z" fill="url(#paint1_linear_152542_2307)"/>
<g opacity="0.279999">
<path d="M180.908 28.648C170.524 28.7564 162.929 32.1364 162.681 34.5486C211.189 36.136 215.082 70.0609 167.662 155.787C149.682 188.291 142.54 218.174 142.451 238.249V239.004C142.505 251.661 145.421 260.284 150.201 262.998C151.839 263.927 153.594 264.365 155.329 264.392H155.627C163.13 264.287 170.075 256.412 165.206 246.349C159.148 233.835 164.265 208.022 179.762 179.823C195.255 151.613 249.414 74.0683 216.066 42.5633C204.977 32.0861 192.195 28.7525 181.919 28.648H180.908Z" fill="url(#paint2_linear_152542_2307)"/>
</g>
<g opacity="0.330002">
<path d="M158.376 33.5103C161.106 32.6237 163.957 32.132 166.808 31.8338C169.67 31.528 172.559 31.4776 175.433 31.6673C181.185 32.0507 186.952 33.4561 192.108 36.2516C197.271 39.0161 201.648 43.2247 204.804 48.2C206.361 50.7012 207.639 53.3651 208.701 56.1102C209.677 58.8747 210.513 61.6856 211.094 64.5663C213.461 76.1198 212.376 88.0837 209.975 99.4708C207.535 110.9 203.774 121.974 199.386 132.676C195.032 143.404 189.958 153.762 184.803 164.002L176.959 179.261L169.267 194.501C164.317 204.692 159.534 214.952 156.226 225.63C155.389 228.298 154.7 230.993 154.158 233.722C153.577 236.433 153.162 239.186 153.015 241.942C152.678 247.46 153.29 253.085 155.505 258.336L154.839 258.688C151.617 253.813 150.029 247.862 149.665 241.954C149.266 236.03 149.982 230.098 151.171 224.349C152.314 218.576 154.076 212.985 155.978 207.487C157.88 201.981 160.111 196.623 162.411 191.318C171.707 170.155 182.649 150.056 192.352 129.582C194.745 124.448 197.124 119.318 199.227 114.087C201.369 108.868 203.332 103.583 204.917 98.1969C208.108 87.4642 209.917 76.1508 208.279 65.0696C207.918 62.3051 207.167 59.5948 206.361 56.9272C205.463 54.2904 204.355 51.7273 202.988 49.3035C200.195 44.4947 196.233 40.3596 191.391 37.5061C186.569 34.6332 181.015 33.0225 175.371 32.4224C172.544 32.1242 169.689 32.0584 166.842 32.2404C164 32.4301 161.153 32.8018 158.395 33.5762L158.376 33.5103Z" fill="#797775"/>
</g>
<g opacity="0.550003">
<path d="M129.727 245.435C129.727 262.107 137.462 271.857 143.628 275.814C145.6 277.08 148.927 277.966 152.455 278.04H153.389C154.83 278.009 156.286 277.843 157.684 277.502C167.189 275.186 174.386 265.654 174.552 247.917V246.639C174.486 239.554 173.328 231.206 170.799 221.546C169.955 218.313 163.207 203.685 161.867 201.095C159.113 195.791 152.777 183.308 151.487 180.559C140.468 205.459 129.948 236.615 129.727 245.435Z" fill="url(#paint3_linear_152542_2307)"/>
</g>
<g opacity="0.440002">
<path d="M146.13 35.3035C144.635 38.4862 143.384 41.9862 142.396 45.7032C143.361 44.863 144.531 44.0423 145.855 43.2873C148.729 41.6534 152.684 40.124 157.208 39.6787C167.313 38.6875 184.46 41.2429 191.017 59.6766C197.935 79.1596 183.166 117.138 169.931 144.655C176.357 155.818 182.306 166.167 188.585 177.508C188.585 177.508 221.949 120.058 222.298 119.342C232.302 99.2197 241.66 61.5041 226.097 36.2134C220.566 27.2269 212.63 20.4861 212.367 20.2499C211.329 20.4048 209.996 20.6488 209.45 20.9624C202.44 25.1633 204.876 28.5743 180.052 17.9422C178.023 17.0711 175.885 16.6839 173.715 16.6839C162.251 16.6839 149.806 27.5289 146.13 35.3035Z" fill="url(#paint4_linear_152542_2307)"/>
</g>
<g opacity="0.440002">
<path d="M173.762 18.4496C165.686 18.5077 156.642 25.1016 153.276 28.8767C149.364 33.2712 143.384 41.9865 142.396 45.7034C145.627 42.9118 151.088 40.2791 157.208 39.679C167.313 38.6878 184.46 41.2431 191.017 59.6769C197.935 79.1599 183.166 117.139 169.931 144.656C169.622 145.302 169.304 145.953 168.99 146.592C167.662 148.95 152.037 178.987 151.487 180.559C141.835 208.39 132.496 236.906 132.276 245.722C132.276 260.818 137.628 277.761 152.641 277.998H153.276C154.667 277.978 156.131 277.816 157.684 277.502C171.969 274.587 175.521 251.259 173.375 239.241C173.375 239.241 168.766 219.711 168.549 219.305C168.549 219.305 196.909 162.458 198.954 158.858C201.448 154.448 221.949 120.058 222.298 119.342C232.302 99.2199 235.924 75.7101 234.963 61.1366C234.626 56.0064 229.456 40.4339 226.097 36.2136C219.517 27.9628 209.996 20.649 209.45 20.9626C202.44 25.1636 203.544 28.6289 178.247 19.1971C176.896 18.6938 175.474 18.4612 174.018 18.4496H173.762Z" fill="url(#paint5_linear_152542_2307)"/>
</g>
<path d="M156.944 36.9531C155.631 37.0886 151.045 37.983 148.257 38.9084L146.75 41.2158L145.851 43.2873C148.729 41.6534 152.684 40.124 157.215 39.6788C167.313 38.6876 184.468 41.2429 191.013 59.6767C197.935 79.1597 183.166 117.138 169.931 144.655C169.645 145.256 169.35 145.848 169.064 146.444C171.194 148.233 172.871 149.592 172.871 149.592C173.27 148.934 173.514 148.392 173.87 147.714C187.496 119.326 200.836 79.121 193.601 58.7669C190.785 50.8567 185.92 44.9329 179.138 41.1695C178.712 40.9372 176.136 39.6943 175.242 39.3536C174.808 39.1755 174.374 39.0129 173.936 38.858C173.088 38.5638 170.45 37.8434 170.016 37.7467C168.366 37.3672 166.655 37.0962 164.919 36.9413C163.626 36.8174 162.305 36.7633 161 36.7633C159.632 36.7633 158.261 36.8214 156.944 36.9531Z" fill="url(#paint6_linear_152542_2307)"/>
<path d="M187.581 174.778C186.519 173 185.888 172.025 185.884 172.021C185.485 171.347 185.11 170.708 184.722 170.062C170.035 143.664 154.22 120.677 145.622 99.0408C143.728 93.1982 142.237 87.4408 141.311 81.9351C138.069 66.1458 139.425 56.8766 145.455 44.1073C151.253 31.8181 168.788 16.4818 178.599 21.1784C199.754 31.3032 202.57 26.4169 207.671 22.2586C207.83 22.1386 208.229 21.8443 208.392 21.6933C208.504 21.6082 209.151 21.19 209.259 21.1125C264.724 63.7297 205.266 146.099 187.581 174.778ZM153.74 274.647C152.28 274.876 150.882 274.915 149.545 274.775C147.334 274.481 145.118 273.614 143 272.154C140.033 270.11 137.829 267.09 136.694 263.671C133.251 253.36 133.971 232.847 152.392 186.397C154.309 190.571 156.114 194.497 156.908 196.107C167.568 217.67 170.128 237.447 170.139 249.256C168.989 264.12 161.824 273.134 153.74 274.647ZM232.294 34.8072C231.635 33.545 229.195 28.9684 228.351 27.3926C228.192 27.0984 228.087 26.9087 228.064 26.8661C217.397 7.29013 217.037 11.0071 210.371 9.83005C210.135 9.78745 209.875 9.7139 209.627 9.65582C202.043 7.91348 189.002 2.96918 182.635 0.638336C176.062 -1.77383 158.744 3.40283 147.566 4.49854C144.715 4.78119 142.519 5.29999 140.761 5.98145C135.621 7.97931 134.343 11.3672 132.22 14.1432C130.981 15.7655 130.105 16.265 128.959 16.5283C128.94 16.536 128.909 16.536 128.893 16.5477C120.198 19.6606 99.654 44.9978 104.093 79.9488C104.403 83.3792 105.131 86.7245 106.053 90.0001C114.551 123.546 142.976 168.548 149.956 181.309C144.812 193.146 133.835 217.437 130.334 240.316C130.191 241.09 129.342 246.36 129.288 250.758V250.766C128.82 262.397 130.996 273.048 137.751 280.687C137.794 280.73 139.076 282.108 139.138 282.17C142.581 285.562 146.652 287.73 150.75 289.031C156.54 291.521 160.948 290.123 165.205 289.395C167.114 290.557 169.105 291.44 171.135 292.136C183.324 296.353 196.966 292.965 203.356 289.395C211.928 286.615 215.828 281.586 218.284 273.792C220.751 266.451 224.528 251.455 215.983 229.277C212.137 219.695 204.418 204.699 192.519 182.912L192.442 182.784C201.978 164.738 227.522 120.088 232.077 107.036C232.321 106.351 232.534 105.685 232.747 105.023C240.47 85.2648 245.513 59.1261 232.294 34.8072Z" fill="#EFECE8"/>
<path d="M209.316 140.389C208.514 141.682 206.469 144.741 203.924 148.512C197.58 159.241 191.549 168.339 187.587 174.767C188.876 176.846 191.75 181.527 192.978 183.757C192.819 183.474 192.672 183.2 192.521 182.913L192.44 182.785C193.052 181.631 193.733 180.361 194.469 178.995C194.496 171.739 206.844 146.026 209.316 140.389Z" fill="#DAD7D3"/>
<path d="M182.555 5.43026C177.872 2.92132 171.896 3.12265 166.198 4.11771C164.459 4.42359 160.303 5.22118 160.303 5.22118C160.303 5.22118 168.704 7.28487 175.412 9.65442C179.735 11.3077 186.986 14.107 195.724 9.49955L195.887 9.12398C191.858 8.69421 187.005 7.81531 182.555 5.43026Z" fill="#BBB8B5"/>
<path d="M155.217 7.41464C153.296 8.17739 151.615 8.84713 150.422 9.50534C134.658 18.244 130.18 26.8937 129.433 27.5945C128.983 30.6378 128.294 32.9726 127.953 36.6741C130.87 38.1763 145.011 35.4234 154.411 28.0244C155.577 27.0487 156.805 26.1156 158.083 25.229C158.579 24.8456 159.032 24.6132 159.412 24.3267C159.474 24.3035 159.528 24.1836 159.586 24.1603C164.962 19.3593 171.287 7.58895 177.201 10.4967C177.674 10.729 178.143 10.9419 178.6 11.1355C177.903 10.7328 177.201 10.3341 176.493 9.9508C172.255 7.67803 167.77 6.02084 162.898 6.02084C160.446 6.02084 157.889 6.44281 155.217 7.41464Z" fill="url(#paint7_linear_152542_2307)"/>
<path d="M131.907 17.1806C131.206 18.9268 130.625 20.611 130.23 22.7715C129.955 24.2544 129.692 25.8728 129.436 27.6035C139.375 15.2756 149.391 10.0022 150.429 9.51048C151.591 8.93745 154.783 6.74986 156.2 6.28137C145.417 9.2046 139.398 13.5991 132.957 15.5467C132.67 15.8061 132.074 16.7701 131.907 17.1806Z" fill="#F6F2EE"/>
<path d="M184.713 21.4537C168.236 12.2194 159.742 23.9627 159.738 23.9666C159.688 23.982 159.637 24.1447 159.591 24.164C153.734 29.3987 147.874 36.6932 145.45 44.1078C151.256 31.8147 168.79 16.4784 178.601 21.1788C201.802 32.2794 202.967 25.3604 209.261 21.113C204.664 23.8891 200.86 30.4983 184.713 21.4537Z" fill="#EBE7E3"/>
<path d="M207.64 21.9307C196.826 26.4529 189.525 17.5903 178.602 11.1399C178.142 10.9385 177.677 10.7333 177.204 10.4933C169.617 6.71438 156.846 26.7511 156.877 26.7356C159.318 24.9391 168.238 12.2201 184.714 21.4544C200.858 30.499 203.263 25.3611 207.652 22.2714C207.873 22.1204 209.263 21.1137 209.263 21.1137C209.263 21.1137 207.861 21.7603 207.652 21.9229L207.64 21.9307Z" fill="#FFFBF7"/>
<path d="M154.411 28.0241C145.003 35.1753 130.869 38.1721 127.956 36.6776C126.674 50.8059 123.599 69.0731 126.729 89.7138C128.096 98.7275 129.924 108.322 131.442 117.816C127.585 87.4914 126.767 51.0885 154.411 28.0241Z" fill="#EFECE8"/>
<path d="M140.761 5.98476C135.621 7.98263 134.343 11.3666 132.22 14.1427C130.973 15.7689 130.105 16.2683 128.959 16.5316C129.745 16.3651 130.675 16.1444 131.732 15.885C134.602 15.1649 137.035 14.1001 139.881 12.8456C142.496 11.6918 145.455 10.3832 149.255 8.83443C151.366 7.97488 155.828 6.35259 158.179 5.71761C160.561 5.07101 166.75 4.01788 167.087 3.95205C167.087 3.95205 169.465 3.64618 170.236 3.53003C170.015 3.54551 144.045 5.02842 140.761 5.98476Z" fill="#EFECE8"/>
<path d="M169.587 3.57024C169.037 3.60896 144.043 5.02977 140.762 5.98611C135.626 7.98397 134.344 11.3719 132.221 14.1402C130.974 15.7703 130.107 16.2697 128.964 16.533C129.746 16.3665 130.676 16.1498 131.726 15.8826C134.6 15.1663 137.036 14.0977 139.883 12.8393C142.493 11.6894 145.456 10.3885 149.26 8.83586C151.363 7.97632 155.825 6.34625 158.172 5.71127C160.562 5.07242 166.511 4.03863 167.084 3.95733C167.875 3.84504 169.467 3.64367 170.237 3.53526C170.017 3.54301 169.8 3.55088 169.587 3.57024Z" fill="url(#paint8_linear_152542_2307)"/>
<path d="M207.008 283.044C206.753 283.582 206.551 284.051 206.288 284.515C205.386 286.285 204.406 287.927 203.356 289.398C211.978 286.595 215.836 281.666 218.283 273.787C209.15 283.373 207.008 283.044 207.008 283.044Z" fill="#D2CFCB"/>
<path d="M186.973 285.673C180.105 282.664 174.586 288.565 171.135 292.143C183.328 296.351 196.965 292.967 203.36 289.394C204.402 287.926 205.386 286.288 206.288 284.519C202.682 290.513 193.615 288.584 186.973 285.673Z" fill="#DEDBD7"/>
<path d="M165.867 275.451C169.345 268.606 171.189 256.205 170.139 249.258C168.973 264.076 161.808 273.132 153.744 274.646C152.284 274.878 150.878 274.913 149.549 274.774C147.334 274.48 145.122 273.616 142.996 272.156C142.643 271.913 142.306 271.649 141.973 271.382C135.818 269.551 130.864 264.339 129.408 257.958C129.397 257.893 129.369 257.838 129.358 257.776C129.42 258.814 129.517 259.848 129.641 260.866L129.664 261.087C130.043 264.169 130.682 267.127 131.635 269.911C138.417 282.188 157.935 291.063 165.867 275.451Z" fill="#EBE7E3"/>
<path d="M153.74 274.647C152.28 274.879 150.882 274.914 149.546 274.774C147.338 274.48 145.119 273.617 143 272.157C141.377 271.034 139.979 269.625 138.855 268.006C133.29 262.245 130.222 251.969 129.73 244.992L129.711 244.737V244.741V244.737V244.748C129.502 246.599 129.312 248.771 129.289 250.765V250.773C129.118 254.997 129.3 259.09 129.92 262.961C129.943 263.031 129.955 263.105 129.966 263.186C136.129 274.898 153.229 286.58 164.613 266.853C161.653 271.216 157.811 273.884 153.74 274.647Z" fill="#F2EFEA"/>
<path d="M228.067 26.868C217.4 7.28815 217.039 11.0012 210.374 9.82807C201.349 10.312 191.263 16.6076 178.601 11.1406C196.422 21.8036 211.431 -1.19889 228.311 27.321C228.322 27.3442 228.52 27.7159 228.535 27.7391C228.462 27.6114 228.407 27.4952 228.346 27.3945C228.194 27.1003 228.09 26.9106 228.067 26.868Z" fill="#E7E4E0"/>
<path d="M209.261 21.1093C209.361 21.0473 209.474 20.9815 209.578 20.9157C213.579 18.2829 221.388 16.8929 228.352 27.3894C218.123 10.0746 208.59 11.6659 198.702 13.2649C192.245 14.3103 185.638 15.3519 178.6 11.1355C188.512 17.5201 199.783 26.9867 209.261 21.1093Z" fill="url(#paint9_linear_152542_2307)"/>
<path d="M150.75 289.028C155.232 286.228 159.054 282.314 162.095 277.772C153.624 285.555 135.284 283.03 129.897 262.815C130.977 269.649 133.425 275.786 137.752 280.684C137.794 280.734 139.076 282.109 139.138 282.167C142.582 285.566 146.652 287.727 150.75 289.028Z" fill="#CCC9C6"/>
<path d="M182.638 0.63563C176.062 -1.77652 158.748 3.40786 147.566 4.49971C144.719 4.77848 142.515 5.30505 140.765 5.98262C147.376 4.54617 147.833 5.97488 167.203 3.81053C167.3 3.79504 169.744 3.55886 170.368 3.52401C174.721 3.24137 179.013 3.53563 182.553 5.43282C187.004 7.81399 191.202 8.82067 195.234 9.25431C200.25 9.78863 205.006 9.42467 209.623 9.65698C202.047 7.91079 189.006 2.96647 182.638 0.63563Z" fill="#F2EFEA"/>
<path d="M177.554 0.00776291C169.401 0.131661 156.522 3.62409 147.567 4.50299C144.716 4.77789 142.516 5.30444 140.762 5.98589C147.447 4.64623 148.121 5.97059 167.208 3.81011C167.298 3.79462 169.749 3.55839 170.361 3.51968C174.723 3.24091 179.006 3.53509 182.55 5.42841C187.001 7.81733 191.203 8.81635 195.231 9.24612C198.256 9.57523 201.181 9.57526 204.047 9.56751C205.933 9.56751 207.789 9.56741 209.628 9.65259C202.041 7.91027 189.003 2.97377 182.643 0.635186C181.512 0.224772 180.083 0.0348654 178.414 0.00776291H177.554Z" fill="url(#paint10_linear_152542_2307)"/>
<path d="M195.23 9.2505L194.704 9.51766C187.484 13.4127 180.814 11.6046 176.495 9.9513C177.2 10.3307 177.909 10.7257 178.599 11.1438C191.26 16.6108 201.346 10.3075 210.371 9.82353C210.135 9.78094 209.875 9.71512 209.627 9.65317C205.01 9.42086 200.254 9.78869 195.23 9.2505Z" fill="#EBE7E3"/>
<path d="M209.315 230.192C201.116 194.025 183.276 170.477 167.562 151.184C154.222 134.821 146.968 117.174 143.629 101.206C143.958 104.869 144.26 108.71 144.508 112.62C147.549 134.802 155.822 161.15 180.161 190.963C202.278 218.046 206.96 221.74 209.315 230.192Z" fill="#FFFBF7"/>
<path d="M228.761 28.1587C228.761 28.1665 229.016 28.7511 229.016 28.7511C229.078 28.8905 230.55 32.3635 230.604 32.4991C234.714 42.1399 230.465 50.081 229.652 51.4478C235.582 72.4214 229.365 96.419 219.736 118.233C215.541 127.789 215.696 136.353 214.48 142.393C214.492 142.362 214.511 142.331 214.523 142.308C222.521 127.521 229.834 113.459 232.076 107.039C232.32 106.35 232.533 105.684 232.746 105.018C240.466 85.2643 245.513 59.1295 232.297 34.8105C231.72 33.7109 229.807 30.1179 228.761 28.1587Z" fill="#EBE7E3"/>
<path d="M209.262 21.114C215.103 25.6053 219.158 30.902 222.636 36.1638C221.455 27.82 219.348 19.5382 212.365 20.2467C211.485 20.3435 210.668 20.5023 209.831 20.8507C209.804 20.8585 209.731 20.7462 209.262 21.114Z" fill="#DEDBD7"/>
<path d="M230.785 32.3214C230.731 32.1859 226.633 26.2426 224.301 23.8692C221.737 21.0931 218.019 19.4398 214.765 19.525C211.767 19.6024 210.59 20.4039 209.66 20.8608C209.513 20.9266 209.343 21.0621 209.265 21.1163C219.258 18.2473 221.164 27.9075 222.639 36.1584C225.85 41.0175 228.155 46.1438 229.654 51.4714C230.223 50.4028 234.472 41.8112 230.785 32.3214Z" fill="#CCC9C6"/>
<path d="M171.134 292.138C175.476 288.592 179.051 284.724 183.626 284.875C180.333 284.735 168.051 287.372 165.205 289.397C167.118 290.551 169.109 291.441 171.134 292.138Z" fill="#D2CFCB"/>
<path d="M213.11 254.729C212.983 251.353 212.603 248.012 211.979 244.782C210.736 238.348 208.478 232.358 205.004 227.456C192.195 209.398 161.495 176.104 153.532 150.167C155.844 166.424 151.901 185.973 158.416 195.575C160.632 198.429 162.774 201.244 164.819 204.001C180.443 222.64 198.628 233.45 198.055 259.89C197.749 273.899 193.035 278.897 186.145 285.355C186.412 285.444 186.687 285.549 186.974 285.673C193.624 288.569 202.684 290.509 206.286 284.519C210.938 275.424 213.587 267.003 213.11 254.729Z" fill="#EFECE8"/>
<path d="M199.251 262.132C203.384 228.125 183.743 209.908 165.031 188.474C162.866 186.066 156.614 183.324 159.066 188.97C169.629 205.568 176.674 221.671 178.347 228.369C188.212 267.905 177.375 280.411 165.209 289.401C168.052 287.372 180.338 284.735 183.623 284.879C184.428 284.902 185.265 285.053 186.144 285.355C191.749 280.097 195.657 277.332 197.865 268.962C198.178 267.8 198.457 266.507 198.74 265.078C198.922 264.157 199.123 263.181 199.251 262.132Z" fill="#E7E4E0"/>
<path d="M184.821 237.278C180.254 218.996 169.428 190.456 150.217 165.537C149.922 166.428 148.226 171.806 146.82 175.805C148.098 178.009 149.167 179.867 149.953 181.307C150.941 183.22 151.576 184.548 152.39 186.399C154.307 190.573 156.116 194.499 156.906 196.109C167.569 217.672 170.125 237.445 170.137 249.258C170.931 264.064 163.518 281.053 150.747 289.025C156.542 291.523 160.95 290.125 165.21 289.397C175.606 285.614 194.686 276.818 184.821 237.278Z" fill="#F2EFEA"/>
<path d="M119.924 27.5097C107.034 45.1226 103.846 73.6813 108.997 88.8395C115.578 108.218 118.522 117.801 134.778 143.726C136.273 146.108 126.353 106.476 124.184 96.8348C122.201 88.0148 116.182 51.9757 128.91 23.5682C130.091 20.9314 131.439 18.0276 132.957 15.5497C127.848 18.229 123.51 22.6157 119.924 27.5097Z" fill="url(#paint11_linear_152542_2307)"/>
<path d="M160.606 18.813C154.695 21.6588 149.586 25.8868 145.287 30.6763C140.976 35.4812 137.633 41.0644 135.294 47.0154C130.631 58.9832 130.274 72.2132 132.315 84.8818C134.237 97.6434 138.846 109.979 141.472 122.984C142.804 129.466 143.548 136.129 143.335 142.762C143.106 149.39 141.94 155.965 139.903 162.202C141.177 155.763 141.851 149.243 141.588 142.762C141.394 136.28 140.298 129.88 138.768 123.581C137.2 117.289 135.282 111.052 133.396 104.756C131.568 98.4449 129.86 92.0254 128.822 85.4316C127.822 78.8457 127.424 72.1281 127.962 65.4375C128.283 62.1 128.744 58.7703 129.565 55.5102C130.344 52.2462 131.386 49.0287 132.761 45.9661C135.441 39.8022 139.287 34.1687 144.044 29.4915C148.823 24.8802 154.374 20.9541 160.606 18.813Z" fill="#CCC9C6"/>
<path d="M147.208 175.29C148.521 171.794 149.362 168.162 149.761 164.476C150.082 160.782 150.164 157.073 149.889 153.368C149.498 145.953 148.363 138.581 147.251 131.209C146.178 123.829 144.939 116.465 143.943 109.066C142.894 101.675 142.545 94.2565 141.836 86.8226L148.583 131.008C149.695 138.391 150.729 145.814 150.981 153.321C151.128 157.073 150.907 160.836 150.458 164.561C149.823 168.27 148.82 171.914 147.208 175.29Z" fill="#CCC9C6"/>
<path d="M128.649 24.1629C127.208 28.8633 125.906 33.5985 124.954 38.3996C123.931 43.1929 123.18 48.0327 122.707 52.8957C121.727 62.6179 121.727 72.4368 122.738 82.1474C123.687 91.8695 125.957 101.414 128.381 110.915C129.578 115.677 130.876 120.416 131.964 125.225C132.983 130.03 133.955 134.92 133.808 139.857C133.583 134.936 132.46 130.146 131.178 125.415C129.908 120.68 128.49 115.979 127.134 111.256C124.392 101.816 122.157 92.1599 121.049 82.3255C120.542 77.4044 120.321 72.4601 120.383 67.5196C120.449 62.5792 120.705 57.6387 121.351 52.7447C121.994 47.843 122.916 42.9916 124.101 38.206C125.345 33.4398 126.824 28.7355 128.649 24.1629Z" fill="#CCC9C6"/>
<path d="M119.437 28.2092C117.276 32.294 115.812 36.6924 114.619 41.1373C113.438 45.586 112.613 50.1199 111.958 54.6654C110.726 63.7758 110.583 73.0179 111.532 82.1283C112.477 91.2387 114.658 100.229 118.302 108.604C120.165 112.754 122.269 116.897 124.341 120.978C126.378 125.094 128.729 129.047 130.921 133.143C129.45 131.347 128.059 129.5 126.707 127.607C125.394 125.702 124.12 123.75 122.923 121.76C121.757 119.747 120.634 117.714 119.588 115.647C118.527 113.602 117.52 111.488 116.59 109.339C112.922 100.744 110.784 91.5523 109.894 82.2948C108.972 73.0217 109.475 63.6674 110.897 54.5067C111.637 49.9302 112.659 45.3885 114.026 40.963C115.397 36.5453 117.04 32.1624 119.437 28.2092Z" fill="#DEDBD7"/>
<path d="M129.433 27.6016C133.658 21.1821 139.495 15.9319 145.844 11.5645C149.043 9.39624 152.498 7.56487 156.204 6.27942C157.541 5.83416 158.896 5.44698 160.306 5.22241C160.856 5.12949 161.437 5.08302 161.999 5.04431C163.006 4.99784 164.025 4.97849 165.039 5.14885C166.07 5.27275 167.053 5.60185 167.956 5.91159C175.342 8.54056 181.741 12.9544 188.213 16.9386C191.455 18.9248 194.763 20.8336 198.353 21.9758C200.135 22.5488 202.01 22.9012 203.884 22.7734C205.759 22.6572 207.614 22.092 209.264 21.1163C207.711 22.2391 205.863 22.9825 203.927 23.2187C201.986 23.4781 200.015 23.2303 198.129 22.7579C194.348 21.7551 190.913 19.9044 187.558 18.0498C180.881 14.2902 174.548 9.8957 167.406 7.51066C166.496 7.22414 165.659 6.93763 164.788 6.81373C163.916 6.65499 163.006 6.66273 162.1 6.68596C160.287 6.78663 158.463 7.20091 156.696 7.7662C153.141 8.91613 149.798 10.7281 146.568 12.6912C143.345 14.6774 140.293 16.9579 137.423 19.4475C134.518 21.9022 131.807 24.6009 129.433 27.6016Z" fill="#CCC9C6"/>
<path d="M209.262 21.1141C210.788 19.8635 212.74 19.0349 214.801 18.8916C216.85 18.7445 218.945 19.2285 220.777 20.1616C224.035 21.811 226.444 24.1535 228.342 27.3942C228.396 27.4871 228.597 27.851 228.775 28.1918C228.892 28.4086 229 28.6215 229.062 28.7377C231.107 32.5205 232.42 36.1832 232.579 40.2022C232.784 44.2056 231.874 48.1936 229.659 51.4769C231.417 48.0504 232.033 44.105 231.684 40.2641C231.301 36.4194 230.038 32.687 228.082 29.3727C226.149 26.07 223.492 23.1352 220.196 21.2728C218.546 20.3591 216.71 19.7977 214.824 19.7396C212.93 19.6854 211.009 20.1693 209.262 21.1141Z" fill="#BBB8B5"/>
<path d="M151.528 164.753C153.353 173.236 156.172 181.467 160.142 189.122C162.083 192.974 164.287 196.683 166.711 200.246L170.422 205.577L172.273 208.272C172.885 209.17 173.435 210.123 174.02 211.036C176.371 214.711 178.378 218.586 180.291 222.512C182.096 226.485 183.641 230.577 184.846 234.778C185.996 238.983 186.852 243.273 187.236 247.613C187.654 251.95 187.72 253.777 187.561 258.102C187.457 253.77 187.263 251.958 186.659 247.679C186.089 243.393 185.199 239.161 183.94 235.042C182.658 230.922 180.996 226.934 179.214 223.016C177.293 219.159 175.283 215.338 172.92 211.722C172.335 210.816 171.778 209.89 171.173 209L169.318 206.344C168.098 204.578 166.82 202.797 165.619 200.985C163.206 197.349 161.01 193.563 159.093 189.648C155.282 181.792 152.702 173.352 151.528 164.753Z" fill="#CCC9C6"/>
<path d="M149.116 141.375C149.771 147.233 151.301 152.952 153.055 158.562C154.818 164.168 156.933 169.666 159.412 174.982C164.385 185.611 170.733 195.662 178.944 204.013C181.009 206.054 183.166 208.176 185.095 210.429C187.036 212.686 188.802 215.091 190.417 217.596C193.639 222.598 196.107 228.092 197.702 233.823C200.383 243.44 200.735 253.596 199.07 263.361C198.744 265.239 198.338 267.113 197.865 268.963C199.019 263.175 199.593 257.294 199.387 251.428C199.232 245.566 198.353 239.723 196.668 234.128C194.964 228.541 192.574 223.156 189.363 218.273C187.764 215.838 186.009 213.492 184.092 211.296C182.175 209.074 180.083 207.095 177.98 204.954C169.726 196.394 163.269 186.226 158.482 175.416C156.096 169.999 154.063 164.424 152.432 158.744C151.63 155.898 150.929 153.033 150.336 150.137C149.755 147.245 149.252 144.321 149.116 141.375Z" fill="#D2CFCB"/>
<path d="M219.412 126.082C222.484 120.12 225.005 113.936 227.213 107.664C229.425 101.396 231.257 94.9955 232.732 88.518C234.185 82.0443 235.211 75.4699 235.622 68.8491C235.784 65.5425 235.792 62.2089 235.432 58.9217L235.176 56.4437L234.661 54.0084L234.413 52.7849C234.309 52.3783 234.138 51.9989 234.014 51.604L233.216 49.2228C236.354 55.2086 237.109 62.1857 237.094 68.8878C237.094 72.2679 236.853 75.6403 236.42 78.9933C236.013 82.3385 235.44 85.6644 234.704 88.9593C233.282 95.5492 231.291 102.007 228.809 108.268C226.307 114.51 223.239 120.565 219.412 126.082Z" fill="#FFFBF7"/>
<path d="M146.308 123.705C146.072 122.571 145.925 121.936 145.925 121.936C145.925 121.936 146.053 122.563 146.308 123.705ZM145.441 173.427C146.08 174.527 146.603 175.39 147.153 176.373C147.408 176.83 147.691 177.307 147.951 177.76C169.773 215.893 203.981 243.712 184.758 273.82C183.042 276.511 181.288 279.271 178.282 281.954C181.756 279.093 184.476 279.434 186.904 279.782C189.46 280.146 191.707 280.514 194.201 277.126C194.906 276.17 195.847 274.625 196.653 272.627C197.087 271.578 197.474 270.42 197.865 268.961C197.865 268.961 208.354 283.112 218.603 272.832C222.054 261.349 223.429 244.049 208.11 225.251C190.68 203.864 179.816 201.703 165.737 177.597C154.601 158.54 147.927 130.911 146.308 123.705C147.943 131.499 153.838 162.83 145.441 173.427Z" fill="url(#paint12_linear_152542_2307)"/>
<path d="M125.052 36.2677C121.919 50.0669 119.951 70.2816 123.092 90.9223C124.459 99.9475 131.145 119.651 132.659 129.149C128.813 98.8285 114.385 40.8093 160.608 18.8057C149.601 21.5354 127.965 37.7545 125.052 36.2677Z" fill="url(#paint13_linear_152542_2307)"/>
<path d="M177.554 0.00787354C169.401 0.131775 156.522 3.62421 147.567 4.50311C144.716 4.77802 142.516 5.30457 140.762 5.98599C135.626 7.98386 134.344 11.3718 132.221 14.1401C130.974 15.7702 130.107 16.2696 128.964 16.5328C128.937 16.5367 128.91 16.5368 128.89 16.5484C120.195 19.6653 99.655 45.0024 104.09 79.9534C104.408 83.3838 105.132 86.7252 106.058 89.9968C114.544 123.546 142.977 168.541 149.957 181.31C144.813 193.142 133.837 217.438 130.335 240.317C130.188 241.095 129.344 246.353 129.289 250.755C128.817 262.402 131.001 273.041 137.756 280.684C137.795 280.735 139.077 282.113 139.135 282.171C142.578 285.567 146.653 287.727 150.743 289.028H150.747C156.542 291.514 160.957 290.124 165.206 289.4C167.116 290.554 169.106 291.444 171.132 292.137C183.325 296.35 196.963 292.97 203.358 289.4C211.929 286.616 215.837 281.579 218.285 273.789C220.752 266.448 224.529 251.456 215.984 229.278C212.134 219.695 204.419 204.704 192.512 182.917L192.439 182.785C201.975 164.739 227.523 120.093 232.074 107.037C232.318 106.348 232.535 105.682 232.748 105.016C240.467 85.2617 245.514 59.123 232.295 34.8118C231.636 33.5379 229.196 28.9731 228.352 27.3895C228.197 27.103 228.092 26.9134 228.065 26.8708C217.398 7.28711 217.038 11.0001 210.372 9.82309C210.132 9.78824 209.876 9.71466 209.628 9.65271C202.041 7.91037 189.003 2.97388 182.643 0.635284C181.512 0.224884 180.083 0.0349731 178.414 0.00787354H177.554ZM185.881 172.018C185.486 171.344 185.107 170.709 184.723 170.059C170.036 143.668 154.221 120.677 145.627 99.0454C143.725 93.199 142.238 87.4417 141.312 81.932C138.07 66.1505 139.422 56.8736 145.456 44.112C151.255 31.819 168.789 16.4826 178.6 21.1753C189.387 26.3403 195.321 27.5599 199.236 27.0837C202.997 26.6191 204.864 24.5709 207.363 22.5266C207.882 22.0736 209.152 21.1945 209.26 21.1094C215.121 25.6201 219.16 30.8858 222.646 36.1515C252.207 80.7897 203.404 149.128 187.578 174.778C186.513 172.997 185.889 172.022 185.881 172.018ZM149.543 274.772C147.331 274.482 145.119 273.611 142.993 272.159C140.034 270.11 137.826 267.086 136.687 263.675C133.252 253.353 133.972 232.844 152.389 186.402C154.314 190.568 156.123 194.497 156.906 196.108C167.565 217.67 170.125 237.444 170.141 249.261C168.99 264.117 161.821 273.134 153.737 274.648C152.85 274.788 151.983 274.853 151.134 274.853C150.596 274.853 150.065 274.822 149.543 274.772Z" fill="url(#paint14_linear_152542_2307)"/>
<path d="M177.964 0.00390625C169.838 0.0116577 156.669 3.60852 147.567 4.50293C144.716 4.77783 142.516 5.30438 140.762 5.98581C135.626 7.98367 134.344 11.3716 132.221 14.14C130.974 15.77 130.107 16.2694 128.964 16.5327C128.937 16.5365 128.91 16.5367 128.89 16.5482C120.195 19.6651 99.655 45.0022 104.09 79.9532C104.408 83.3836 105.132 86.725 106.058 89.9967C114.544 123.546 142.977 168.541 149.957 181.31C144.813 193.142 133.837 217.438 130.335 240.317C130.188 241.095 129.344 246.353 129.289 250.763C128.817 262.401 131.001 273.041 137.756 280.684C137.795 280.734 139.077 282.113 139.135 282.171C142.578 285.567 146.653 287.727 150.743 289.028H150.747C156.542 291.514 160.957 290.124 165.206 289.4C167.116 290.554 169.106 291.444 171.132 292.137C175.273 293.566 179.576 294.12 183.709 294.096C191.746 294.038 199.14 291.754 203.358 289.4C211.929 286.616 215.837 281.579 218.285 273.789C220.752 266.448 224.529 251.456 215.984 229.278C212.134 219.695 204.419 204.703 192.512 182.917L192.439 182.785C201.975 164.739 227.523 120.092 232.074 107.037C232.318 106.347 232.535 105.682 232.748 105.016C240.467 85.2616 245.514 59.1228 232.295 34.8116C231.636 33.5455 229.196 28.9729 228.352 27.3893C228.197 27.1028 228.092 26.9132 228.065 26.8706C217.398 7.28693 217.038 10.9999 210.372 9.82291C210.132 9.78806 209.876 9.71448 209.628 9.65253C202.041 7.91019 189.003 2.97369 182.643 0.635101C181.435 0.193726 179.866 0.00390625 178.046 0.00390625H177.964ZM185.881 172.018C185.486 171.344 185.107 170.709 184.723 170.058C170.036 143.668 154.221 120.677 145.627 99.0453C143.725 93.1988 142.238 87.4415 141.312 81.9319C138.07 66.1503 139.422 56.8734 145.456 44.1119C151.255 31.8188 168.789 16.4825 178.6 21.1751C189.387 26.3401 195.321 27.5598 199.236 27.0835C202.997 26.6189 204.864 24.5707 207.363 22.5264C207.882 22.0734 209.152 21.1944 209.26 21.1092C215.121 25.6199 219.16 30.8856 222.646 36.1513C252.207 80.7895 203.404 149.127 187.578 174.778C186.513 172.997 185.889 172.021 185.881 172.018ZM149.543 274.772C147.331 274.482 145.119 273.61 142.993 272.158C140.034 270.11 137.826 267.086 136.687 263.675C133.252 253.353 133.972 232.844 152.389 186.401C154.314 190.568 156.123 194.497 156.906 196.108C167.565 217.67 170.125 237.444 170.141 249.26C168.99 264.117 161.821 273.134 153.737 274.648C152.85 274.787 151.983 274.853 151.134 274.853C150.596 274.853 150.065 274.822 149.543 274.772Z" fill="url(#paint15_linear_152542_2307)"/>
<path d="M175.502 253.525C175.777 239.935 173.205 226.531 168.944 213.784C164.66 201.015 158.665 188.885 151.728 177.343C148.28 171.543 144.682 165.739 141.309 159.858C137.935 153.961 134.623 148.037 131.478 142.012C125.188 129.983 119.274 117.709 114.835 104.862C117.581 111.073 120.513 117.155 123.701 123.137C126.819 129.143 130.072 135.074 133.395 140.975C140.026 152.784 147.01 164.341 154.067 175.945C161.031 187.657 167.004 200.051 170.935 213.153C172.914 219.689 174.386 226.383 175.207 233.155C176.001 239.923 176.148 246.776 175.502 253.525Z" fill="#E1DEDA"/>
<g opacity="0.429993">
<path d="M123.696 123.136C126.814 129.137 130.076 135.077 133.391 140.974C134.758 143.405 136.137 145.829 137.536 148.245C141.54 154.622 146.022 161.188 150.937 167.558C173.483 196.805 187.652 226.599 177.438 255.351C175.583 260.586 176.516 263.041 178.867 263.141H179.177C185.661 262.878 201.483 246.554 201.739 221.98V220.78C201.564 203.898 194.015 183.262 171.272 161.32C135.917 134.477 114.838 104.869 114.838 104.869C117.581 111.075 120.509 117.158 123.696 123.136Z" fill="url(#paint16_linear_152542_2307)"/>
</g>
<path d="M152.39 186.399C151.576 184.549 150.941 183.22 149.954 181.308C144.814 193.144 133.837 217.44 130.332 240.318C130.192 241.093 129.344 246.362 129.29 250.768C129.367 251.554 129.483 252.294 129.634 252.971C132.725 266.306 137.536 268.575 139.538 268.916C138.287 267.367 137.327 265.59 136.692 263.673C133.252 253.359 133.969 232.842 152.39 186.399Z" fill="#F2EFEA"/>
<path d="M215.984 229.274C212.138 219.699 204.423 204.704 192.516 182.909L192.443 182.789C192.443 182.789 184.727 170.063 184.72 170.059C170.036 143.668 154.225 120.681 145.623 99.0379C143.729 93.1992 142.234 87.4418 141.312 81.9322C141.304 81.9089 141.304 81.8896 141.3 81.8663C141.293 81.8276 141.289 81.7966 141.277 81.7657C142.114 87.1243 141.897 92.6726 143.624 101.21C146.971 117.177 154.225 134.821 167.557 151.188C183.279 170.473 201.119 194.029 209.319 230.192C210.372 234.842 211.949 245.211 212.572 254.829C213.324 266.425 211.154 274.521 207.014 283.058C207.115 283.201 209.605 286.516 216.821 276.445C217.402 275.566 217.863 274.675 218.285 273.789C220.752 266.448 224.533 251.46 215.984 229.274Z" fill="#FFFBF7"/>
<path d="M114.16 54.2253C114.16 60.2112 119.014 65.0548 125.002 65.0548C130.994 65.0548 135.847 60.2112 135.847 54.2253C135.847 48.2395 130.994 43.384 125.002 43.384C119.014 43.384 114.16 48.2395 114.16 54.2253ZM126.45 49.0989C125.354 48.6769 124.665 47.6315 124.657 46.5164C124.769 46.5087 124.882 46.4855 125.002 46.4855C126.78 46.4855 128.399 47.1012 129.704 48.1156C129.181 48.8473 128.329 49.2809 127.442 49.2809C127.109 49.2809 126.776 49.2228 126.45 49.0989ZM117.79 51.4415C118.452 49.734 119.707 48.3402 121.291 47.469C121.535 47.8756 121.682 48.3593 121.682 48.8588C121.682 50.4075 120.431 51.6582 118.886 51.6582C118.495 51.6582 118.134 51.5886 117.79 51.4415ZM123.336 56.9704L121.942 54.3454C121.787 54.0472 121.841 53.6833 122.066 53.4393L124.142 51.3021C124.374 51.0582 124.738 50.9885 125.037 51.1395L127.713 52.448C128.019 52.5951 128.189 52.9165 128.139 53.2534L127.725 56.1998C127.678 56.5366 127.419 56.8001 127.093 56.8581L124.161 57.3691C124.119 57.3768 124.068 57.3769 124.026 57.3769C123.739 57.3769 123.476 57.2259 123.336 56.9704ZM130.246 54.7712C130.246 53.4471 131.172 52.3513 132.396 52.0493C132.605 52.7462 132.744 53.4626 132.744 54.2253C132.744 55.3482 132.496 56.4128 132.055 57.3769C131.001 56.9819 130.246 55.9637 130.246 54.7712ZM117.499 56.0528C117.724 55.9947 117.96 55.9559 118.208 55.9559C119.746 55.9559 121.004 57.2028 121.004 58.7515C121.004 59.3942 120.788 59.9672 120.424 60.4395C118.983 59.3748 117.933 57.8416 117.499 56.0528ZM124.308 61.8952C124.483 60.5207 125.645 59.46 127.066 59.46C128 59.46 128.825 59.9285 129.336 60.6371C128.104 61.4734 126.613 61.9612 125.002 61.9612C124.762 61.9612 124.533 61.9185 124.308 61.8952Z" fill="url(#paint17_linear_152542_2307)"/>
<path d="M126.288 34.5715L128.79 38.9082L133.128 36.4068L130.626 32.0704L126.288 34.5715Z" fill="url(#paint18_linear_152542_2307)"/>
<path d="M120.129 73.4447L123.739 76.9254L127.221 73.3324L123.615 69.8399L120.129 73.4447Z" fill="url(#paint19_linear_152542_2307)"/>
<path d="M192.88 255.51C192.493 256.017 192.284 256.865 192.191 257.953C192.098 259.056 192.137 260.044 192.218 260.984C191.811 260.539 191.006 260.392 190.576 260.721C190.688 261.159 190.835 261.557 190.893 262.026C190.94 262.351 190.94 262.711 190.944 263.06C190.188 263.613 189.317 264.365 189.197 265.766C189.178 265.991 189.185 266.196 189.185 266.409C188.903 265.518 188.411 264.608 188.167 263.834C187.946 263.145 187.551 262.483 187.163 262.134C187.051 262.022 186.904 261.987 186.768 261.906C186.683 262.134 186.617 262.378 186.532 262.587C186.497 262.692 186.482 262.8 186.439 263.009C186.18 262.742 185.97 262.498 185.711 262.309C185.517 262.169 185.285 262.107 185.049 262.061C184.553 261.948 184.468 262.068 184.468 262.793C184.468 263.029 184.456 263.28 184.448 263.59C183.368 263.176 182.767 264.051 182.791 264.074C183.019 264.287 183.22 264.419 183.271 264.748C183.321 265.058 183.197 265.545 183.042 265.967C182.732 266.804 182.938 268.225 183.538 268.778C183.968 269.177 184.766 269.104 185.327 268.558C185.978 267.954 186.18 266.087 185.816 265.507C185.595 265.158 185.44 265.154 185.01 265.448C185.122 265.692 185.347 265.929 185.316 266.204C185.285 266.513 185.068 266.943 184.847 267.187C184.545 267.512 184.204 267.543 183.96 267.276C183.534 266.8 183.526 265.975 183.921 265.201C184.034 264.988 184.313 264.589 184.456 264.481C185.068 264.035 185.792 263.908 186.238 264.225C186.733 264.577 187.036 265.147 187.098 265.991C187.214 267.462 186.451 269.754 186.52 271.218C186.571 272.573 187.539 273.107 188.666 273.328C189.162 273.425 190.444 273.572 190.707 273.669C192.048 274.149 193.21 274.075 193.922 272.84C194.654 271.574 195.053 269.185 195.836 267.927C196.289 267.21 196.812 266.846 197.416 266.746C197.966 266.672 198.547 267.098 198.888 267.78C198.973 267.942 199.027 268.418 199.035 268.666C199.019 269.533 198.628 270.265 198.036 270.486C197.683 270.614 197.393 270.443 197.28 270.01C197.199 269.696 197.207 269.216 197.327 268.918C197.424 268.666 197.726 268.565 197.939 268.395C197.695 267.934 197.555 267.861 197.199 268.074C196.606 268.43 195.987 270.145 196.289 270.974C196.525 271.713 197.207 272.139 197.768 271.98C198.57 271.756 199.333 270.633 199.457 269.731C199.511 269.297 199.635 268.809 199.813 268.55C200.011 268.275 200.247 268.252 200.561 268.174C200.584 268.167 200.604 268.112 200.646 268.047C200.472 267.098 199.821 267.253 199.31 266.997C199.442 266.707 199.546 266.49 199.662 266.269C199.999 265.627 199.976 265.479 199.48 265.367C199.252 265.305 199.019 265.243 198.775 265.286C198.466 265.329 198.16 265.464 197.807 265.58C197.861 265.375 197.896 265.271 197.916 265.17C197.947 264.938 197.997 264.686 198.028 264.45C197.966 264.457 197.912 264.457 197.857 264.45C197.757 264.45 197.66 264.442 197.555 264.473C197.06 264.612 196.726 264.922 196.095 265.294C195.506 265.642 194.747 266.521 194.131 267.404C194.205 267.098 194.29 266.8 194.403 266.525C194.801 265.507 194.728 264.88 194.333 264.392L193.884 263.664C193.93 263.555 193.98 263.431 194.027 263.288C194.236 262.607 194.557 262.076 194.809 261.403C194.697 260.973 193.93 260.574 193.423 260.752C193.709 259.831 193.907 258.828 193.915 257.659C193.907 256.59 193.655 255.932 193.368 255.424C193.326 255.351 193.264 255.32 193.202 255.32C193.093 255.32 192.973 255.401 192.88 255.51ZM173.189 268.167C173.014 267.559 172.836 266.943 172.646 266.281C171.841 266.44 171.361 267.055 171.012 267.714C170.671 268.368 170.493 269.096 170.23 269.766C169.904 269.487 169.579 269.193 169.246 268.898C168.208 270.126 168.037 271.411 168.978 272.914C169.749 274.137 170.659 275.26 171.531 276.371C172.523 277.645 173.53 278.861 173.599 280.526C173.673 282.082 172.836 283.441 171.512 284.552C170.462 285.439 169.296 285.768 167.832 285.776C167.786 285.776 167.662 286.209 167.638 286.291C167.77 286.898 168.862 286.624 169.412 286.484C173.545 285.439 176.214 282.303 174.974 279.128C174.498 277.866 172.887 275.86 172.271 274.637C171.756 273.634 171.295 272.619 171.515 271.434C171.79 270.037 173.154 268.674 174.885 268.96C175.869 269.119 176.648 269.932 176.64 270.919C176.632 271.554 176.09 272.395 175.462 272.67C175.056 272.84 174.633 272.898 174.32 272.604C174.033 272.317 174.033 271.961 174.223 271.574C174.254 271.512 174.262 271.442 174.277 271.369C173.642 271.419 172.844 272.286 172.933 272.964C173.1 274.149 175.764 275.093 176.988 274.288C178.112 273.56 178.716 271.856 178.313 270.486C177.922 269.162 177.325 268.469 176.067 268.062C175.931 268.008 175.815 267.954 175.714 267.899C175.966 267.264 176.171 266.715 176.384 266.111C176.307 266.107 176.225 266.107 176.144 266.107C174.757 266.107 173.979 266.978 173.189 268.167ZM182.663 273.041C181.857 273.386 180.889 274.35 180.707 275.016C181.102 274.911 181.47 274.78 181.811 274.722C182.55 274.629 183.05 274.993 183.182 275.682C183.29 276.266 182.864 277.293 182.271 277.792C181.311 278.609 180.296 279.329 179.301 280.084C178.143 280.94 177.624 281.954 177.709 283.108C177.813 284.649 179.111 285.749 179.339 285.969C177.329 288.521 174.943 290.65 172.519 292.586C173.185 292.78 173.855 292.966 174.521 293.113C176.706 291.254 178.836 289.28 180.896 287.022C182.647 287.793 184.789 287.963 186.47 286.67C187.551 285.834 188.05 284.819 188.484 283.755C188.813 282.949 189.065 282.132 189.344 281.312C189.731 280.196 190.541 279.298 191.389 278.965C192.168 278.663 192.632 279.047 192.702 280.061C192.706 280.196 192.714 280.32 192.729 280.545C193.264 279.867 193.461 279.182 193.609 278.543C193.868 277.323 193.581 276.576 193.07 276.088C192.462 275.519 191.44 275.477 190.398 276.266C189.991 276.557 189.472 277.145 189.096 277.718C188.6 278.477 188.198 279.244 187.818 280.018C186.586 281.648 185.587 282.709 184.905 283.344C185.661 282.214 186.238 281.013 186.741 279.801C187.179 278.756 187.539 277.695 187.888 276.627C187.934 276.495 187.954 276.356 188.008 276.112C187.822 276.29 187.717 276.355 187.636 276.46C186.187 278.214 184.553 279.805 182.93 281.362C182.767 281.513 182.643 281.683 182.492 281.85C182.562 281.013 183.174 279.929 183.813 278.988C184.053 278.744 184.278 278.501 184.491 278.237C185.157 277.451 185.734 276.503 186.098 275.585C186.563 274.381 186.164 273.61 185.467 273.142C185.06 272.863 184.607 272.708 184.092 272.708C183.67 272.708 183.189 272.817 182.663 273.041ZM166.116 276.015C165.411 275.972 163.997 275.918 163.982 275.972C167.94 277.974 169.106 280.727 169.749 284.095C170.601 283.681 171.442 281.141 171.295 279.805C171.097 277.951 170.067 276.599 168.374 275.314C168.328 275.57 168.297 275.717 168.25 275.91C167.328 275.488 166.751 274.594 165.578 274.404C165.768 274.985 165.938 275.488 166.116 276.015ZM201.789 280.866C201.723 280.831 201.622 280.793 201.514 280.734C200.751 280.305 197.888 279.662 196.421 281.238C195.41 282.357 194.201 285.168 196.053 286.38C196.506 286.666 196.835 286.945 197.555 286.593C198.156 286.287 198.555 285.729 198.834 285.09C198.888 284.974 198.896 284.846 198.938 284.664C198.822 284.753 198.76 284.788 198.702 284.854C198.105 285.505 197.757 285.675 197.466 285.478C197.176 285.299 196.947 284.227 197.276 283.635C198.156 282.059 199.813 281.528 200.635 282.032C201.285 282.434 201.432 283.302 200.91 284.591C200.298 286.097 199.271 287.305 198.036 287.816C196.909 288.281 195.801 288.459 194.693 288.606C194.004 288.687 193.322 288.525 192.605 288.37C191.703 288.165 190.762 287.963 189.747 288.246C187.008 289.028 183.813 291.545 181.996 294.069C182.361 294.088 182.721 294.096 183.085 294.096C183.612 293.477 184.239 292.869 184.975 292.311C187.082 290.685 189.17 289.849 191.137 289.938C192.691 290.019 194.069 290.314 195.51 290.375C196.393 290.418 197.257 290.472 198.175 290.31C199.465 290.077 200.716 289.094 201.804 287.305C201.456 287.231 201.134 287.166 200.774 287.077C202.285 285.721 203.489 284.138 203.884 282.039C203.261 282.473 202.684 282.833 202.079 283.185C202.478 282.345 202.869 281.548 203.113 280.769C203.373 279.945 203.342 279.279 203.048 278.826C202.633 279.515 202.25 280.15 201.789 280.866ZM171.744 286.728C170.88 287.433 170.903 288.606 171.616 289.531C171.856 289.845 172.131 290.116 172.317 290.333C173.065 289.717 173.708 289.086 174.432 288.532C176.036 287.297 176.5 285.865 176.268 284.382C176.214 284.018 176.109 283.665 176.012 283.205C174.564 284.498 173.1 285.609 171.744 286.728ZM164.648 287.189C163.877 287.158 163.145 287.119 162.406 287.03C162.398 287.092 163.227 287.89 163.715 288.258C163.362 288.556 163.033 288.827 162.7 289.094C166.232 288.954 168.858 290.588 171.488 292.226C171.151 290.108 168.15 287.255 164.509 286.736C164.551 286.883 164.594 287.023 164.648 287.189ZM178.747 291.719C178.185 292.366 177.403 292.97 176.737 293.554C177.992 293.771 179.227 293.91 180.463 293.988C180.606 293.922 180.749 293.845 180.881 293.744C181.567 293.252 182.128 292.59 182.698 291.967C183.112 291.506 183.426 290.979 183.825 290.488C184.196 290.019 184.619 289.57 185.029 289.082C182.485 289.156 180.354 289.864 178.747 291.719ZM191.951 291.626C189.766 291.812 187.361 292.811 185.049 294.061C188.697 293.926 192.183 293.341 195.262 292.528C194.565 291.92 193.686 291.603 192.536 291.603C192.35 291.603 192.152 291.614 191.951 291.626Z" fill="url(#paint20_linear_152542_2307)"/>
<path d="M170.435 179.425C170.319 179.44 170.222 179.502 170.214 179.618V179.657C170.253 180.296 170.427 181.035 171.055 181.992C171.748 183.049 172.507 183.835 173.313 184.497C172.759 184.644 172.306 185.449 172.472 185.906C173.088 186.359 173.692 186.653 174.277 187.141C175.505 188.148 176.136 187.61 176.233 187.157C176.26 186.994 176.07 186.7 175.788 186.359C176.047 186.595 176.342 186.754 176.648 186.75C177.186 186.63 177.55 186.382 177.143 185.538C176.926 185.109 176.535 184.617 176.322 184.168C176.098 183.695 175.993 183.258 175.83 182.801C175.253 182.755 174.618 183.355 174.529 183.997C174.041 183.099 173.491 182.185 172.751 181.252C172.031 180.327 171.333 179.684 170.694 179.456C170.648 179.44 170.598 179.429 170.551 179.425H170.435ZM180.769 183.417C180.916 184.454 182 186.181 183.085 187.517C182.616 186.413 182.806 185.786 183.232 185.24C183.395 185.039 183.352 184.276 182.76 183.552C182.531 183.269 182.004 182.739 181.66 182.642C181.547 182.607 181.439 182.592 181.35 182.592C180.881 182.592 180.711 183.002 180.769 183.417ZM188.081 184.392C187.83 184.594 187.38 184.961 187.129 186.351C186.919 186.077 186.335 185.558 186.056 185.314C185.951 185.492 185.808 185.623 185.75 185.833C185.556 186.468 185.661 187.23 186.106 188.059C186.865 189.495 187.698 190.909 188.538 192.314C190.088 194.908 191.575 197.398 190.731 199.674C190.909 199.663 190.967 199.667 190.998 199.663C191.056 199.643 191.087 199.57 191.134 199.543C192.292 198.734 193.152 197.367 192.307 195.725C191.44 194.029 189.112 191.9 188.302 190.161C187.83 189.166 187.806 188.33 188.136 187.614C188.438 186.971 189.321 186.646 190.297 186.754C190.529 186.785 191.099 187.068 191.358 187.23C192.307 187.873 192.834 188.814 192.648 189.611C192.543 190.072 192.144 190.27 191.598 190.08C191.196 189.94 190.673 189.592 190.436 189.263C190.227 188.976 190.332 188.574 190.301 188.221C189.627 188.156 189.449 188.256 189.429 188.791C189.387 189.685 190.471 190.974 191.591 191.242C192.567 191.509 193.527 191.075 193.752 190.355C194.077 189.337 193.729 188.303 192.838 187.536C192.396 187.172 191.947 186.692 191.8 186.305C191.649 185.914 191.788 185.631 191.908 185.233C191.924 185.198 191.877 185.143 191.842 185.054C190.68 184.566 190.382 185.376 189.739 185.747C189.53 185.395 189.363 185.124 189.197 184.841C188.922 184.354 188.759 184.14 188.554 184.14C188.426 184.14 188.279 184.23 188.081 184.392ZM179.003 185.852C178.809 186.034 178.685 186.413 178.886 186.777C179.278 187.517 180.072 188.252 180.947 188.674C182.616 189.48 184.131 190.692 185.254 192.241C185.448 192.515 185.634 192.794 185.816 193.077C184.851 192.12 183.728 191.245 182.709 190.355C181.613 189.414 180.556 188.976 179.661 189.019C179.398 189.035 179.212 189.275 179.223 189.538C179.266 190.459 179.89 191.404 180.823 192.535C181.613 193.491 182.403 194.591 183.263 195.628C183.081 195.473 182.891 195.33 182.709 195.175C181.388 194.111 180.242 192.825 179.32 191.342C178.859 190.599 176.83 188.109 175.95 189.356C175.633 189.805 176.121 190.703 177.062 191.427C177.899 192.062 178.755 192.597 179.599 193.208C179.615 194.231 180.006 194.889 181.226 195.775C181.931 196.275 182.636 196.658 183.337 197.146C183.546 197.293 183.848 197.568 183.922 197.766C184.278 198.765 184.936 199.291 185.653 199.608C186.47 199.968 187.206 199.984 187.733 199.969C188.213 199.949 188.709 199.69 189.042 199.241C189.534 198.586 189.836 196.867 189.1 195.501C188.856 195.051 188.399 194.533 187.977 194.176C187.636 193.874 187.431 193.681 187.233 193.259C186.838 192.395 186.335 191.536 185.75 190.707C184.913 189.546 184.181 189.17 183.375 189.259C182.671 188.384 182.031 187.571 181.288 186.824C180.614 186.154 179.82 185.743 179.336 185.743C179.196 185.743 179.08 185.778 179.003 185.852ZM173.309 193.235C173.313 194.412 175.071 194.579 175.505 194.413C176.04 194.207 176.38 193.797 176.907 193.607C177.267 193.491 177.817 193.63 178.472 193.669C177.325 192.949 175.59 192.097 174.455 192.097C173.774 192.097 173.305 192.403 173.309 193.235ZM175.823 195.369C175.617 195.415 175.474 195.547 175.292 195.636C175.544 195.934 175.927 196.523 176.256 196.774C175.78 196.879 175.358 196.918 174.982 197.065C174.68 197.173 174.463 197.386 174.235 197.599C173.758 198.052 173.832 198.234 174.61 198.745C174.885 198.923 175.137 199.105 175.486 199.341C174.266 200.209 174.796 201.483 174.835 201.475C175.23 201.37 175.517 201.25 175.908 201.428C176.28 201.606 176.733 202.087 177.07 202.543C177.782 203.488 178.79 203.899 179.828 203.643C180.567 203.465 181.048 202.539 180.846 201.541C180.645 200.414 179.436 199.241 178.545 199.229C178.007 199.218 177.891 199.388 177.91 200.058C178.267 200.12 178.666 200.034 178.941 200.259C179.258 200.518 179.576 201.061 179.688 201.475C179.839 202.036 179.622 202.412 179.154 202.485C178.344 202.621 177.434 202.036 176.861 201.053C176.706 200.778 176.469 200.201 176.454 199.961C176.404 198.977 176.779 198.118 177.445 197.862C178.185 197.58 179.014 197.661 179.975 198.188C181.66 199.121 183.635 201.572 185.277 202.543C186.861 203.488 188.283 202.725 189.162 201.622C189.193 201.579 189.267 201.548 189.29 201.494C189.294 201.467 189.29 201.401 189.317 201.223C186.993 201.924 184.603 200.278 182.109 198.571C180.769 197.642 179.405 196.716 178.026 195.864C177.426 195.497 176.853 195.307 176.33 195.307C176.156 195.307 175.985 195.33 175.823 195.369ZM195.328 196.573C194.085 197.216 193.535 198.958 194.681 201.192C194.964 201.727 195.305 202.292 195.696 202.783C197.215 204.704 198.919 206.26 200.604 207.852C201.626 208.835 202.587 209.9 203.559 210.976C206.061 213.76 205.6 217.063 205.67 217.218C206.785 215.402 207.761 213.532 206.843 210.635C206.259 208.827 205.031 207.596 203.764 206.497C202.804 205.653 201.797 204.936 200.797 204.158C199.438 203.101 198.57 201.556 198.516 200.236C198.466 199.032 199.213 198.575 200.65 198.973C200.836 199.024 200.945 199.051 201.27 199.144C200.743 198.168 199.798 197.506 198.973 197.003C198.086 196.465 197.327 196.252 196.665 196.252C196.165 196.252 195.723 196.375 195.328 196.573ZM193.264 204.181C195.003 207 196.432 209.997 197.819 212.966C198.52 214.438 199.523 215.793 200.441 217.086C200.782 217.558 201.495 217.69 202.033 217.794C202.409 217.868 202.672 217.976 202.912 218.429C206.015 224.113 208.451 230.053 210.403 235.779C210.461 235.973 210.508 236.267 210.434 236.434C209.578 238.149 210.097 239.376 210.988 240.491C211.693 241.382 212.99 243.186 213.498 243.143C213.602 242.071 213.722 241.014 213.703 239.961C213.699 239.012 213.66 238.013 213.385 237.126C213.223 236.588 212.63 236.275 212.231 235.849C211.945 235.547 211.526 235.314 211.395 234.939C209.33 229.344 206.859 223.513 203.741 217.976C203.431 217.403 203.358 217.009 203.551 216.451C203.877 215.479 203.571 214.399 202.997 213.385C201.522 210.81 199.535 208.82 197.466 206.992C196.223 205.896 194.929 204.905 193.616 203.914C193.454 203.786 193.275 203.701 192.966 203.507C193.117 203.84 193.167 204.026 193.264 204.181ZM187.644 205.563C186.571 206.357 186.048 207.542 186.18 209.354C186.28 210.616 187.148 212.405 187.985 212.97C188.031 212.386 188.019 211.816 188.105 211.329C188.325 210.275 189.065 209.753 190.072 209.9C190.94 210.039 192.152 211.112 192.559 212.161C193.241 213.857 193.771 215.591 194.329 217.314C194.972 219.304 196.122 220.532 197.765 220.938C199.101 221.271 200.395 221.016 201.7 220.431C201.146 220.094 200.716 219.82 200.267 219.564C198.849 218.739 197.912 217.299 197.191 215.595C196.293 213.474 195.452 211.301 194.24 209.335C193.461 208.041 192.427 206.802 191.323 205.869C190.58 205.246 189.886 204.99 189.251 204.99C188.659 204.99 188.116 205.215 187.644 205.563ZM176.733 219.204C175.854 219.057 174.959 218.917 173.991 218.762C173.723 219.866 174.219 220.849 174.854 221.693C175.486 222.514 176.311 223.165 177.016 223.896C176.458 224.148 175.885 224.384 175.323 224.624C176.268 226.665 177.817 227.664 180.296 227.377C182.318 227.137 184.29 226.649 186.246 226.208C188.473 225.716 190.622 225.17 192.795 226.08C194.84 226.924 196.072 228.791 196.707 231.129C197.207 232.991 196.932 234.668 196.072 236.519C196.045 236.573 196.459 236.972 196.622 237.072C196.874 236.321 197.648 235.16 197.807 234.381C198.946 228.535 195.022 224.446 190.212 224.113C188.318 223.958 186.397 224.187 184.46 224.237C182.872 224.288 181.292 224.26 179.924 223.277C178.298 222.085 177.364 219.548 178.762 217.531C179.564 216.381 181.067 215.893 182.314 216.482C183.135 216.873 183.887 218.062 183.856 219.022C183.84 219.649 183.662 220.214 183.093 220.431C182.55 220.629 182.101 220.419 181.714 219.935C181.652 219.866 181.567 219.815 181.493 219.754C181.168 220.582 181.807 222.1 182.732 222.394C184.336 222.901 185.951 220.838 185.653 218.813C185.393 216.958 184.53 215.402 182.899 214.674C181.11 213.88 179.591 214.163 178.321 215.495C178.17 215.642 178.03 215.75 177.903 215.859C177.232 215.158 176.651 214.565 176.012 213.93C174.959 215.812 175.621 217.403 176.733 219.204ZM185.823 222.255C187.648 222.197 189.546 219.858 188.686 217.779C188.066 216.226 186.195 214.949 184.743 214.058C186.993 216.633 187.903 219.428 185.823 222.255ZM209.125 225.496C209.768 226.576 210.194 227.826 210.678 229.003C212.429 227.939 213.668 225.825 212.948 223.537C212.58 222.367 211.945 221.287 211.352 220.222C210.899 219.425 210.329 218.735 209.841 217.965C209.361 217.225 208.943 216.439 208.459 215.646C207.347 219.165 207.32 222.41 209.125 225.496ZM202.381 229.902C202.951 231.423 204.585 231.958 206.208 231.423C206.751 231.238 207.266 230.993 207.649 230.842C207.149 229.522 206.58 228.353 206.158 227.094C205.217 224.307 203.454 222.987 201.285 222.595C200.755 222.506 200.205 222.476 199.531 222.39C200.642 224.988 201.475 227.509 202.381 229.902ZM183.116 229.662C183.449 229.855 183.635 229.956 183.883 230.111C182.872 231.179 181.354 231.536 180.525 233.049C181.427 233.065 182.21 233.073 183.011 233.08C182.628 234.021 181.884 235.938 181.946 235.988C186.594 231.512 190.955 231.226 195.921 231.965C195.754 230.599 192.633 228.229 190.715 227.795C190.103 227.656 189.507 227.586 188.922 227.586C186.954 227.586 185.103 228.349 183.116 229.662ZM212.522 231.098C213.765 230.61 215.001 230.157 216.221 229.902C216.139 229.693 216.066 229.48 215.984 229.275C215.775 228.752 215.547 228.206 215.318 227.648C214.102 228.632 213.076 229.89 212.522 231.098ZM212.766 234.176C212.696 234.199 212.646 234.3 212.522 234.486C214.389 234.819 215.082 236.461 215.43 238.362C216.511 238.098 216.999 237.169 217.472 236.329C217.878 236.701 218.258 237.142 218.692 237.459C218.316 236.093 217.894 234.691 217.417 233.259C217.17 233.232 216.918 233.212 216.674 233.212C215.357 233.212 214.059 233.615 212.766 234.176ZM196.533 240.723C196.758 240.731 196.982 240.735 197.234 240.739C196.823 241.773 196.417 242.768 195.948 243.732C196.022 243.778 197.532 243.023 198.272 242.528C198.516 243.163 198.729 243.736 198.942 244.316C200.433 239.411 203.931 236.608 207.444 233.785C207.184 233.739 206.909 233.719 206.623 233.719C203.47 233.719 198.779 236.391 196.533 240.723ZM207.947 237.401C206.731 238.447 205.6 239.6 204.988 241.18C204.388 242.698 204.578 243.914 205.55 244.948C206.77 243.836 207.68 242.717 207.324 241.308C208.176 241.262 208.989 241.203 210.02 241.13C209.257 239.453 208.784 237.971 209.826 236.182C209.768 236.135 209.717 236.085 209.655 236.046C209.109 236.507 208.509 236.929 207.947 237.401ZM215.14 239.562C215.767 240.631 216.213 241.571 216.844 242.35C217.282 242.926 218.002 243.306 218.893 242.927C219.203 242.803 219.621 242.477 219.834 242.156C219.749 241.742 219.656 241.327 219.559 240.902C218.932 240.975 218.448 240.607 218.049 240.317C217.383 239.841 216.67 239.535 215.682 239.535C215.512 239.535 215.33 239.543 215.14 239.562ZM208.703 244.622C208.451 245.451 208.102 246.132 206.995 246.369C207.436 247.011 208.11 247.131 208.889 247.042C209.621 246.953 210.132 246.434 210.449 245.865C210.934 245.002 210.988 243.964 210.872 243.07C210.81 242.578 210.713 241.997 210.554 241.676C209.547 242.597 209.036 243.585 208.703 244.622ZM216.333 246.032C217.197 246.524 218.459 245.954 219.153 244.533C218.002 244.851 217.588 244.127 216.999 243.531C216.48 243.012 215.814 242.671 215.148 242.203C214.803 243.647 215.396 245.513 216.333 246.032ZM211.499 245.799C211.526 246.582 211.538 247.286 210.736 248.01C211.499 248.235 212.165 248.045 212.824 247.522C213.416 247.065 213.595 246.5 213.564 245.861C213.505 244.75 212.692 243.422 211.646 242.93C211.623 243.98 211.457 244.932 211.499 245.799ZM215.047 249.071C215.148 249.226 215.276 249.311 215.434 249.327H215.551C215.686 249.315 215.845 249.265 216.031 249.172C216.561 248.905 216.74 248.603 216.658 248.192C216.441 247.035 215.593 246.314 214.66 245.621C214.482 246.938 214.431 248.122 215.047 249.071Z" fill="url(#paint21_linear_152542_2307)"/>
<path d="M136.823 170.021L138.403 169.119L134.1 161.619L132.52 162.521L134.174 165.414L126.358 169.901L127.341 171.62L135.162 167.129L136.823 170.021ZM143.876 178.644L136.138 179.871L141.072 173.761L139.538 171.101L130.146 176.495L131.126 178.21L138.314 174.087L138.341 174.133L132.671 180.897L133.477 182.299L142.176 180.824L142.203 180.858L135.022 184.986L136.006 186.701L145.402 181.311L143.876 178.644Z" fill="#BCBAB7"/>
<path d="M150.2 400.222C148.047 400.222 147.127 397.352 147.127 389.457C147.127 385.359 149.122 384.335 154.812 384.335C156.306 384.335 157.499 384.346 158.644 384.366C156.829 389.949 154.395 400.222 150.2 400.222ZM138.663 394.838C138.663 396.928 138.862 398.711 139.225 400.222H109.137C105.135 400.222 102.577 399.296 102.577 395.606V385.359H112.055C112.828 383.055 113.338 380.948 113.594 378.7H102.58C102.625 375.539 102.856 372.715 103.087 369.474C99.4991 370.754 96.6824 372.239 94.3722 374.805V378.7H89.5013C89.0933 381.468 89.0933 383.564 88.992 385.359H94.3722V396.12C94.3722 403.653 98.9363 406.882 105.189 406.882H146.097C151.109 406.882 154.958 402.776 158.658 393.482V406.882H166.858V378.7C163.169 378.391 159.784 378.183 156.095 378.183C145.945 378.183 138.663 382.388 138.663 394.838ZM181.726 391.713V388.948C181.726 385.359 181.468 382.284 180.958 378.7H173.012C173.268 382.284 173.524 385.359 173.524 388.948V406.882H181.726C181.726 396.835 184.954 385.409 193.514 386.641C193.514 384.847 193.258 380.745 192.748 378.183C186.499 378.726 183.437 384.231 181.726 391.713ZM68.7405 400.222C66.5879 400.222 65.6649 397.352 65.6649 389.457C65.6649 385.359 67.6656 384.335 73.3524 384.335C74.8466 384.335 76.0397 384.346 77.1906 384.366C75.37 389.949 72.9416 400.222 68.7405 400.222ZM57.2092 394.838C57.2092 403.347 60.2819 407.394 64.3846 407.394C69.4102 407.394 73.4228 402.947 77.2018 393.468V406.882H85.4043V378.7C81.7125 378.391 78.3302 378.183 74.6356 378.183C64.4859 378.183 57.2092 382.388 57.2092 394.838ZM324.492 381.772C324.492 374.754 319.621 370.498 310.906 370.498C306.089 370.498 302.555 371.522 300.399 372.552C299.169 374.29 298.607 376.293 297.836 379.463C301.117 378.183 304.294 377.162 309.114 377.162C312.958 377.162 316.036 378.802 316.036 383.311C316.036 388.174 313.011 391.713 296.553 401.243C296.553 402.269 296.606 404.317 297.068 406.882H324.233C325.007 404.576 325.516 402.528 325.772 400.222H302.65C314.201 396.272 324.492 392.149 324.492 381.772ZM37.8919 399.012L37.4698 398.784C32.5511 396.174 25.9357 392.18 25.9357 384.9C25.9357 378.234 30.2465 375.108 35.4213 375.108C41.1644 375.108 44.648 379.156 44.648 386.233C44.648 391.105 41.9636 395.403 37.8919 399.012ZM53.6187 407.394L40.1148 400.196C47.7573 397.42 53.3626 391.943 53.3626 384.18C53.3626 373.725 45.5175 368.45 35.4213 368.45C26.1439 368.45 17.2239 374.394 17.2239 385.873C17.2239 395.558 24.6047 401.347 32.7031 405.6L58.7428 419.18C58.7428 413.186 58.028 409.749 53.6187 407.394ZM245.545 404.317C243.244 404.317 236.063 399.653 236.063 387.156C236.063 381.001 239.653 377.162 245.545 377.162C251.44 377.162 255.034 381.001 255.034 387.156C255.034 399.653 247.856 404.317 245.545 404.317ZM245.545 370.498C235.297 370.498 227.604 376.647 227.604 386.641C227.604 399.707 240.165 407.394 245.545 407.394C250.931 407.394 263.487 399.707 263.487 386.641C263.487 376.647 255.802 370.498 245.545 370.498ZM245.661 384.47C243.868 385.747 242.329 387.24 240.973 388.948C242.329 390.655 243.868 392.143 245.661 393.426C247.453 392.143 248.987 390.655 250.354 388.948C248.987 387.24 247.453 385.747 245.661 384.47ZM292.712 381.772C292.712 374.754 287.838 370.498 279.121 370.498C274.306 370.498 270.769 371.522 268.614 372.552C267.387 374.29 266.821 376.293 266.05 379.463C269.334 378.183 272.514 377.162 277.331 377.162C281.175 377.162 284.253 378.802 284.253 383.311C284.253 388.174 281.228 391.713 264.773 401.243C264.773 402.269 264.823 404.317 265.285 406.882H292.456C293.221 404.576 293.736 402.528 293.992 400.222H270.867C282.421 396.272 292.712 392.149 292.712 381.772ZM223.501 381.772C223.501 374.754 218.636 370.498 209.922 370.498C205.101 370.498 201.564 371.522 199.414 372.552C198.182 374.29 197.616 376.293 196.851 379.463C200.129 378.183 203.309 377.162 208.129 377.162C211.97 377.162 215.046 378.802 215.046 383.311C215.046 388.174 212.021 391.713 195.568 401.243C195.568 402.269 195.619 404.317 196.083 406.882H223.251C224.022 404.576 224.531 402.528 224.784 400.222H201.663C213.211 396.272 223.501 392.149 223.501 381.772Z" fill="white"/>
<path d="M293.465 358.427C292.302 358.719 291.025 358.995 289.638 359.256C288.239 359.518 286.514 359.645 284.452 359.645C282.42 359.645 280.363 359.372 278.287 358.82C276.21 358.272 274.339 357.386 272.673 356.165C271.004 354.947 269.637 353.341 268.579 351.355C267.512 349.369 266.986 346.933 266.986 344.061C266.986 341.423 267.425 339.105 268.294 337.119C269.164 335.131 270.38 333.479 271.93 332.152C273.483 330.833 275.329 329.848 277.462 329.195C279.595 328.54 281.911 328.217 284.407 328.217C285.977 328.217 287.499 328.366 288.979 328.672C290.462 328.973 291.942 329.345 293.42 329.781L292.772 336.357C291.464 335.628 290.164 335.091 288.875 334.745C287.578 334.396 286.236 334.222 284.846 334.222C283.391 334.222 282.088 334.467 280.926 334.965C279.764 335.454 278.771 336.138 277.94 337.007C277.11 337.882 276.472 338.919 276.021 340.123C275.571 341.324 275.352 342.638 275.352 344.061C275.352 345.541 275.602 346.877 276.114 348.07C276.618 349.257 277.316 350.264 278.202 351.093C279.088 351.918 280.155 352.551 281.401 352.987C282.651 353.42 284.013 353.639 285.499 353.639C286.832 353.639 288.155 353.487 289.46 353.181C290.769 352.88 291.97 352.508 293.073 352.072L293.465 358.427Z" fill="white"/>
<path d="M322.645 347.586C322.645 349.679 322.325 351.474 321.686 352.987C321.047 354.495 320.144 355.744 318.968 356.728C317.789 357.718 316.382 358.45 314.741 358.928C313.101 359.412 311.291 359.645 309.316 359.645C307.343 359.645 305.537 359.412 303.894 358.928C302.256 358.45 300.849 357.718 299.67 356.728C298.494 355.744 297.591 354.495 296.952 352.987C296.313 351.474 295.992 349.679 295.992 347.586V328.735H304.093V346.239C304.093 347.254 304.172 348.202 304.333 349.088C304.49 349.977 304.772 350.756 305.16 351.44C305.551 352.121 306.083 352.658 306.75 353.049C307.414 353.443 308.275 353.64 309.316 353.64C310.363 353.64 311.221 353.443 311.891 353.049C312.56 352.658 313.087 352.121 313.481 351.44C313.869 350.756 314.147 349.977 314.308 349.088C314.463 348.202 314.547 347.254 314.547 346.239V328.735H322.645V347.586Z" fill="white"/>
<path d="M334.799 342.755H336.887C337.585 342.755 338.238 342.687 338.849 342.56C339.456 342.425 339.988 342.195 340.436 341.863C340.886 341.531 341.243 341.092 341.505 340.555C341.764 340.02 341.896 339.359 341.896 338.577C341.896 337.79 341.764 337.137 341.505 336.62C341.243 336.097 340.886 335.675 340.436 335.354C339.988 335.036 339.456 334.808 338.849 334.682C338.238 334.547 337.585 334.482 336.887 334.482H334.799V342.755ZM326.695 328.735H336.364C341.041 328.735 344.482 329.543 346.691 331.152C348.894 332.766 350 335.281 350 338.707C350 341.784 348.939 344.186 346.82 345.911C344.696 347.64 341.736 348.501 337.931 348.501H334.799V359.122H326.695V328.735Z" fill="white"/>
<path d="M98.0517 328.735H106.327L110.25 352.073H110.337L114.426 328.735H124.705L128.973 352.073H129.064L133.025 328.735H140.91L134.112 359.125H123.706L119.395 335.79H119.305L115.301 359.125H104.802L98.0517 328.735Z" fill="white"/>
<path d="M149.576 343.93C149.576 345.182 149.705 346.391 149.97 347.567C150.228 348.74 150.631 349.778 151.185 350.678C151.737 351.578 152.449 352.296 153.324 352.833C154.193 353.37 155.234 353.64 156.458 353.64C157.674 353.64 158.726 353.37 159.596 352.833C160.465 352.296 161.174 351.578 161.723 350.678C162.278 349.778 162.686 348.74 162.947 347.567C163.206 346.391 163.338 345.182 163.338 343.93C163.338 342.628 163.206 341.384 162.947 340.212C162.686 339.036 162.278 338.003 161.723 337.115C161.174 336.234 160.465 335.528 159.596 335.005C158.726 334.482 157.674 334.226 156.458 334.226C155.234 334.226 154.193 334.482 153.324 335.005C152.449 335.528 151.737 336.234 151.185 337.115C150.631 338.003 150.228 339.036 149.97 340.212C149.705 341.384 149.576 342.628 149.576 343.93ZM141.21 343.93C141.21 341.491 141.539 339.3 142.192 337.357C142.842 335.413 143.81 333.764 145.087 332.417C146.365 331.067 147.958 330.026 149.854 329.303C151.756 328.578 153.957 328.212 156.458 328.212C158.952 328.212 161.152 328.578 163.054 329.303C164.956 330.026 166.546 331.067 167.824 332.417C169.101 333.764 170.066 335.413 170.722 337.357C171.375 339.3 171.698 341.491 171.698 343.93C171.698 346.338 171.375 348.515 170.722 350.462C170.066 352.408 169.09 354.062 167.801 355.423C166.51 356.788 164.914 357.834 163.009 358.557C161.113 359.285 158.921 359.648 156.458 359.648C153.957 359.648 151.768 359.285 149.877 358.557C147.997 357.834 146.404 356.788 145.11 355.423C143.818 354.062 142.842 352.408 142.192 350.462C141.539 348.515 141.21 346.338 141.21 343.93Z" fill="white"/>
<path d="M182.85 341.363H184.98C185.622 341.363 186.297 341.34 187.006 341.295C187.721 341.253 188.359 341.115 188.925 340.884C189.491 340.648 189.963 340.302 190.338 339.838C190.717 339.371 190.903 338.707 190.903 337.832C190.903 337.138 190.74 336.567 190.402 336.117C190.07 335.667 189.637 335.323 189.099 335.093C188.562 334.862 187.937 334.705 187.223 334.615C186.514 334.525 185.768 334.482 184.98 334.482H182.85V341.363ZM174.751 328.736H189.209C190.54 328.736 191.809 328.89 192.997 329.191C194.187 329.498 195.234 329.973 196.134 330.612C197.029 331.25 197.735 332.044 198.245 333C198.754 333.962 199.007 335.093 199.007 336.398C199.007 338.429 198.529 340.1 197.566 341.408C196.613 342.71 195.144 343.596 193.171 344.063V344.147C193.81 344.319 194.325 344.595 194.719 344.977C195.11 345.354 195.45 345.824 195.74 346.389C196.033 346.957 196.297 347.61 196.545 348.35C196.795 349.089 197.105 349.925 197.488 350.856L200.445 359.123H192.001L190.253 353.641C189.845 352.333 189.46 351.258 189.099 350.417C188.736 349.579 188.34 348.909 187.923 348.417C187.501 347.919 187.023 347.582 186.483 347.393C185.945 347.202 185.304 347.109 184.549 347.109H182.85V359.123H174.751V328.736Z" fill="white"/>
<path d="M203.931 328.735H212.029V353.117H224.573V359.125H203.931V328.735Z" fill="white"/>
<path d="M235.506 353.116H238.641C241.688 353.116 244.026 352.348 245.65 350.806C247.277 349.27 248.093 346.981 248.093 343.929C248.093 340.883 247.26 338.59 245.605 337.051C243.95 335.513 241.632 334.742 238.641 334.742H235.506V353.116ZM227.402 328.734H238.463C241.108 328.734 243.534 328.97 245.737 329.431C247.946 329.896 249.837 330.703 251.424 331.851C253.003 332.995 254.241 334.542 255.124 336.486C256.011 338.427 256.455 340.869 256.455 343.8C256.455 346.646 256.002 349.04 255.102 350.984C254.201 352.93 252.955 354.502 251.357 355.706C249.761 356.91 247.859 357.779 245.65 358.317C243.444 358.854 241.049 359.124 238.463 359.124H227.402V328.734Z" fill="white"/>
<path fill-rule="evenodd" clip-rule="evenodd" d="M0 328.735V359.125H9.46028V348.149H16.2727L18.6955 341.508H9.46028V335.354H20.9297L23.344 328.735H0Z" fill="white"/>
<path fill-rule="evenodd" clip-rule="evenodd" d="M26.2406 359.122H35.7009V328.732H26.2406V359.122Z" fill="white"/>
<path fill-rule="evenodd" clip-rule="evenodd" d="M42.2116 328.735V359.125H51.6775V348.149H58.4843L60.9071 341.508H51.6775V335.354H63.1413L65.5584 328.735H42.2116Z" fill="white"/>
<path fill-rule="evenodd" clip-rule="evenodd" d="M80.2934 349.202L76.5087 336.544L72.8563 349.202H80.2934ZM92.6491 359.125H83.0932L81.8579 355.041H71.1651L69.9805 359.125H60.6665L71.742 328.735H81.5793L92.6491 359.125Z" fill="white"/>
<defs>
<linearGradient id="paint0_linear_152542_2307" x1="148.912" y1="163.399" x2="177.442" y2="93.9597" gradientUnits="userSpaceOnUse">
<stop stop-color="#858380"/>
<stop offset="1" stop-color="#A19F9C"/>
</linearGradient>
<linearGradient id="paint1_linear_152542_2307" x1="164.134" y1="-1.98479" x2="202.774" y2="100.138" gradientUnits="userSpaceOnUse">
<stop stop-color="#9D9B98"/>
<stop offset="1" stop-color="#797775"/>
</linearGradient>
<linearGradient id="paint2_linear_152542_2307" x1="203.634" y1="78.0998" x2="90.7807" y2="272.947" gradientUnits="userSpaceOnUse">
<stop stop-color="#797775"/>
<stop offset="0.842522" stop-color="#F2EFEA"/>
<stop offset="1" stop-color="#F2EFEA"/>
</linearGradient>
<linearGradient id="paint3_linear_152542_2307" x1="152.142" y1="265.17" x2="152.142" y2="39.7745" gradientUnits="userSpaceOnUse">
<stop stop-color="#9D9B98"/>
<stop offset="1" stop-color="#F2EFEA"/>
</linearGradient>
<linearGradient id="paint4_linear_152542_2307" x1="229.379" y1="176.057" x2="170.611" y2="12.6015" gradientUnits="userSpaceOnUse">
<stop stop-color="#9D9B98"/>
<stop offset="1" stop-color="#F2EFEA"/>
</linearGradient>
<linearGradient id="paint5_linear_152542_2307" x1="225.628" y1="273.307" x2="136.322" y2="24.9131" gradientUnits="userSpaceOnUse">
<stop stop-color="#44433E"/>
<stop offset="1" stop-color="#F2EFEA"/>
</linearGradient>
<linearGradient id="paint6_linear_152542_2307" x1="170.744" y1="34.5147" x2="170.744" y2="145.388" gradientUnits="userSpaceOnUse">
<stop stop-color="#F2EFEA"/>
<stop offset="1" stop-color="#F2EFEA"/>
</linearGradient>
<linearGradient id="paint7_linear_152542_2307" x1="136.027" y1="29.3464" x2="172.295" y2="5.8432" gradientUnits="userSpaceOnUse">
<stop stop-color="#FAF6F2"/>
<stop offset="1" stop-color="#FFFBF7"/>
</linearGradient>
<linearGradient id="paint8_linear_152542_2307" x1="128.963" y1="10.0302" x2="170.235" y2="10.0302" gradientUnits="userSpaceOnUse">
<stop stop-color="#B0AEAB"/>
<stop offset="1" stop-color="#FAF6F2"/>
</linearGradient>
<linearGradient id="paint9_linear_152542_2307" x1="234.91" y1="33.7451" x2="178.433" y2="3.0921" gradientUnits="userSpaceOnUse">
<stop stop-color="#FFFBF7"/>
<stop offset="0.527027" stop-color="#FFFBF7"/>
<stop offset="1" stop-color="#B4B2AF"/>
</linearGradient>
<linearGradient id="paint10_linear_152542_2307" x1="140.761" y1="4.82925" x2="209.626" y2="4.82925" gradientUnits="userSpaceOnUse">
<stop stop-color="#CCC9C6"/>
<stop offset="1" stop-color="#FAF6F2"/>
</linearGradient>
<linearGradient id="paint11_linear_152542_2307" x1="126.079" y1="15.1506" x2="118.712" y2="142.894" gradientUnits="userSpaceOnUse">
<stop stop-color="#FFFBF7"/>
<stop offset="1" stop-color="#FFFBF7"/>
</linearGradient>
<linearGradient id="paint12_linear_152542_2307" x1="145.445" y1="201.945" x2="220.843" y2="201.945" gradientUnits="userSpaceOnUse">
<stop stop-color="#DAD7D3"/>
<stop offset="1" stop-color="#FAF6F2"/>
</linearGradient>
<linearGradient id="paint13_linear_152542_2307" x1="143.597" y1="94.1287" x2="141.073" y2="46.4037" gradientUnits="userSpaceOnUse">
<stop stop-color="#BBB8B5"/>
<stop offset="1" stop-color="#FAF6F2"/>
</linearGradient>
<linearGradient id="paint14_linear_152542_2307" x1="171.968" y1="24.9336" x2="171.968" y2="281.516" gradientUnits="userSpaceOnUse">
<stop stop-color="#DAD7D3"/>
<stop offset="0.512418" stop-color="#FFFBF7"/>
<stop offset="1" stop-color="#EEEBE7"/>
</linearGradient>
<linearGradient id="paint15_linear_152542_2307" x1="171.968" y1="9.88112" x2="171.968" y2="266.463" gradientUnits="userSpaceOnUse">
<stop stop-color="#DAD7D3"/>
<stop offset="0.512418" stop-color="#FFFBF7"/>
<stop offset="1" stop-color="#EEEBE7"/>
</linearGradient>
<linearGradient id="paint16_linear_152542_2307" x1="184.84" y1="268.67" x2="148.884" y2="120.745" gradientUnits="userSpaceOnUse">
<stop stop-color="#FAF6F2"/>
<stop offset="0.512418" stop-color="#FFFBF7"/>
<stop offset="0.677314" stop-color="#FFFBF7"/>
<stop offset="0.90099" stop-color="#EBE7E3"/>
<stop offset="1" stop-color="#CCC9C6"/>
</linearGradient>
<linearGradient id="paint17_linear_152542_2307" x1="136.077" y1="35.114" x2="111.813" y2="77.0068" gradientUnits="userSpaceOnUse">
<stop stop-color="#791426"/>
<stop offset="0.534653" stop-color="#AF1C3B"/>
<stop offset="1" stop-color="#791426"/>
</linearGradient>
<linearGradient id="paint18_linear_152542_2307" x1="131.472" y1="32.4465" x2="107.205" y2="74.3425" gradientUnits="userSpaceOnUse">
<stop stop-color="#791426"/>
<stop offset="0.534653" stop-color="#AF1C3B"/>
<stop offset="1" stop-color="#791426"/>
</linearGradient>
<linearGradient id="paint19_linear_152542_2307" x1="143.401" y1="39.3567" x2="119.138" y2="81.2484" gradientUnits="userSpaceOnUse">
<stop stop-color="#791426"/>
<stop offset="0.534653" stop-color="#AF1C3B"/>
<stop offset="1" stop-color="#791426"/>
</linearGradient>
<linearGradient id="paint20_linear_152542_2307" x1="144.001" y1="374.026" x2="235.549" y2="156.519" gradientUnits="userSpaceOnUse">
<stop stop-color="#791426"/>
<stop offset="0.534653" stop-color="#AF1C3B"/>
<stop offset="1" stop-color="#791426"/>
</linearGradient>
<linearGradient id="paint21_linear_152542_2307" x1="142.714" y1="108.445" x2="249.437" y2="347.39" gradientUnits="userSpaceOnUse">
<stop stop-color="#791426"/>
<stop offset="0.534653" stop-color="#AF1C3B"/>
<stop offset="1" stop-color="#791426"/>
</linearGradient>
</defs>
</svg>
