<svg width="98" height="24" viewBox="0 0 98 24" fill="none" xmlns="http://www.w3.org/2000/svg">
<g clip-path="url(#clip0_152542_2295)">
<path d="M86.0191 0.032959C84.0316 0.032959 82.4199 1.62425 82.4199 3.58662C82.4199 5.54921 84.0316 7.14027 86.0191 7.14027C88.0067 7.14027 89.6179 5.54921 89.6179 3.58662C89.6179 1.62425 88.0067 0.032959 86.0191 0.032959ZM94.3494 8.40856C92.3619 8.40856 90.7506 9.99985 90.7506 11.9622C90.7506 13.925 92.3619 15.5159 94.3494 15.5159C96.3371 15.5159 97.9484 13.925 97.9484 11.9622C97.9484 9.99985 96.3371 8.40856 94.3494 8.40856ZM77.6888 8.40856C75.7013 8.40856 74.0896 9.99985 74.0896 11.9622C74.0896 13.925 75.7013 15.5159 77.6888 15.5159C79.6764 15.5159 81.2876 13.925 81.2876 11.9622C81.2876 9.99985 79.6764 8.40856 77.6888 8.40856ZM86.0191 8.40856C84.0316 8.40856 82.4199 9.99985 82.4199 11.9622C82.4199 13.925 84.0316 15.5159 86.0191 15.5159C88.0067 15.5159 89.6179 13.925 89.6179 11.9622C89.6179 9.99985 88.0067 8.40856 86.0191 8.40856ZM86.0191 16.7843C84.0316 16.7843 82.4199 18.3756 82.4199 20.3379C82.4199 22.3006 84.0316 23.8914 86.0191 23.8914C88.0067 23.8914 89.6179 22.3006 89.6179 20.3379C89.6179 18.3756 88.0067 16.7843 86.0191 16.7843Z" fill="#8D1B3D"/>
<path d="M40.5552 10.0608V5.23085H49.5555L51.4497 0.0330811H33.129V23.8916H40.5552V15.2747H45.9009L47.8012 10.0608H40.5552ZM57.1769 16.1016L60.0457 6.16298L63.0142 16.1016H57.1769ZM56.3026 0.0330811L47.6099 23.8916H54.9219L55.8508 20.6866H64.2421L65.2125 23.8916H72.712L64.0234 0.0330811H56.3026ZM20.5934 23.8916H28.0191V0.0330811H20.5929L20.5934 23.8916ZM0 23.8916H7.42622V15.2747H12.7721L14.6724 10.0608H7.42622V5.23085H16.4265L18.321 0.0330811H0V23.8916ZM67.0011 0.798536C67.0461 0.686844 67.107 0.590248 67.1842 0.508958C67.2615 0.427453 67.3517 0.36449 67.455 0.319425C67.5584 0.274791 67.6696 0.252151 67.7884 0.252151C67.9072 0.252151 68.0185 0.274791 68.1218 0.319425C68.225 0.36449 68.3154 0.427453 68.3925 0.508958C68.4698 0.590248 68.5308 0.686844 68.5756 0.798536C68.6205 0.910229 68.6432 1.03162 68.6432 1.16315C68.6432 1.29468 68.6205 1.41629 68.5756 1.52777C68.5308 1.63946 68.4698 1.73605 68.3925 1.81735C68.3154 1.89885 68.225 1.96203 68.1218 2.00688C68.0185 2.05172 67.9072 2.07415 67.7884 2.07415C67.6696 2.07415 67.5584 2.05172 67.455 2.00688C67.3517 1.96203 67.2615 1.89885 67.1842 1.81735C67.107 1.73605 67.0461 1.63946 67.0011 1.52777C66.9562 1.41629 66.9337 1.29468 66.9337 1.16315C66.9337 1.03162 66.9562 0.910229 67.0011 0.798536ZM66.9901 1.96139C67.0923 2.0638 67.2118 2.14466 67.3485 2.20396C67.4853 2.26347 67.6318 2.29323 67.7884 2.29323C67.9449 2.29323 68.0916 2.26347 68.2282 2.20396C68.3647 2.14466 68.4844 2.0638 68.5866 1.96139C68.6891 1.85918 68.77 1.73972 68.8292 1.60302C68.889 1.46632 68.9184 1.31969 68.9184 1.16315C68.9184 1.00661 68.889 0.859989 68.8292 0.723285C68.77 0.586581 68.6891 0.467127 68.5866 0.364705C68.4844 0.262717 68.3647 0.181643 68.2282 0.122132C68.0916 0.0628356 67.9449 0.0330811 67.7884 0.0330811C67.6318 0.0330811 67.4853 0.0628356 67.3485 0.122132C67.2118 0.181643 67.0923 0.262717 66.9901 0.364705C66.8879 0.467127 66.8071 0.586581 66.7475 0.723285C66.688 0.859989 66.6581 1.00661 66.6581 1.16315C66.6581 1.31969 66.688 1.46632 66.7475 1.60302C66.8071 1.73972 66.8879 1.85918 66.9901 1.96139ZM67.5911 0.699781H67.8039C67.8354 0.699781 67.8663 0.70194 67.8964 0.706036C67.9266 0.710349 67.9543 0.718542 67.9795 0.731047C68.0044 0.74377 68.0248 0.76145 68.0405 0.784305C68.0562 0.807378 68.0639 0.837565 68.0639 0.875083C68.0639 0.918855 68.0566 0.953352 68.0419 0.978365C68.0274 1.00359 68.0081 1.02214 67.984 1.03486C67.9601 1.04736 67.9324 1.05556 67.9012 1.05987C67.8697 1.06397 67.8362 1.06612 67.801 1.06612H67.5911V0.699781ZM67.5911 1.24768H67.7353L68.067 1.79859H68.3113L67.9669 1.23819C68.0733 1.22784 68.1556 1.19549 68.2143 1.14116C68.2725 1.08704 68.3018 1.00446 68.3018 0.893842C68.3018 0.758431 68.2615 0.661835 68.1813 0.604264C68.1008 0.546908 67.9835 0.518229 67.8291 0.518229H67.3533V1.79859H67.5911V1.24768Z" fill="#8D1B3D"/>
</g>
<defs>
<clipPath id="clip0_152542_2295">
<rect width="98" height="24" fill="white"/>
</clipPath>
</defs>
</svg>
