<svg width="61" height="45" viewBox="0 0 61 45" fill="none" xmlns="http://www.w3.org/2000/svg">
<g clip-path="url(#clip0_152542_2261)">
<path d="M0.666565 22.4999H60.6666V44.9999H0.666565V22.4999Z" fill="#00AB39"/>
<path d="M0.666809 0H60.6668V22.5H0.666809V0Z" fill="white"/>
<path d="M39.9476 6.63744H39.9382H39.9476ZM39.9382 6.63744C36.2248 8.63588 32.7145 10.9907 29.457 13.6687C27.8632 15.0656 28.3132 16.1718 28.2476 17.4187C28.3038 18.2624 28.0695 19.0499 27.5538 19.5187L24.0101 20.2312L23.6726 19.2562C23.7757 18.7499 24.1882 18.5062 25.0695 18.8156C25.1351 18.1781 24.6101 17.9156 24.0101 17.6906C23.7945 17.5218 23.5413 17.4093 23.5695 16.8468C23.4757 15.5812 25.5007 16.9406 25.5195 16.9406C25.5382 16.9406 25.4445 15.6562 24.5163 15.4031C24.0101 15.2249 23.7945 14.6906 23.9913 14.2968C24.3945 13.4812 25.1632 14.3531 25.7445 14.3906C25.7257 13.8562 25.5757 13.4812 25.1163 13.0593C24.8726 12.8999 24.2726 12.7874 24.2538 12.5343C24.2445 12.1968 24.8163 12.0468 25.6132 12.1406C25.4445 11.6624 24.9101 11.3531 24.1788 11.1281L23.7476 10.3687C23.5413 9.99369 23.4476 9.97494 23.9257 9.26244C24.3476 8.98119 24.9195 8.58744 25.3507 8.31557L24.882 8.25932C24.9382 7.74369 24.9476 7.56557 25.0695 6.71244C24.6007 7.34057 24.0382 7.22807 23.5132 7.48119C23.5132 7.48119 22.0507 7.74369 21.5726 8.37182L17.8788 8.18432C17.0913 8.28744 16.4257 8.51244 16.2945 9.27182C14.5038 9.45932 12.6288 9.29994 11.2601 11.0062C12.1976 10.9687 13.0038 10.7437 14.0538 10.8749C14.0538 10.8749 14.9445 10.8937 15.1226 11.8406C15.1413 11.8781 15.432 11.8781 15.432 11.8781L15.7695 12.1406L15.9007 11.7843L16.2007 11.9906L16.2945 11.5968L16.5945 11.8031L16.6132 11.3343L17.007 11.6156V10.9874C17.007 10.9874 18.4695 10.9874 18.9195 11.9249C18.9382 11.9343 14.8226 12.6749 10.8476 12.3281L11.9913 11.7656C10.5476 11.4656 9.17883 11.2031 7.90383 10.1999C8.38196 12.0187 10.8757 14.1468 11.3913 14.1374L10.9038 13.2562L15.2163 13.4437C15.3757 13.9218 15.3101 14.4562 15.6851 14.8781C15.6851 14.8781 15.4507 15.6656 15.9851 15.9843C16.0038 16.0218 16.6132 14.3906 16.6132 14.3906C16.6132 14.3906 16.8007 14.8312 16.9882 15.1218C17.2695 13.7156 18.807 13.4812 18.807 13.4812L19.1257 14.2312C18.6476 14.3062 18.0476 15.2812 18.3757 15.8249C18.0476 15.8249 17.4757 16.7718 17.6538 17.2874C17.382 17.5593 16.7163 17.9156 16.8757 19.0499C16.3507 19.1624 16.032 20.1281 16.2007 21.1593C15.3757 21.9187 15.582 23.3156 16.3132 23.8874C16.0132 24.1687 15.8257 24.3656 15.8257 24.7031C15.5351 24.5999 15.2632 24.6843 15.1413 24.8718C14.7851 24.5062 14.2788 24.1968 13.9226 24.5343C13.8288 24.1031 13.2663 23.6343 12.657 23.6906C12.682 23.4207 12.6112 23.1505 12.4569 22.9277C12.3026 22.7048 12.0747 22.5434 11.8132 22.4718C11.8132 22.4718 11.6726 20.3531 11.0351 19.6593C10.9695 19.2843 11.0726 19.0218 11.5976 18.7031C12.132 18.4218 12.2445 18.2062 12.1976 17.3999C12.4132 16.8656 12.5726 16.3218 11.9163 15.9562C11.9351 16.5937 11.7476 16.8937 11.4851 17.1749C11.1757 17.1374 11.0726 17.4937 10.8663 17.6437C10.5757 17.2593 11.4757 16.6499 10.8101 15.7781C10.7726 15.7406 10.3413 14.6531 9.28196 14.6718C9.77883 14.9624 9.99446 15.4593 9.99446 15.9749C9.60372 16.839 9.54368 17.8164 9.82571 18.7218C9.38508 18.0656 9.13196 16.8093 8.76633 16.5937C8.44758 16.5281 8.29758 15.7781 7.05071 15.9937C7.58508 16.1343 7.76321 16.5468 7.89446 16.9124C7.57571 17.0812 7.73508 17.5312 7.97883 17.8406C7.93196 18.5624 8.36321 18.9843 9.01008 19.2468L8.69133 22.2187C8.43821 22.1906 8.03508 23.1937 7.88508 23.2218C7.63196 23.3812 7.19133 23.8031 7.69758 23.9249C7.54758 24.4593 7.40696 24.7874 6.60071 24.8999C6.60071 24.8999 7.44446 25.4062 8.15696 24.5437C8.90696 24.5249 8.66321 23.6249 9.02883 23.2312C9.02883 23.2031 9.24446 23.0718 9.54446 22.2749C9.67571 22.9874 10.407 25.1624 12.0476 26.2406C13.482 27.7781 14.6726 29.2312 14.6538 31.2749C15.2046 30.6692 15.6003 29.939 15.807 29.1468C16.7423 28.8662 17.7196 28.752 18.6945 28.8093C18.5257 29.1749 18.3288 29.5218 18.5726 29.7468C17.8788 29.9906 17.7288 30.4968 18.0101 30.9937C17.2788 31.4906 17.232 31.8093 17.2226 32.6343C15.8632 34.3687 15.0288 34.3124 13.6882 33.8531C13.257 33.5999 12.5632 33.2343 12.2538 33.4312C11.682 33.0374 10.8476 32.9812 10.707 33.8624C11.1476 33.4968 11.4007 33.5718 11.7476 33.9187C11.682 34.0968 11.6257 34.2656 11.8788 34.3687L11.5413 34.7437C10.9226 34.6499 10.0788 34.6499 9.86321 35.5593C10.182 35.2874 10.8945 35.2312 11.457 35.4843L11.7851 35.5968L11.8226 36.0281C11.8226 36.0281 10.9788 35.8968 10.7538 37.2749C11.5413 36.4312 12.1038 36.6468 12.1038 36.6468C12.4132 37.0968 13.5382 37.0312 14.3538 36.2906C15.4882 35.6531 15.8257 36.5718 16.557 35.9718C17.1663 35.5218 17.8882 35.8218 18.3851 36.3468C18.957 36.5625 19.557 36.7406 20.0257 36.3468C20.0257 36.3468 20.607 35.9812 21.1788 36.5718C21.1788 35.9156 20.7101 35.5499 20.0726 35.5406L19.8851 35.3531C19.2757 35.2218 18.6007 35.2781 18.0663 34.9781C18.2736 34.0316 18.7299 33.1577 19.3882 32.4468C20.2601 31.5093 20.907 31.0781 22.0132 29.6437C21.9663 30.4593 22.5851 31.3593 22.9132 32.1749C22.9132 32.1749 23.5695 31.1343 23.6632 30.2718C23.6913 30.2718 24.4976 29.8593 24.8351 29.4937C25.5663 29.9531 26.7476 29.1374 27.5163 28.4624C27.9851 28.6499 28.3507 28.6312 28.8945 28.4624C28.4538 29.3624 29.1476 30.1968 30.2538 30.5437C30.3476 31.3312 31.1538 31.4999 32.3632 31.4999C32.4195 31.9687 33.1413 32.0343 33.1413 32.0343C32.6726 32.2406 32.4476 32.4562 32.457 32.9343C31.9882 32.9343 31.6413 33.0562 31.5195 33.5906C30.8726 33.6093 30.2163 33.6562 29.6632 33.9656C29.0726 33.8812 28.3507 33.6374 27.8913 33.1593C27.657 32.9625 27.5913 32.6718 27.1788 32.5593C26.9163 32.2499 26.5976 32.3156 26.4945 32.6156C26.2226 32.3999 25.2007 32.3062 25.0226 33.2718C25.5101 32.9249 25.932 32.7937 26.2413 33.2249C26.0726 33.5156 26.6351 33.6937 27.1226 33.8062C27.4695 33.8249 28.0788 34.1437 28.2663 34.6687C28.0034 34.7448 27.727 34.7624 27.4565 34.7203C27.186 34.6782 26.9281 34.5774 26.7007 34.4249C26.532 34.2843 26.3228 34.2012 26.1036 34.1877C25.8844 34.1742 25.6666 34.231 25.482 34.3499C25.0695 34.0874 24.1038 34.5843 24.0663 35.3718C24.4695 34.9968 24.8445 34.8093 25.2195 35.0531C25.032 35.0906 25.0976 35.1093 25.1257 35.2218L26.0632 35.7656C25.5945 35.8874 25.1632 36.0749 25.3695 36.9375C25.3695 36.9375 25.7445 36.1874 26.5882 36.4687C26.607 36.4406 26.7101 36.7312 26.9538 36.5343C27.3195 36.1218 28.1538 35.9343 28.8945 35.8593C29.4851 35.7937 30.0757 35.6156 30.582 35.9531C31.0507 35.7187 31.557 35.5593 32.082 35.9343C32.7007 36.1218 33.1507 36.8531 33.9288 36.5249C34.3226 36.2437 34.8007 36.2437 35.2882 36.7874C35.2882 36.0937 34.7726 35.8593 34.0413 35.7093L33.5351 35.4093C33.0663 35.3343 32.5976 35.4187 32.1195 35.1937C33.2404 34.9248 34.2964 34.4347 35.2253 33.7521C36.1542 33.0695 36.9374 32.2082 37.5288 31.2187L38.7007 31.6312C38.982 31.6499 39.0007 31.7437 39.5726 31.9124C39.5913 31.0781 39.2257 30.2156 37.7163 30.1312L35.7476 29.3812C35.3163 28.9312 35.1288 27.9843 35.6632 27.4312C36.1882 26.9624 36.282 27.0187 36.6288 26.4468C37.0507 26.4093 37.4445 26.8406 37.8288 26.8406C38.0163 27.3937 39.0851 27.8718 39.7601 27.7124C40.182 28.0874 40.9788 28.2937 41.8695 27.9937C42.1232 28.2305 42.4431 28.3842 42.7865 28.4345C43.1299 28.4847 43.4804 28.4291 43.7913 28.2749C43.9976 28.4812 44.4288 28.6499 44.9163 28.5374C44.9632 28.5374 45.1788 29.0812 45.7132 29.2781C45.4788 29.5031 45.6195 30.4968 45.8726 30.8624C45.6913 31.2334 45.661 31.6602 45.7882 32.0531C45.2445 32.3999 45.132 32.6625 45.3757 33.2531C44.6632 34.4062 43.8101 34.5375 43.0038 34.1906L42.132 33.6281L41.2132 32.7281C41.0538 32.5781 40.7257 32.5406 40.6601 32.8593C40.6601 32.8593 39.4788 32.5968 39.3757 33.5999C39.8726 33.1218 40.5663 33.5437 40.5663 33.5624C40.5663 33.5812 40.3976 33.6937 40.5288 33.8812C40.557 33.8531 41.4007 34.1906 42.1413 34.5093C42.5445 34.6687 42.6382 34.7156 42.8163 34.8093C42.5925 34.7067 42.3675 34.6067 42.1413 34.5093C41.816 34.3593 41.467 34.2673 41.1101 34.2374C40.6976 34.1999 40.2476 34.1437 40.0413 34.4624C39.5913 34.6499 38.8788 34.8093 38.9163 35.6531C39.2163 35.1468 39.6382 35.1749 40.1726 35.2218L40.1351 35.3343C40.7163 35.5968 40.6038 35.2593 41.1476 35.2124C41.6358 35.2051 42.1215 35.2844 42.582 35.4468C42.1601 35.5687 41.5788 35.5124 41.307 35.8218C41.2507 35.9156 41.0726 35.8781 41.157 36.1218C41.157 36.1218 40.3132 36.1031 40.0976 37.2468C40.9413 36.7124 41.5882 36.7312 41.5976 36.7312L41.8695 36.7874L42.9007 36.1031C42.9288 36.1031 43.8945 35.6718 44.3351 36.1593C44.7288 36.3468 45.1413 36.3656 45.5538 36.1218C46.3413 35.7749 47.082 35.7468 47.8038 36.2343L48.4695 36.6281L48.7507 36.4406C48.7507 36.4406 49.5007 36.2343 50.0445 36.8999C49.8195 35.7468 48.9945 35.7093 48.9945 35.7093L48.807 35.5406L47.6445 35.0812C47.4663 34.6593 47.0445 34.3312 47.4663 33.8249C47.907 31.6593 48.4226 30.0374 47.5788 27.8437C48.3663 28.1812 48.957 29.2312 49.9413 28.8656C49.9413 27.9843 46.6976 26.3062 44.2226 24.9656C48.2913 24.7499 53.1663 21.7593 51.2913 17.9531L52.1726 15.1968C52.5945 16.0406 53.4382 16.6781 54.1976 16.9499C53.5695 15.7593 53.2132 12.1124 53.5695 9.59994C51.911 11.5909 50.1227 13.47 48.2163 15.2249C49.1538 15.4499 49.9882 15.2906 50.8976 15.1781L50.1288 16.7718C47.6351 15.2999 44.7101 16.3968 44.6913 18.3468C44.7757 20.6156 47.5788 20.9437 49.2007 20.1468C48.882 22.2187 44.1195 21.4593 44.1195 21.4593C42.432 20.8781 40.8288 20.9718 39.057 20.9906C39.4226 19.8562 41.4663 18.8437 43.032 19.2937C40.8476 16.8374 43.3413 13.7906 46.3507 12.8624C43.0695 11.7749 45.8913 9.27182 48.3476 7.48119C48.3476 7.48119 41.2882 10.4531 40.6413 10.4437C38.6351 10.2937 39.1788 7.91244 39.9476 6.63744H39.9382ZM17.7757 9.48744C17.9445 9.48744 18.132 9.50619 18.2913 9.54369C18.6101 9.62807 18.9945 9.66557 18.9945 9.76869C18.8445 10.0124 18.4788 10.3031 18.1226 10.2937C17.7663 10.2749 17.5601 10.0593 17.4476 9.52494C17.4851 9.50619 17.6163 9.48744 17.7757 9.48744ZM47.4945 17.8687C47.9632 17.8687 48.5163 18.0562 49.0507 18.6374C48.7976 19.3874 46.5382 19.7624 46.3882 18.6562C46.3413 18.3187 46.8195 17.8781 47.4945 17.8687Z" fill="#D21034" stroke="black" stroke-width="0.146398"/>
<path d="M20.1101 16.0498L20.457 16.5467M20.4383 16.5561C20.4383 16.5561 20.4383 17.2311 20.5789 17.2404M20.2695 17.6061L20.6258 18.1967M19.6414 18.3467C19.6601 18.3467 20.082 18.8342 20.082 18.8342M20.4476 18.4592C20.4476 18.4779 20.8414 19.2186 20.8695 19.2186M19.932 18.9748C19.932 18.9748 20.0633 19.8748 20.1851 19.8467M19.3414 20.6248L19.7351 21.2342M20.082 19.9873C20.082 19.9873 20.2976 20.8404 20.4664 20.7654M20.6445 19.4717C20.6539 19.4904 21.0476 20.0436 21.1508 19.9686M21.057 20.1842L21.432 20.9342M20.4383 20.7654L20.7476 21.6467M19.7164 21.2154C19.7164 21.2154 19.9976 22.1623 20.2508 22.0123M19.6133 22.4811C19.6133 22.4811 19.632 22.9779 19.8758 23.0061M20.0445 22.2279C20.0445 22.2467 20.2976 22.5842 20.2976 22.5842M20.7664 21.6373L20.9633 21.9654M21.4226 21.0279L21.732 21.4123M19.9789 16.5654C19.9883 16.9873 20.6539 16.4154 20.9164 16.0592M19.6976 18.0279C19.6976 18.0279 20.4195 17.5123 20.982 16.7342M19.4539 19.2561C19.9695 19.1154 20.9164 17.9717 21.1039 17.3623M19.3508 20.3904C19.4914 20.4561 21.2539 19.1717 21.3008 18.2436M19.3039 21.3748C19.3039 21.3654 20.9164 20.9623 21.582 19.1904M19.2289 22.7154C19.2289 22.7154 21.807 21.1686 21.9476 20.0342M39.3289 25.3123C39.3289 25.3123 39.1601 26.6436 37.8289 26.8498M39.7508 27.6936C39.7601 27.6748 41.0258 26.2873 40.6976 25.8654M42.6758 26.3529C42.6758 26.3529 42.657 27.3186 41.8695 27.9842M44.2508 26.6342C44.2508 26.6342 44.2789 27.7967 43.782 28.2654M45.6945 27.3279C45.6945 27.3279 45.132 28.4248 44.9351 28.5373M45.6758 29.2686C45.6758 29.2686 46.407 29.4561 46.6414 28.9686M45.8633 30.8529C45.8633 30.8529 46.5383 30.9748 46.857 30.3279M45.7883 32.0811C45.7883 32.0811 46.3414 32.5498 46.7164 31.9311M37.9039 23.0811C37.9039 23.0811 37.8383 25.4529 41.1664 25.9311C44.8883 26.9623 46.6508 26.4186 46.8664 30.5904C46.7258 32.1842 46.5289 33.9654 45.3664 33.2811M34.3601 25.2654C34.3601 25.2654 34.8945 26.2123 35.532 26.1467C36.3758 25.9029 36.6851 26.4186 36.6851 26.4186M32.0914 26.2123C32.0914 26.2123 33.4976 26.8967 34.6883 25.7904M32.2508 25.2279C32.3726 26.8686 30.3664 27.8061 29.5695 27.6467M32.3445 31.4904C32.3539 31.4904 33.432 30.8529 33.2164 30.4029M30.207 30.5436C30.2351 30.5061 32.0164 30.3373 32.3445 29.6998M29.382 27.9186C29.382 27.9186 31.9039 27.9373 32.0726 28.3967M32.7289 26.4279C32.7289 26.4279 30.2726 30.6373 34.8101 30.6373M30.1226 26.3717C30.1226 26.3717 29.5976 27.9373 28.8476 28.4717M27.5164 25.8279C27.5164 25.8279 28.4258 27.5904 27.5164 28.4623M25.1351 26.3248C25.1445 26.3529 25.4258 28.8279 24.807 29.5311M23.9445 26.3998C23.9445 26.3998 24.0383 27.9748 23.5695 28.5373C23.1008 29.0998 23.682 30.2623 23.682 30.2623M18.0101 31.0123C18.0101 31.0123 18.3476 31.6029 18.807 31.3967M18.5726 29.7279C18.5726 29.7279 19.3226 30.0561 19.5758 29.9342M19.3883 27.0842C19.3883 27.0842 18.282 27.3936 18.7039 28.7061C19.3414 29.2217 19.9601 29.1373 19.9601 29.1373M17.2039 32.6436C17.1945 32.6436 17.3351 33.6748 18.0476 32.8967C18.5445 31.8467 20.1101 28.9029 20.4758 27.8904M21.207 27.4123C21.207 27.4123 20.4476 26.8217 20.4758 27.6467C20.457 28.1623 20.7101 28.2842 20.7101 28.2842C20.7383 28.6592 21.0664 29.1842 21.3289 28.7061C21.4414 28.2373 21.2539 28.0311 21.2539 28.0311M21.6945 27.1873C21.0101 27.1498 20.6351 28.6592 21.957 27.7123M22.407 26.6811C22.407 26.6811 22.2383 26.9154 21.9664 26.6623C21.8258 26.4186 21.3289 27.7873 22.2008 27.8342C22.3601 27.4311 22.8383 27.3186 22.8383 27.3186M23.2508 26.0248C23.2508 26.0248 22.857 26.2123 22.7164 26.1842C22.2476 26.2873 22.3414 27.3842 22.932 27.3186C23.1383 27.0842 23.3539 26.7561 23.3539 26.7561M19.5758 24.5998C19.557 24.5998 18.0289 27.0092 20.4289 27.6467M38.9914 20.9904C38.9914 20.9904 38.0539 21.7779 38.9258 23.0529C36.0195 23.0061 34.4726 24.3467 34.3508 25.2467C30.657 24.9842 31.332 26.0717 30.132 26.4279C28.5289 25.0873 26.1758 25.8373 26.3258 27.1779C25.257 25.6686 23.607 26.3998 23.4008 26.7748C23.2039 27.1498 23.2789 24.9186 23.2789 24.9186C23.2789 24.9186 22.2008 25.4061 21.4601 26.2873V24.4217C20.5601 24.6092 19.6883 24.6092 18.7601 24.5904M16.332 23.9061C16.332 23.9061 17.6726 24.6561 19.332 23.6436M16.2289 21.2154C16.2289 21.2154 17.2601 22.1529 19.2289 21.8529M16.8851 19.0686C16.8851 19.0686 17.1101 19.8279 19.3508 19.8748M17.6351 17.3061C17.6351 17.3061 18.4789 18.3373 19.6226 18.1779M18.357 15.8342C18.357 15.8342 18.6851 16.3967 19.932 16.4904M19.0883 14.1936C19.0883 14.1936 19.7445 14.9061 20.4945 14.7842M22.9789 8.37169C22.9789 8.37169 23.2695 8.09044 23.757 8.23106M22.7726 9.89981C22.7726 9.89981 21.8726 9.87169 21.9289 9.52481C22.0039 9.11231 22.8851 8.82169 22.8851 8.82169C22.8851 8.82169 24.057 8.07169 24.2351 7.80919M18.9289 11.9342L20.0726 14.1186L20.6164 13.2936L20.8976 13.8561L21.3664 13.0404L22.1726 13.5561L21.8726 12.5529L22.5476 12.5061C22.5476 12.5061 22.3601 12.0279 21.7601 11.9248C21.9195 11.8029 22.482 11.4279 22.482 11.4279C22.482 11.4279 22.1633 11.0529 21.657 11.0436C21.8258 10.8654 22.0508 10.4342 22.032 10.4342L21.5351 10.3217C21.5351 10.3217 22.6789 10.6967 23.5601 10.1717M21.3851 8.40919C21.3945 8.41856 21.3195 8.85919 21.0758 9.11231M16.9789 9.60919C16.9789 9.60919 17.682 9.42169 18.207 9.52481C18.732 9.63731 19.4351 9.82481 19.4351 9.82481C19.4351 9.82481 20.2789 9.71231 20.5508 9.51544M15.2258 10.0779C15.2258 10.0779 15.132 10.4154 15.0945 10.6404C15.0945 10.7998 14.5789 11.0154 14.5789 11.0154M15.5445 9.38419C15.5445 9.38419 15.9945 9.94669 16.0133 10.2748C16.0226 10.5936 15.6758 10.8373 15.6758 10.8373M10.8851 13.2186L10.4164 12.4686L10.8383 12.3186M19.3226 23.6623C18.9476 23.1748 19.6039 15.7686 20.982 13.8373C20.5039 17.3248 22.107 20.8873 22.5101 20.8686M15.1039 11.7748C15.1039 11.7748 15.7414 12.0092 17.0445 10.9686M18.8164 13.4811L19.7539 13.4904M47.907 7.67794C47.907 7.67794 32.2789 14.9717 32.0539 15.3654C34.6883 14.5592 45.882 12.6936 46.1539 12.8529C45.4976 13.0123 31.9133 16.1342 31.2758 16.8842C34.6695 16.7717 41.7664 17.9717 42.882 19.1342C40.4633 18.5904 33.2539 17.5311 31.0414 17.9998C32.6539 18.3842 38.8414 22.3873 38.8414 23.0248C37.9039 22.1342 30.4695 19.0686 30.1789 19.3686C31.8851 20.3904 34.2945 24.1873 34.2945 25.1154C33.7976 24.3279 29.4945 19.7061 29.2414 20.0061C29.7008 20.6342 30.6008 26.0904 30.1414 26.3436C30.1414 25.6873 28.4726 20.9061 28.332 20.7748C27.9945 20.8686 25.8664 26.5873 26.2883 27.1311C26.007 25.2186 26.3351 21.2248 26.8508 21.3842C25.9133 21.5248 22.9414 25.4529 23.2601 26.0717C23.3539 25.0873 23.4851 24.4404 25.1726 21.1873C23.2976 21.2998 19.4351 23.7279 18.7789 24.5998C19.3039 23.0529 22.5758 20.4373 24.0101 20.2498M30.7601 14.5592C32.4101 13.6404 37.5101 11.7748 40.9226 10.3967M27.5539 19.4904C27.5539 19.4904 28.6789 19.4717 29.8039 16.4154C30.9101 12.2342 39.7133 7.57481 39.8914 6.70294M12.6664 23.6998C12.6664 23.6998 12.4039 24.2623 12.0851 24.4123M13.932 24.5436C13.932 24.5436 13.5851 25.2186 13.5008 25.5373M15.1414 24.8811C15.1414 24.8811 15.4226 25.7998 15.1883 26.2311M11.7758 22.4717C10.8945 22.9686 12.282 26.1279 16.4726 26.4279M15.7976 24.7217C15.7976 24.7217 15.6851 25.2842 16.4726 26.4092C16.2476 27.6654 17.4289 28.6498 17.8976 28.8092M15.4601 13.4154L15.5914 13.0779L15.732 13.4529L15.9664 13.4436L16.1164 13.0686L16.2476 13.4436H16.4726L16.6133 13.0311L16.8289 13.4248H17.0164L17.157 12.9561L17.4383 13.2936L17.5508 13.2561L17.6445 12.7686L17.9351 13.1061L18.0289 13.0592L18.1601 12.5904L18.3945 12.9373L18.5164 12.8998L18.6289 12.4967L18.8539 12.8717M15.1976 13.4529L16.9601 13.4248C17.5226 13.4248 18.4414 12.6467 19.4633 12.8904M11.5039 17.2029C11.5039 17.2029 11.7945 17.8404 12.1976 17.4842M10.8289 17.6248C10.8289 17.6248 10.2664 19.1436 10.9414 19.4998M10.0226 15.9561C10.0226 15.9561 10.0226 16.3123 10.7726 15.7686M7.72577 23.8967C7.72577 23.8967 8.31639 24.0842 8.22264 24.5248M7.94139 16.9498C7.94139 16.9498 8.31639 17.1279 8.67264 16.5748M11.8789 34.3592C12.4508 34.3217 12.582 34.5842 13.0976 34.5842C13.7164 34.6029 14.307 34.3592 15.0664 34.1436M20.0445 35.5498C20.0258 35.5498 19.7633 36.0936 19.9976 36.3654M11.7945 35.5967C11.7945 35.5967 12.7133 34.8467 13.2008 35.3061C13.6601 35.4654 13.9133 35.4373 13.9133 35.4373M12.2726 33.4404C12.2726 33.4404 12.4976 34.0217 11.7476 33.9373M11.5226 34.7811C11.5226 34.7811 12.0008 35.0811 11.457 35.4842M11.8133 36.0279C11.8133 36.0279 12.4695 36.1217 12.0851 36.6561M32.4664 32.9154C33.132 33.4498 32.8601 33.7686 34.9601 32.3623M31.5101 33.5811C31.5101 33.5811 32.4945 34.6498 33.2164 33.3561M29.6258 33.9654L28.2851 34.6686M25.8851 35.6529C25.8851 35.6529 26.7008 34.9592 27.0758 35.3248C27.4601 35.6998 29.0726 35.0061 29.0726 35.0061M26.4945 32.6248C26.4945 32.6248 26.7758 33.1873 26.232 33.2529M25.4351 34.3686C25.4351 34.3686 25.7164 34.8936 25.1726 35.0248M26.0633 35.7842C26.0633 35.7842 26.907 35.8311 26.607 36.4686M33.957 35.6717C33.957 35.6717 33.4883 36.0654 33.8351 36.5154M40.6789 32.8592C40.6789 32.8592 41.2133 33.1217 40.5758 33.5623M40.0414 34.4904C40.0414 34.4904 40.4445 34.9123 40.1726 35.2592M41.1664 36.1029C41.1664 36.1029 41.7195 36.2623 41.6539 36.7217M48.9476 35.6904C48.9476 35.6904 48.4789 36.0373 48.732 36.4779M40.6976 22.1529C41.8039 22.0217 43.3976 24.4967 44.2133 24.9748M49.0789 18.6561C49.0789 18.6561 49.6414 19.1529 49.1445 20.3436M50.1195 16.7623C50.2789 16.8842 50.8789 17.2123 51.282 17.9623M51.6664 13.0686L50.8883 15.1779M52.5383 12.9654C52.5383 12.9654 52.3883 14.8404 52.1633 15.2154M33.1039 32.0248C33.1039 32.0248 34.8851 32.2123 34.9789 32.3436C35.1851 32.1279 36.7789 30.8248 34.8195 30.6467C34.7292 31.0354 34.5111 31.3825 34.2 31.6324C33.8889 31.8823 33.5029 32.0205 33.1039 32.0248V32.0248ZM49.0414 18.6373C48.7883 19.3873 46.5289 19.7623 46.3789 18.6561C46.2945 18.0936 47.7101 17.2217 49.0414 18.6373Z" stroke="black" stroke-width="0.146398" stroke-linejoin="round"/>
<path d="M17.7568 9.49682L18.6287 9.6562C18.6287 9.6562 18.0193 10.4812 17.7568 9.49682Z" fill="black" stroke="black" stroke-width="0.146398" stroke-linejoin="round"/>
</g>
<defs>
<clipPath id="clip0_152542_2261">
<rect width="60" height="45" fill="white" transform="translate(0.666748)"/>
</clipPath>
</defs>
</svg>
