<svg width="61" height="45" viewBox="0 0 61 45" fill="none" xmlns="http://www.w3.org/2000/svg">
<g clip-path="url(#clip0_152542_2264)">
<path fill-rule="evenodd" clip-rule="evenodd" d="M0.666748 -6.10352e-05H86.1667V3.46869H0.666748V-6.10352e-05ZM0.666748 6.92806H86.1667V10.3968H0.666748V6.92806ZM0.666748 13.8468H86.1667V17.3156H0.666748V13.8468ZM0.666748 20.7656H86.1667V24.2343H0.666748V20.7656ZM0.666748 27.7031H86.1667V31.1531H0.666748V27.7031ZM0.666748 34.6124H86.1667V38.0812H0.666748V34.6124ZM0.666748 41.5312H86.1667V44.9999H0.666748V41.5312Z" fill="#BD3D44"/>
<path fill-rule="evenodd" clip-rule="evenodd" d="M0.666626 3.46877H86.1666V6.92814H0.666626V3.46877ZM0.666626 10.3875H86.1666V13.8469H0.666626V10.3875ZM0.666626 17.3063H86.1666V20.775H0.666626V17.3063ZM0.666626 24.2344H86.1666V27.7031H0.666626V24.2344ZM0.666626 31.1531H86.1666V34.6219H0.666626V31.1531ZM0.666626 38.0719H86.1666V41.5406H0.666626V38.0719Z" fill="white"/>
<path fill-rule="evenodd" clip-rule="evenodd" d="M0.666748 -6.10352e-05H34.8667V24.2343H0.666748V-6.10352e-05Z" fill="#192F5D"/>
<path fill-rule="evenodd" clip-rule="evenodd" d="M3.51652 1.0311L3.83527 1.99672H4.82902L4.02277 2.58735L4.33214 3.55297L3.51652 2.95297L2.71027 3.5436L3.01027 2.58735L2.19464 1.99672H3.21652L3.51652 1.0311ZM9.21652 1.0311L9.52589 1.99672H10.5384L9.72277 2.58735L10.0228 3.55297L9.21652 2.95297L8.40089 3.5436L8.71027 2.58735L7.90402 1.99672H8.89777L9.21652 1.0311ZM14.9165 1.0311L15.2259 1.99672H16.229L15.4228 2.58735L15.7321 3.55297L14.9165 2.95297L14.1009 3.5436L14.4103 2.58735L13.5946 1.99672H14.6071L14.9165 1.0311ZM20.6165 1.0311L20.9259 1.99672H21.9384L21.1228 2.58735L21.4321 3.55297L20.6165 2.95297L19.8009 3.5436L20.1196 2.58735L19.2946 1.99672H20.2978L20.6165 1.0311ZM26.3165 1.0311L26.6259 1.99672H27.629L26.8228 2.58735L27.1321 3.55297L26.3165 2.95297L25.5009 3.5436L25.8103 2.58735L25.004 1.99672H26.0071L26.3165 1.0311ZM32.0165 1.0311L32.3259 1.99672H33.3384L32.5134 2.58735L32.8321 3.55297L32.0165 2.95297L31.2009 3.5436L31.5196 2.58735L30.6946 1.99672H31.7071L32.0165 1.0311ZM6.36652 3.4686L6.67589 4.42485H7.69777L6.88214 5.0061L7.18214 5.97172L6.38527 5.3811L5.56964 5.97172L5.86027 5.0061L5.07277 4.42485H6.07589L6.36652 3.4686ZM12.0665 3.4686L12.3853 4.42485H13.3884L12.5634 5.0061L12.8821 5.97172L12.0665 5.3811L11.2509 5.97172L11.5603 5.0061L10.7446 4.42485H11.7571L12.0665 3.4686ZM17.7665 3.4686L18.0759 4.42485H19.0884L18.2728 5.0061L18.5821 5.97172L17.7665 5.3811L16.9509 5.97172L17.2603 5.0061L16.454 4.42485H17.4478L17.7665 3.4686ZM23.4665 3.4686L23.7853 4.42485H24.7884L23.9634 5.0061L24.2821 5.97172L23.4665 5.3811L22.6603 5.97172L22.9603 5.0061L22.1446 4.42485H23.1665L23.4665 3.4686ZM29.1665 3.4686L29.4759 4.42485H30.4884L29.6728 5.0061L29.9821 5.97172L29.1665 5.3811L28.3509 5.97172L28.6603 5.0061L27.854 4.42485H28.8571L29.1665 3.4686ZM3.51652 5.8686L3.83527 6.8436H4.82902L4.02277 7.43422L4.33214 8.39047L3.51652 7.79985L2.71027 8.39047L3.01027 7.43422L2.19464 6.8436H3.21652L3.51652 5.8686ZM9.21652 5.8686L9.52589 6.8436H10.5384L9.72277 7.43422L10.0228 8.39047L9.21652 7.79985L8.40089 8.39047L8.71027 7.42485L7.90402 6.83422H8.89777L9.21652 5.8686ZM14.9165 5.8686L15.2259 6.83422H16.229L15.4228 7.42485L15.7321 8.3811L14.9165 7.79047L14.1009 8.3811L14.4103 7.41547L13.5946 6.82485H14.6071L14.9165 5.8686ZM20.6165 5.8686L20.9259 6.83422H21.9384L21.1228 7.42485L21.4321 8.3811L20.6165 7.79047L19.8009 8.3811L20.1196 7.41547L19.2946 6.82485H20.2978L20.6165 5.8686ZM26.3165 5.8686L26.6259 6.83422H27.629L26.8228 7.42485L27.1321 8.3811L26.3165 7.79047L25.5009 8.3811L25.8103 7.41547L25.004 6.82485H26.0071L26.3165 5.8686ZM32.0165 5.8686L32.3259 6.83422H33.3384L32.5134 7.42485L32.8321 8.3811L32.0165 7.79047L31.2009 8.3811L31.5196 7.41547L30.6946 6.82485H31.7071L32.0165 5.8686ZM6.36652 8.3061L6.67589 9.26235H7.69777L6.88214 9.85297L7.19152 10.8186L6.37589 10.2186L5.56027 10.8092L5.86964 9.85297L5.06339 9.26235H6.06652L6.36652 8.3061ZM12.0665 8.3061L12.3853 9.26235H13.3884L12.5634 9.85297L12.8821 10.8186L12.0665 10.2186L11.2509 10.8092L11.5603 9.85297L10.7446 9.26235H11.7571L12.0665 8.3061ZM17.7665 8.3061L18.0759 9.26235H19.0884L18.2728 9.85297L18.5821 10.8186L17.7665 10.2186L16.9509 10.8092L17.2603 9.85297L16.454 9.26235H17.4478L17.7665 8.3061ZM23.4665 8.3061L23.7853 9.26235H24.7884L23.9728 9.85297L24.2821 10.8186L23.4665 10.2186L22.6603 10.8092L22.9603 9.85297L22.1446 9.26235H23.1665L23.4665 8.3061ZM29.1665 8.3061L29.4759 9.26235H30.4884L29.6728 9.85297L29.9821 10.8186L29.1665 10.2186L28.3509 10.8092L28.6603 9.85297L27.854 9.26235H28.8571L29.1665 8.3061ZM3.51652 10.7342L3.83527 11.6905H4.82902L4.02277 12.2811L4.33214 13.2467L3.51652 12.6467L2.71027 13.2373L3.01027 12.2811L2.19464 11.6905H3.21652L3.51652 10.7342ZM9.21652 10.7342L9.52589 11.6905H10.5384L9.72277 12.2811L10.0228 13.2373L9.21652 12.6467L8.40089 13.2373L8.71027 12.2811L7.90402 11.6905H8.89777L9.21652 10.7342ZM14.9165 10.7342L15.2259 11.6905H16.229L15.4228 12.2811L15.7321 13.2467L14.9165 12.6467L14.1009 13.2373L14.4103 12.2811L13.5946 11.6905H14.6071L14.9165 10.7342ZM20.6165 10.7342L20.9259 11.6905H21.9384L21.1228 12.2811L21.4321 13.2467L20.6165 12.6467L19.8009 13.2373L20.1196 12.2811L19.2946 11.6905H20.2978L20.6165 10.7342ZM26.3165 10.7342L26.6259 11.6905H27.629L26.8228 12.2811L27.1321 13.2467L26.3165 12.6467L25.5009 13.2373L25.8103 12.2811L25.004 11.6905H26.0071L26.3165 10.7342ZM32.0165 10.7342L32.3259 11.6905H33.3384L32.5134 12.2811L32.8321 13.2467L32.0165 12.6467L31.2009 13.2373L31.5103 12.2811L30.6853 11.6905H31.6978L32.0165 10.7342ZM6.36652 13.153L6.67589 14.1186H7.69777L6.88214 14.6998L7.19152 15.6655L6.37589 15.0655L5.56027 15.6655L5.86964 14.6998L5.06339 14.1092H6.06652L6.36652 13.153ZM12.0665 13.153L12.3853 14.1186H13.3884L12.5634 14.6998L12.8821 15.6655L12.0665 15.0655L11.2509 15.6655L11.5603 14.6998L10.7446 14.1092H11.7571L12.0665 13.153ZM17.7665 13.153L18.0759 14.1186H19.0884L18.2728 14.6998L18.5821 15.6655L17.7665 15.0655L16.9509 15.6655L17.2603 14.6998L16.454 14.1092H17.4478L17.7665 13.153ZM23.4665 13.153L23.7853 14.1186H24.7884L23.9728 14.6998L24.2821 15.6655L23.4665 15.0655L22.6603 15.6655L22.9603 14.6998L22.1446 14.1092H23.1665L23.4665 13.153ZM29.1665 13.153L29.4759 14.1186H30.4884L29.6728 14.6998L29.9821 15.6655L29.1665 15.0655L28.3509 15.6655L28.6603 14.6998L27.854 14.1092H28.8571L29.1665 13.153ZM3.51652 15.5717L3.83527 16.5373H4.82902L4.02277 17.128L4.33214 18.0748L3.51652 17.4936L2.71027 18.0748L3.01027 17.1186L2.19464 16.528H3.21652L3.51652 15.5717ZM9.21652 15.5717L9.52589 16.5373H10.5384L9.72277 17.128L10.0321 18.0748L9.21652 17.4936L8.40089 18.0748L8.71964 17.1186L7.90402 16.528H8.89777L9.21652 15.5717ZM14.9165 15.5717L15.2259 16.5373H16.229L15.4228 17.128L15.7321 18.0748L14.9165 17.4936L14.1009 18.0748L14.4103 17.1186L13.5946 16.528H14.6071L14.9165 15.5717ZM20.6165 15.5717L20.9259 16.5373H21.9384L21.1228 17.128L21.4321 18.0748L20.6165 17.4936L19.8009 18.0748L20.1196 17.1186L19.2946 16.528H20.2978L20.6165 15.5717ZM26.3165 15.5717L26.6259 16.5373H27.629L26.8228 17.128L27.1321 18.0748L26.3165 17.4936L25.5009 18.0748L25.8103 17.1186L25.004 16.528H26.0071L26.3165 15.5717ZM32.0165 15.5717L32.3259 16.5373H33.3384L32.5134 17.128L32.8321 18.0748L32.0165 17.4936L31.2009 18.0748L31.5196 17.1186L30.6946 16.528H31.7071L32.0165 15.5717ZM6.36652 17.9998L6.67589 18.9561H7.69777L6.88214 19.5467L7.19152 20.5124L6.37589 19.9123L5.56027 20.503L5.86964 19.5467L5.06339 18.9561H6.06652L6.36652 17.9998ZM12.0665 17.9998L12.3853 18.9561H13.3884L12.5634 19.5467L12.8821 20.5124L12.0665 19.9123L11.2509 20.503L11.5603 19.5467L10.7446 18.9561H11.7571L12.0665 17.9998ZM17.7665 17.9998L18.0759 18.9561H19.0884L18.2728 19.5467L18.5821 20.5124L17.7665 19.9123L16.9509 20.503L17.2603 19.5467L16.454 18.9561H17.4478L17.7665 17.9998ZM23.4665 17.9998L23.7853 18.9561H24.7884L23.9728 19.5467L24.2821 20.5124L23.4665 19.9123L22.6603 20.503L22.9603 19.5467L22.1446 18.9561H23.1665L23.4665 17.9998ZM29.1665 17.9998L29.4759 18.9561H30.4884L29.6728 19.5467L29.9821 20.5124L29.1665 19.9123L28.3509 20.503L28.6603 19.5467L27.854 18.9561H28.8571L29.1665 17.9998ZM3.51652 20.428L3.83527 21.3842H4.82902L4.02277 21.9748L4.33214 22.9311L3.51652 22.3405L2.71027 22.9311L3.01027 21.9655L2.19464 21.3748H3.21652L3.51652 20.428ZM9.21652 20.428L9.52589 21.3842H10.5384L9.72277 21.9748L10.0321 22.9311L9.21652 22.3405L8.40089 22.9311L8.71964 21.9655L7.90402 21.3748H8.89777L9.21652 20.428ZM14.9165 20.428L15.2259 21.3842H16.229L15.4415 21.9748L15.7509 22.9311L14.9353 22.3405L14.1196 22.9311L14.429 21.9655L13.6134 21.3748H14.6259L14.9165 20.428ZM20.6165 20.428L20.9259 21.3842H21.9384L21.1228 21.9748L21.4321 22.9311L20.6165 22.3405L19.8009 22.9311L20.1196 21.9655L19.2946 21.3748H20.2978L20.6165 20.428ZM26.3165 20.428L26.6259 21.3842H27.629L26.8228 21.9748L27.1321 22.9311L26.3165 22.3405L25.5009 22.9311L25.8103 21.9655L25.004 21.3748H26.0071L26.3165 20.428ZM32.0165 20.428L32.3259 21.3842H33.3384L32.5134 21.9748L32.8321 22.9311L32.0165 22.3405L31.2009 22.9311L31.5196 21.9655L30.6946 21.3748H31.7071L32.0165 20.428Z" fill="white"/>
</g>
<defs>
<clipPath id="clip0_152542_2264">
<rect width="60" height="45" fill="white" transform="translate(0.666748)"/>
</clipPath>
</defs>
</svg>
