<svg width="33" height="32" viewBox="0 0 33 32" fill="none" xmlns="http://www.w3.org/2000/svg">
<path d="M19.5 13.5H23.5" stroke="white" stroke-width="2" stroke-linecap="round" stroke-linejoin="round"/>
<path d="M9.5 13.5H13.5" stroke="white" stroke-width="2" stroke-linecap="round" stroke-linejoin="round"/>
<path d="M11.5 11.5V15.5" stroke="white" stroke-width="2" stroke-linecap="round" stroke-linejoin="round"/>
<path d="M22.0001 6.96252L11.0001 7.00002C9.47224 7.00293 7.99407 7.5429 6.82412 8.52548C5.65417 9.50805 4.86691 10.8707 4.60006 12.375V12.375L2.55006 22.8875C2.41843 23.6216 2.52475 24.3786 2.85352 25.0481C3.18228 25.7175 3.7163 26.2644 4.37771 26.6091C5.03911 26.9537 5.79333 27.0781 6.53038 26.9641C7.26742 26.85 7.94877 26.5035 8.47506 25.975V25.975L13.8751 20L22.0001 19.9625C23.724 19.9625 25.3773 19.2777 26.5963 18.0587C27.8152 16.8397 28.5001 15.1864 28.5001 13.4625C28.5001 11.7386 27.8152 10.0853 26.5963 8.86633C25.3773 7.64734 23.724 6.96252 22.0001 6.96252V6.96252Z" stroke="white" stroke-width="2" stroke-linecap="round" stroke-linejoin="round"/>
<path d="M28.4 12.3375L30.45 22.8875C30.5816 23.6216 30.4753 24.3786 30.1465 25.0481C29.8178 25.7175 29.2838 26.2644 28.6224 26.6091C27.9609 26.9537 27.2067 27.0781 26.4697 26.9641C25.7326 26.85 25.0513 26.5035 24.525 25.975V25.975L19.125 19.975" stroke="white" stroke-width="2" stroke-linecap="round" stroke-linejoin="round"/>
</svg>
