<svg width="33" height="32" viewBox="0 0 33 32" fill="none" xmlns="http://www.w3.org/2000/svg">
<path d="M16.5 28C23.1274 28 28.5 22.6274 28.5 16C28.5 9.37258 23.1274 4 16.5 4C9.87258 4 4.5 9.37258 4.5 16C4.5 22.6274 9.87258 28 16.5 28Z" stroke="white" stroke-width="2" stroke-linecap="round" stroke-linejoin="round"/>
<path d="M12 17.5C12.8284 17.5 13.5 16.8284 13.5 16C13.5 15.1716 12.8284 14.5 12 14.5C11.1716 14.5 10.5 15.1716 10.5 16C10.5 16.8284 11.1716 17.5 12 17.5Z" fill="white"/>
<path d="M21 17.5C21.8284 17.5 22.5 16.8284 22.5 16C22.5 15.1716 21.8284 14.5 21 14.5C20.1716 14.5 19.5 15.1716 19.5 16C19.5 16.8284 20.1716 17.5 21 17.5Z" fill="white"/>
<path d="M19.8125 21C18.8308 21.652 17.6785 21.9998 16.5 21.9998C15.3215 21.9998 14.1692 21.652 13.1875 21" stroke="white" stroke-width="2" stroke-linecap="round" stroke-linejoin="round"/>
<path d="M16.5 4C14.5 6.5 14.5 9 14.5 9C14.5 9.53043 14.7107 10.0391 15.0858 10.4142C15.4609 10.7893 15.9696 11 16.5 11C17.0304 11 17.5391 10.7893 17.9142 10.4142C18.2893 10.0391 18.5 9.53043 18.5 9" stroke="white" stroke-width="2" stroke-linecap="round" stroke-linejoin="round"/>
</svg>
